%TF.GenerationSoftware,KiCad,Pcbnew,9.0.7*%
%TF.CreationDate,2026-03-14T16:53:24+05:30*%
%TF.ProjectId,ARDUINO PARKING SENSOR PCB,41524455-494e-44f2-9050-41524b494e47,rev?*%
%TF.SameCoordinates,Original*%
%TF.FileFunction,Copper,L1,Top*%
%TF.FilePolarity,Positive*%
%FSLAX46Y46*%
G04 Gerber Fmt 4.6, Leading zero omitted, Abs format (unit mm)*
G04 Created by KiCad (PCBNEW 9.0.7) date 2026-03-14 16:53:24*
%MOMM*%
%LPD*%
G01*
G04 APERTURE LIST*
G04 Aperture macros list*
%AMRoundRect*
0 Rectangle with rounded corners*
0 $1 Rounding radius*
0 $2 $3 $4 $5 $6 $7 $8 $9 X,Y pos of 4 corners*
0 Add a 4 corners polygon primitive as box body*
4,1,4,$2,$3,$4,$5,$6,$7,$8,$9,$2,$3,0*
0 Add four circle primitives for the rounded corners*
1,1,$1+$1,$2,$3*
1,1,$1+$1,$4,$5*
1,1,$1+$1,$6,$7*
1,1,$1+$1,$8,$9*
0 Add four rect primitives between the rounded corners*
20,1,$1+$1,$2,$3,$4,$5,0*
20,1,$1+$1,$4,$5,$6,$7,0*
20,1,$1+$1,$6,$7,$8,$9,0*
20,1,$1+$1,$8,$9,$2,$3,0*%
G04 Aperture macros list end*
%ADD10C,0.800000*%
%TA.AperFunction,NonConductor*%
%ADD11C,0.800000*%
%TD*%
%TA.AperFunction,NonConductor*%
%ADD12C,0.200000*%
%TD*%
%TA.AperFunction,EtchedComponent*%
%ADD13C,0.000000*%
%TD*%
%TA.AperFunction,ComponentPad*%
%ADD14R,1.700000X1.700000*%
%TD*%
%TA.AperFunction,ComponentPad*%
%ADD15C,1.700000*%
%TD*%
%TA.AperFunction,ComponentPad*%
%ADD16R,1.800000X1.800000*%
%TD*%
%TA.AperFunction,ComponentPad*%
%ADD17C,1.800000*%
%TD*%
%TA.AperFunction,ComponentPad*%
%ADD18O,1.800000X3.600000*%
%TD*%
%TA.AperFunction,ComponentPad*%
%ADD19RoundRect,0.250000X-0.650000X-1.550000X0.650000X-1.550000X0.650000X1.550000X-0.650000X1.550000X0*%
%TD*%
%TA.AperFunction,ComponentPad*%
%ADD20C,1.600000*%
%TD*%
%TA.AperFunction,ComponentPad*%
%ADD21R,2.000000X2.000000*%
%TD*%
%TA.AperFunction,ComponentPad*%
%ADD22C,2.000000*%
%TD*%
%TA.AperFunction,ComponentPad*%
%ADD23R,1.600000X1.600000*%
%TD*%
%TA.AperFunction,ComponentPad*%
%ADD24O,1.600000X1.600000*%
%TD*%
%TA.AperFunction,Conductor*%
%ADD25C,0.200000*%
%TD*%
G04 APERTURE END LIST*
D10*
D11*
X106264410Y-56468876D02*
X104931076Y-54564114D01*
X103978695Y-56468876D02*
X103978695Y-52468876D01*
X103978695Y-52468876D02*
X105502505Y-52468876D01*
X105502505Y-52468876D02*
X105883457Y-52659352D01*
X105883457Y-52659352D02*
X106073934Y-52849828D01*
X106073934Y-52849828D02*
X106264410Y-53230780D01*
X106264410Y-53230780D02*
X106264410Y-53802209D01*
X106264410Y-53802209D02*
X106073934Y-54183161D01*
X106073934Y-54183161D02*
X105883457Y-54373638D01*
X105883457Y-54373638D02*
X105502505Y-54564114D01*
X105502505Y-54564114D02*
X103978695Y-54564114D01*
X107978695Y-54373638D02*
X109312029Y-54373638D01*
X109883457Y-56468876D02*
X107978695Y-56468876D01*
X107978695Y-56468876D02*
X107978695Y-52468876D01*
X107978695Y-52468876D02*
X109883457Y-52468876D01*
X111026315Y-52468876D02*
X112359648Y-56468876D01*
X112359648Y-56468876D02*
X113692982Y-52468876D01*
X115026314Y-56087923D02*
X115216791Y-56278400D01*
X115216791Y-56278400D02*
X115026314Y-56468876D01*
X115026314Y-56468876D02*
X114835838Y-56278400D01*
X114835838Y-56278400D02*
X115026314Y-56087923D01*
X115026314Y-56087923D02*
X115026314Y-56468876D01*
X118645362Y-52468876D02*
X117883457Y-52468876D01*
X117883457Y-52468876D02*
X117502505Y-52659352D01*
X117502505Y-52659352D02*
X117312029Y-52849828D01*
X117312029Y-52849828D02*
X116931076Y-53421257D01*
X116931076Y-53421257D02*
X116740600Y-54183161D01*
X116740600Y-54183161D02*
X116740600Y-55706971D01*
X116740600Y-55706971D02*
X116931076Y-56087923D01*
X116931076Y-56087923D02*
X117121553Y-56278400D01*
X117121553Y-56278400D02*
X117502505Y-56468876D01*
X117502505Y-56468876D02*
X118264410Y-56468876D01*
X118264410Y-56468876D02*
X118645362Y-56278400D01*
X118645362Y-56278400D02*
X118835838Y-56087923D01*
X118835838Y-56087923D02*
X119026315Y-55706971D01*
X119026315Y-55706971D02*
X119026315Y-54754590D01*
X119026315Y-54754590D02*
X118835838Y-54373638D01*
X118835838Y-54373638D02*
X118645362Y-54183161D01*
X118645362Y-54183161D02*
X118264410Y-53992685D01*
X118264410Y-53992685D02*
X117502505Y-53992685D01*
X117502505Y-53992685D02*
X117121553Y-54183161D01*
X117121553Y-54183161D02*
X116931076Y-54373638D01*
X116931076Y-54373638D02*
X116740600Y-54754590D01*
X120740600Y-56087923D02*
X120931077Y-56278400D01*
X120931077Y-56278400D02*
X120740600Y-56468876D01*
X120740600Y-56468876D02*
X120550124Y-56278400D01*
X120550124Y-56278400D02*
X120740600Y-56087923D01*
X120740600Y-56087923D02*
X120740600Y-56468876D01*
X123407267Y-52468876D02*
X123788220Y-52468876D01*
X123788220Y-52468876D02*
X124169172Y-52659352D01*
X124169172Y-52659352D02*
X124359648Y-52849828D01*
X124359648Y-52849828D02*
X124550124Y-53230780D01*
X124550124Y-53230780D02*
X124740601Y-53992685D01*
X124740601Y-53992685D02*
X124740601Y-54945066D01*
X124740601Y-54945066D02*
X124550124Y-55706971D01*
X124550124Y-55706971D02*
X124359648Y-56087923D01*
X124359648Y-56087923D02*
X124169172Y-56278400D01*
X124169172Y-56278400D02*
X123788220Y-56468876D01*
X123788220Y-56468876D02*
X123407267Y-56468876D01*
X123407267Y-56468876D02*
X123026315Y-56278400D01*
X123026315Y-56278400D02*
X122835839Y-56087923D01*
X122835839Y-56087923D02*
X122645362Y-55706971D01*
X122645362Y-55706971D02*
X122454886Y-54945066D01*
X122454886Y-54945066D02*
X122454886Y-53992685D01*
X122454886Y-53992685D02*
X122645362Y-53230780D01*
X122645362Y-53230780D02*
X122835839Y-52849828D01*
X122835839Y-52849828D02*
X123026315Y-52659352D01*
X123026315Y-52659352D02*
X123407267Y-52468876D01*
D12*
X100500000Y-50000000D02*
X174000000Y-50000000D01*
X174000000Y-136500000D01*
X100500000Y-136500000D01*
X100500000Y-50000000D01*
D13*
%TA.AperFunction,EtchedComponent*%
%TO.C,G\u002A\u002A\u002A*%
G36*
X166184091Y-58369689D02*
G01*
X166251980Y-58395616D01*
X166294960Y-58436698D01*
X166315658Y-58494233D01*
X166318497Y-58533453D01*
X166310926Y-58597440D01*
X166286326Y-58638631D01*
X166284230Y-58640586D01*
X166263176Y-58662101D01*
X166261429Y-58680239D01*
X166280318Y-58707558D01*
X166292899Y-58722623D01*
X166330297Y-58791100D01*
X166335137Y-58864478D01*
X166307624Y-58936290D01*
X166285283Y-58965767D01*
X166234731Y-59022389D01*
X166033504Y-59028225D01*
X165832277Y-59034060D01*
X165833294Y-58961706D01*
X165937064Y-58961706D01*
X166010750Y-58961610D01*
X166075565Y-58957145D01*
X166138618Y-58946312D01*
X166146694Y-58944218D01*
X166204712Y-58914753D01*
X166235567Y-58869483D01*
X166236119Y-58814302D01*
X166227744Y-58791986D01*
X166202304Y-58757666D01*
X166161408Y-58735894D01*
X166098355Y-58724279D01*
X166028088Y-58720704D01*
X165937064Y-58718976D01*
X165937064Y-58840341D01*
X165937064Y-58961706D01*
X165833294Y-58961706D01*
X165835001Y-58840341D01*
X165836991Y-58698805D01*
X165837626Y-58653664D01*
X165937064Y-58653664D01*
X166048779Y-58646550D01*
X166130757Y-58636131D01*
X166183562Y-58616549D01*
X166196151Y-58607168D01*
X166227359Y-58561701D01*
X166224090Y-58514142D01*
X166197132Y-58476246D01*
X166168943Y-58456065D01*
X166128982Y-58445342D01*
X166067024Y-58441670D01*
X166049760Y-58441570D01*
X165937064Y-58441570D01*
X165937064Y-58547617D01*
X165937064Y-58653664D01*
X165837626Y-58653664D01*
X165839117Y-58547617D01*
X165841706Y-58363549D01*
X165963071Y-58358112D01*
X166088664Y-58357620D01*
X166184091Y-58369689D01*
G37*
%TD.AperFunction*%
%TA.AperFunction,EtchedComponent*%
G36*
X166758084Y-58370072D02*
G01*
X166764145Y-58376553D01*
X166774763Y-58398239D01*
X166794917Y-58445845D01*
X166822205Y-58513156D01*
X166854225Y-58593955D01*
X166888577Y-58682027D01*
X166922858Y-58771158D01*
X166954667Y-58855130D01*
X166981603Y-58927729D01*
X167001264Y-58982739D01*
X167011249Y-59013945D01*
X167012013Y-59018078D01*
X166997176Y-59027909D01*
X166969479Y-59031058D01*
X166939340Y-59023857D01*
X166914765Y-58997171D01*
X166892434Y-58953037D01*
X166857922Y-58875017D01*
X166708600Y-58875017D01*
X166559278Y-58875017D01*
X166524766Y-58953037D01*
X166498969Y-59002480D01*
X166474059Y-59025906D01*
X166447720Y-59031058D01*
X166415501Y-59026975D01*
X166405187Y-59019358D01*
X166411185Y-58999589D01*
X166427589Y-58953769D01*
X166452016Y-58888074D01*
X166482082Y-58808683D01*
X166489887Y-58788327D01*
X166581875Y-58788327D01*
X166701586Y-58788327D01*
X166760946Y-58786227D01*
X166803775Y-58780704D01*
X166821246Y-58772930D01*
X166821296Y-58772471D01*
X166815601Y-58748580D01*
X166800763Y-58704505D01*
X166780151Y-58648808D01*
X166757134Y-58590051D01*
X166735081Y-58536796D01*
X166717360Y-58497604D01*
X166707342Y-58481038D01*
X166706641Y-58481094D01*
X166697718Y-58499210D01*
X166679458Y-58542130D01*
X166655021Y-58602310D01*
X166640841Y-58638128D01*
X166581875Y-58788327D01*
X166489887Y-58788327D01*
X166515403Y-58721775D01*
X166549595Y-58633527D01*
X166582274Y-58550118D01*
X166611057Y-58477726D01*
X166633559Y-58422529D01*
X166647397Y-58390707D01*
X166648904Y-58387712D01*
X166679018Y-58362242D01*
X166721106Y-58355810D01*
X166758084Y-58370072D01*
G37*
%TD.AperFunction*%
%TA.AperFunction,EtchedComponent*%
G36*
X167195984Y-58377081D02*
G01*
X167232999Y-58425041D01*
X167276841Y-58503535D01*
X167286996Y-58523856D01*
X167333148Y-58618195D01*
X167366762Y-58683221D01*
X167392070Y-58719973D01*
X167413305Y-58729488D01*
X167434697Y-58712804D01*
X167460481Y-58670958D01*
X167494889Y-58604990D01*
X167508784Y-58578242D01*
X167557246Y-58487359D01*
X167593910Y-58423810D01*
X167621873Y-58383617D01*
X167644234Y-58362802D01*
X167664088Y-58357385D01*
X167678177Y-58360634D01*
X167687825Y-58368387D01*
X167694947Y-58386207D01*
X167699908Y-58418640D01*
X167703074Y-58470232D01*
X167704808Y-58545528D01*
X167705477Y-58649075D01*
X167705528Y-58701094D01*
X167705528Y-59031058D01*
X167662687Y-59031058D01*
X167619845Y-59031058D01*
X167615007Y-58801331D01*
X167610170Y-58571604D01*
X167526411Y-58723310D01*
X167479617Y-58803905D01*
X167442894Y-58853500D01*
X167412190Y-58872767D01*
X167383456Y-58862375D01*
X167352642Y-58822995D01*
X167317061Y-58757986D01*
X167274311Y-58675036D01*
X167243947Y-58622115D01*
X167223835Y-58600036D01*
X167211840Y-58609614D01*
X167205825Y-58651661D01*
X167203657Y-58726992D01*
X167203281Y-58801331D01*
X167202729Y-59031058D01*
X167159385Y-59031058D01*
X167116040Y-59031058D01*
X167116040Y-58702661D01*
X167116955Y-58582192D01*
X167119591Y-58484975D01*
X167123786Y-58414153D01*
X167129378Y-58372871D01*
X167133533Y-58363453D01*
X167163571Y-58357327D01*
X167195984Y-58377081D01*
G37*
%TD.AperFunction*%
%TA.AperFunction,EtchedComponent*%
G36*
X168387301Y-58359978D02*
G01*
X168477682Y-58375898D01*
X168540701Y-58404398D01*
X168579383Y-58447137D01*
X168596756Y-58505773D01*
X168598429Y-58536928D01*
X168587265Y-58610122D01*
X168565236Y-58647986D01*
X168543386Y-58675349D01*
X168544296Y-58695398D01*
X168567295Y-58723492D01*
X168604758Y-58787224D01*
X168614215Y-58857746D01*
X168597152Y-58925740D01*
X168555051Y-58981890D01*
X168522635Y-59003899D01*
X168486428Y-59014432D01*
X168428095Y-59022898D01*
X168356648Y-59028953D01*
X168281098Y-59032250D01*
X168210454Y-59032446D01*
X168153729Y-59029193D01*
X168119933Y-59022147D01*
X168115858Y-59019499D01*
X168111910Y-58998945D01*
X168108792Y-58950560D01*
X168106516Y-58881178D01*
X168105590Y-58826826D01*
X168105093Y-58797633D01*
X168104585Y-58715063D01*
X168208327Y-58715063D01*
X168208327Y-58826826D01*
X168210214Y-58886577D01*
X168215137Y-58932025D01*
X168221330Y-58951979D01*
X168244156Y-58957612D01*
X168290949Y-58959140D01*
X168346358Y-58956571D01*
X168414378Y-58948514D01*
X168457563Y-58935340D01*
X168485700Y-58913827D01*
X168489396Y-58909474D01*
X168520235Y-58853466D01*
X168518585Y-58804638D01*
X168486261Y-58765104D01*
X168425077Y-58736981D01*
X168336848Y-58722383D01*
X168328418Y-58721849D01*
X168208327Y-58715063D01*
X168104585Y-58715063D01*
X168104534Y-58706760D01*
X168104849Y-58615395D01*
X168105999Y-58534038D01*
X168106051Y-58530370D01*
X168108150Y-58458521D01*
X168109134Y-58441570D01*
X168208327Y-58441570D01*
X168208327Y-58534038D01*
X168210597Y-58588423D01*
X168216420Y-58627959D01*
X168221330Y-58639897D01*
X168246467Y-58646838D01*
X168294060Y-58647624D01*
X168352661Y-58643377D01*
X168410822Y-58635218D01*
X168457096Y-58624271D01*
X168477233Y-58614809D01*
X168499123Y-58576677D01*
X168499759Y-58526503D01*
X168479447Y-58479403D01*
X168474377Y-58473276D01*
X168449528Y-58455170D01*
X168410401Y-58445288D01*
X168348064Y-58441706D01*
X168327005Y-58441570D01*
X168208327Y-58441570D01*
X168109134Y-58441570D01*
X168111158Y-58406683D01*
X168114823Y-58382305D01*
X168127257Y-58368156D01*
X168155672Y-58359701D01*
X168206769Y-58355733D01*
X168266530Y-58354977D01*
X168387301Y-58359978D01*
G37*
%TD.AperFunction*%
%TA.AperFunction,EtchedComponent*%
G36*
X169013545Y-58362381D02*
G01*
X169036053Y-58375676D01*
X169047627Y-58398109D01*
X169068645Y-58446518D01*
X169096658Y-58514590D01*
X169129219Y-58596009D01*
X169163880Y-58684462D01*
X169198194Y-58773632D01*
X169229712Y-58857206D01*
X169255987Y-58928868D01*
X169274572Y-58982303D01*
X169283018Y-59011198D01*
X169283275Y-59013473D01*
X169268536Y-59027032D01*
X169242899Y-59031058D01*
X169212127Y-59022084D01*
X169185869Y-58990452D01*
X169169213Y-58957372D01*
X169135903Y-58883686D01*
X168985300Y-58878692D01*
X168834696Y-58873699D01*
X168799892Y-58952378D01*
X168770419Y-59006015D01*
X168741680Y-59029313D01*
X168730461Y-59031058D01*
X168698788Y-59025361D01*
X168688825Y-59018054D01*
X168692622Y-58998607D01*
X168707313Y-58951995D01*
X168731117Y-58883330D01*
X168762254Y-58797724D01*
X168769267Y-58779099D01*
X168867166Y-58779099D01*
X168883039Y-58783650D01*
X168924805Y-58786947D01*
X168983689Y-58788321D01*
X168988382Y-58788327D01*
X169109599Y-58788327D01*
X169064566Y-58671297D01*
X169040936Y-58608907D01*
X169021687Y-58556304D01*
X169010862Y-58524544D01*
X169010679Y-58523925D01*
X168996621Y-58498272D01*
X168987770Y-58493583D01*
X168977151Y-58508327D01*
X168958070Y-58546627D01*
X168934284Y-58599589D01*
X168909550Y-58658318D01*
X168887626Y-58713920D01*
X168872268Y-58757500D01*
X168867166Y-58779099D01*
X168769267Y-58779099D01*
X168798942Y-58700289D01*
X168805072Y-58684300D01*
X168847717Y-58574138D01*
X168880492Y-58492246D01*
X168905582Y-58434382D01*
X168925172Y-58396303D01*
X168941447Y-58373767D01*
X168956590Y-58362532D01*
X168972786Y-58358354D01*
X168972917Y-58358338D01*
X169013545Y-58362381D01*
G37*
%TD.AperFunction*%
%TA.AperFunction,EtchedComponent*%
G36*
X169982927Y-58384235D02*
G01*
X169985457Y-58392765D01*
X169988466Y-58423017D01*
X169990511Y-58481239D01*
X169991491Y-58560737D01*
X169991308Y-58654814D01*
X169990404Y-58727645D01*
X169985460Y-59022389D01*
X169942115Y-59022389D01*
X169898770Y-59022389D01*
X169890101Y-58796996D01*
X169881432Y-58571604D01*
X169807168Y-58715408D01*
X169771915Y-58779537D01*
X169739470Y-58831289D01*
X169714749Y-58863125D01*
X169706829Y-58869217D01*
X169676587Y-58868470D01*
X169643566Y-58841861D01*
X169605592Y-58786886D01*
X169560492Y-58701041D01*
X169559993Y-58700008D01*
X169499999Y-58575788D01*
X169491330Y-58799089D01*
X169482661Y-59022389D01*
X169434603Y-59027911D01*
X169386546Y-59033434D01*
X169391259Y-58698492D01*
X169395972Y-58363549D01*
X169437208Y-58363549D01*
X169456828Y-58367822D01*
X169477101Y-58383803D01*
X169501537Y-58416238D01*
X169533642Y-58469870D01*
X169576926Y-58549445D01*
X169582676Y-58560282D01*
X169686909Y-58757014D01*
X169751443Y-58638302D01*
X169789678Y-58567776D01*
X169827845Y-58497068D01*
X169857634Y-58441570D01*
X169894018Y-58388214D01*
X169930340Y-58359608D01*
X169961632Y-58357649D01*
X169982927Y-58384235D01*
G37*
%TD.AperFunction*%
%TA.AperFunction,EtchedComponent*%
G36*
X166506429Y-56567138D02*
G01*
X166587611Y-56587793D01*
X166668089Y-56617943D01*
X166731389Y-56656720D01*
X166787665Y-56707175D01*
X166841838Y-56771906D01*
X166877369Y-56836339D01*
X166891215Y-56893269D01*
X166882674Y-56932049D01*
X166860513Y-56941129D01*
X166811908Y-56947605D01*
X166745056Y-56950459D01*
X166734029Y-56950512D01*
X166665211Y-56949903D01*
X166622558Y-56946340D01*
X166597561Y-56937221D01*
X166581711Y-56919942D01*
X166571008Y-56900647D01*
X166527225Y-56850743D01*
X166462252Y-56817472D01*
X166385953Y-56802040D01*
X166308193Y-56805652D01*
X166238834Y-56829514D01*
X166203624Y-56855754D01*
X166169051Y-56906019D01*
X166168307Y-56956443D01*
X166201337Y-57010985D01*
X166201467Y-57011136D01*
X166225672Y-57032375D01*
X166263489Y-57053055D01*
X166320289Y-57075351D01*
X166401441Y-57101440D01*
X166483207Y-57125285D01*
X166624344Y-57169081D01*
X166734291Y-57212745D01*
X166816403Y-57259171D01*
X166874034Y-57311253D01*
X166910539Y-57371883D01*
X166929272Y-57443956D01*
X166933724Y-57513889D01*
X166918657Y-57625447D01*
X166873913Y-57720910D01*
X166801099Y-57799139D01*
X166701823Y-57858994D01*
X166577692Y-57899339D01*
X166430314Y-57919034D01*
X166359174Y-57920867D01*
X166221002Y-57912492D01*
X166113996Y-57888591D01*
X166047385Y-57859982D01*
X165982826Y-57823472D01*
X165957955Y-57805797D01*
X165905934Y-57753311D01*
X165861413Y-57688575D01*
X165830425Y-57622413D01*
X165819003Y-57565651D01*
X165819483Y-57557338D01*
X165824129Y-57534961D01*
X165836918Y-57521548D01*
X165865520Y-57514280D01*
X165917608Y-57510338D01*
X165951352Y-57508873D01*
X166078337Y-57503753D01*
X166142069Y-57572947D01*
X166188012Y-57616382D01*
X166234121Y-57650016D01*
X166254609Y-57660421D01*
X166327758Y-57676372D01*
X166409418Y-57676530D01*
X166488555Y-57662633D01*
X166554131Y-57636418D01*
X166589447Y-57607703D01*
X166620479Y-57553574D01*
X166621160Y-57504901D01*
X166590560Y-57460702D01*
X166527748Y-57419996D01*
X166431794Y-57381800D01*
X166353173Y-57358385D01*
X166204575Y-57314108D01*
X166087257Y-57269228D01*
X165997875Y-57221254D01*
X165933086Y-57167693D01*
X165889546Y-57106055D01*
X165863910Y-57033847D01*
X165856143Y-56987989D01*
X165859073Y-56881813D01*
X165891741Y-56786922D01*
X165950471Y-56705325D01*
X166031589Y-56639034D01*
X166131419Y-56590059D01*
X166246285Y-56560411D01*
X166372514Y-56552100D01*
X166506429Y-56567138D01*
G37*
%TD.AperFunction*%
%TA.AperFunction,EtchedComponent*%
G36*
X169763360Y-56563070D02*
G01*
X169865219Y-56578319D01*
X169924777Y-56595085D01*
X170002266Y-56633378D01*
X170077510Y-56688016D01*
X170142779Y-56751588D01*
X170190338Y-56816678D01*
X170211529Y-56870002D01*
X170218846Y-56922749D01*
X170213280Y-56956405D01*
X170189414Y-56975205D01*
X170141827Y-56983388D01*
X170065101Y-56985187D01*
X170064184Y-56985188D01*
X169925096Y-56985188D01*
X169885926Y-56924354D01*
X169830196Y-56865104D01*
X169754515Y-56819949D01*
X169673001Y-56796515D01*
X169646232Y-56794852D01*
X169591601Y-56802589D01*
X169530285Y-56821320D01*
X169516022Y-56827328D01*
X169471677Y-56851411D01*
X169438656Y-56881176D01*
X169415359Y-56921760D01*
X169400187Y-56978299D01*
X169391544Y-57055928D01*
X169387831Y-57159784D01*
X169387303Y-57240978D01*
X169387661Y-57342303D01*
X169389269Y-57415429D01*
X169392928Y-57466831D01*
X169399439Y-57502981D01*
X169409603Y-57530355D01*
X169424220Y-57555427D01*
X169426659Y-57559108D01*
X169489597Y-57627035D01*
X169568395Y-57664788D01*
X169664962Y-57673214D01*
X169681027Y-57672008D01*
X169744535Y-57660761D01*
X169799660Y-57642015D01*
X169819730Y-57630702D01*
X169871901Y-57574843D01*
X169909621Y-57501023D01*
X169924731Y-57425382D01*
X169924750Y-57422969D01*
X169924777Y-57366621D01*
X169815549Y-57366621D01*
X169742016Y-57363076D01*
X169696524Y-57349541D01*
X169672898Y-57321668D01*
X169664964Y-57275107D01*
X169664709Y-57260364D01*
X169667107Y-57216695D01*
X169677506Y-57185179D01*
X169700719Y-57163858D01*
X169741554Y-57150772D01*
X169804822Y-57143962D01*
X169895335Y-57141469D01*
X169957224Y-57141228D01*
X170071094Y-57142692D01*
X170151683Y-57147151D01*
X170200267Y-57154708D01*
X170216054Y-57162034D01*
X170227469Y-57191479D01*
X170234279Y-57246363D01*
X170236595Y-57317771D01*
X170234527Y-57396788D01*
X170228184Y-57474498D01*
X170217678Y-57541987D01*
X170211023Y-57568691D01*
X170165830Y-57677792D01*
X170099632Y-57763650D01*
X170007108Y-57832463D01*
X169965511Y-57854661D01*
X169908456Y-57881310D01*
X169860290Y-57898617D01*
X169809930Y-57908901D01*
X169746294Y-57914483D01*
X169665378Y-57917489D01*
X169578252Y-57918893D01*
X169515216Y-57916541D01*
X169465763Y-57909054D01*
X169419390Y-57895054D01*
X169382526Y-57880384D01*
X169291048Y-57836709D01*
X169224111Y-57790095D01*
X169172012Y-57732134D01*
X169127794Y-57659590D01*
X169098475Y-57581964D01*
X169076997Y-57479225D01*
X169063565Y-57360082D01*
X169058380Y-57233246D01*
X169061647Y-57107426D01*
X169073567Y-56991333D01*
X169094344Y-56893677D01*
X169108986Y-56852445D01*
X169172707Y-56746872D01*
X169263233Y-56659039D01*
X169361296Y-56600602D01*
X169439138Y-56576653D01*
X169539385Y-56562344D01*
X169651104Y-56557780D01*
X169763360Y-56563070D01*
G37*
%TD.AperFunction*%
%TA.AperFunction,EtchedComponent*%
G36*
X167454129Y-57236587D02*
G01*
X167454129Y-57895426D01*
X167310818Y-57900466D01*
X167233257Y-57901455D01*
X167185279Y-57897443D01*
X167162075Y-57887882D01*
X167158893Y-57883060D01*
X167157055Y-57861128D01*
X167155593Y-57808518D01*
X167154532Y-57729226D01*
X167153897Y-57627248D01*
X167153712Y-57506580D01*
X167154002Y-57371219D01*
X167154790Y-57225159D01*
X167154832Y-57219180D01*
X167159385Y-56577747D01*
X167306757Y-56577747D01*
X167454129Y-56577747D01*
X167454129Y-57236587D01*
G37*
%TD.AperFunction*%
%TA.AperFunction,EtchedComponent*%
G36*
X168738137Y-56572711D02*
G01*
X168789526Y-56579655D01*
X168808044Y-56587711D01*
X168814497Y-56609958D01*
X168820085Y-56662085D01*
X168824793Y-56739307D01*
X168828608Y-56836841D01*
X168831518Y-56949901D01*
X168833507Y-57073702D01*
X168834564Y-57203460D01*
X168834674Y-57334390D01*
X168833824Y-57461707D01*
X168832001Y-57580627D01*
X168829191Y-57686364D01*
X168825380Y-57774134D01*
X168820556Y-57839152D01*
X168814705Y-57876633D01*
X168811685Y-57883290D01*
X168783217Y-57894639D01*
X168730046Y-57902037D01*
X168675687Y-57904095D01*
X168560494Y-57904095D01*
X168297766Y-57509658D01*
X168035037Y-57115222D01*
X168034993Y-57488853D01*
X168034295Y-57626649D01*
X168032149Y-57732293D01*
X168028425Y-57808285D01*
X168022989Y-57857124D01*
X168015710Y-57881310D01*
X168014142Y-57883290D01*
X167986097Y-57894995D01*
X167937249Y-57902023D01*
X167878360Y-57904411D01*
X167820193Y-57902199D01*
X167773512Y-57895423D01*
X167749079Y-57884121D01*
X167748111Y-57882354D01*
X167746334Y-57860587D01*
X167744929Y-57808137D01*
X167743918Y-57728993D01*
X167743325Y-57627145D01*
X167743172Y-57506585D01*
X167743482Y-57371303D01*
X167744277Y-57225288D01*
X167744320Y-57219180D01*
X167748873Y-56577747D01*
X167878013Y-56577747D01*
X168007153Y-56577747D01*
X168175470Y-56837815D01*
X168237571Y-56934012D01*
X168300194Y-57031448D01*
X168357983Y-57121760D01*
X168405581Y-57196583D01*
X168427764Y-57231748D01*
X168466004Y-57290685D01*
X168498145Y-57336503D01*
X168519411Y-57362567D01*
X168524418Y-57366116D01*
X168528237Y-57349738D01*
X168532004Y-57303544D01*
X168535506Y-57232390D01*
X168538529Y-57141135D01*
X168540858Y-57034638D01*
X168541755Y-56972184D01*
X168546415Y-56577747D01*
X168665007Y-56572585D01*
X168738137Y-56572711D01*
G37*
%TD.AperFunction*%
%TA.AperFunction,EtchedComponent*%
G36*
X171172633Y-56642764D02*
G01*
X171196245Y-56699582D01*
X171227331Y-56778692D01*
X171264328Y-56875734D01*
X171305673Y-56986349D01*
X171349803Y-57106177D01*
X171395156Y-57230860D01*
X171440169Y-57356038D01*
X171483281Y-57477352D01*
X171522928Y-57590442D01*
X171557548Y-57690950D01*
X171585578Y-57774515D01*
X171605456Y-57836779D01*
X171615619Y-57873382D01*
X171616479Y-57881061D01*
X171602841Y-57893846D01*
X171570208Y-57900423D01*
X171512394Y-57901628D01*
X171472593Y-57900495D01*
X171338108Y-57895426D01*
X171293138Y-57782730D01*
X171248167Y-57670034D01*
X170975373Y-57670034D01*
X170702578Y-57670034D01*
X170655611Y-57782730D01*
X170608644Y-57895426D01*
X170474503Y-57900495D01*
X170402894Y-57901725D01*
X170359144Y-57898161D01*
X170336649Y-57888864D01*
X170330570Y-57880048D01*
X170334490Y-57859517D01*
X170349066Y-57810864D01*
X170372734Y-57738422D01*
X170403931Y-57646521D01*
X170441093Y-57539491D01*
X170482657Y-57421665D01*
X170489933Y-57401297D01*
X170778997Y-57401297D01*
X170973741Y-57401297D01*
X171168486Y-57401297D01*
X171083644Y-57162901D01*
X171052850Y-57076376D01*
X171025814Y-57000416D01*
X171004856Y-56941543D01*
X170992301Y-56906282D01*
X170990187Y-56900351D01*
X170977449Y-56884272D01*
X170971747Y-56886022D01*
X170962741Y-56904941D01*
X170944353Y-56950674D01*
X170918838Y-57017370D01*
X170888455Y-57099180D01*
X170870460Y-57148572D01*
X170778997Y-57401297D01*
X170489933Y-57401297D01*
X170527059Y-57297371D01*
X170572736Y-57170941D01*
X170618123Y-57046707D01*
X170661659Y-56928998D01*
X170701778Y-56822145D01*
X170736918Y-56730480D01*
X170765514Y-56658333D01*
X170786004Y-56610035D01*
X170796047Y-56590751D01*
X170823797Y-56578602D01*
X170884304Y-56571410D01*
X170976817Y-56569078D01*
X171140379Y-56569078D01*
X171172633Y-56642764D01*
G37*
%TD.AperFunction*%
%TA.AperFunction,EtchedComponent*%
G36*
X172953012Y-56572585D02*
G01*
X173071603Y-56577747D01*
X173076437Y-57201911D01*
X173077296Y-57347164D01*
X173077589Y-57482603D01*
X173077345Y-57604032D01*
X173076595Y-57707254D01*
X173075367Y-57788070D01*
X173073691Y-57842284D01*
X173071772Y-57865085D01*
X173064104Y-57885179D01*
X173048026Y-57896872D01*
X173015632Y-57902409D01*
X172959017Y-57904034D01*
X172934425Y-57904095D01*
X172864655Y-57902446D01*
X172822544Y-57896586D01*
X172801192Y-57885147D01*
X172796052Y-57876671D01*
X172792933Y-57851812D01*
X172790150Y-57797761D01*
X172787849Y-57720001D01*
X172786179Y-57624017D01*
X172785288Y-57515290D01*
X172785186Y-57473565D01*
X172784844Y-57097884D01*
X172663540Y-57323276D01*
X172618528Y-57404794D01*
X172576930Y-57476262D01*
X172542453Y-57531589D01*
X172518801Y-57564687D01*
X172513196Y-57570341D01*
X172475584Y-57585776D01*
X172427670Y-57592013D01*
X172398406Y-57588785D01*
X172371390Y-57576491D01*
X172343499Y-57551218D01*
X172311611Y-57509052D01*
X172272605Y-57446080D01*
X172223357Y-57358388D01*
X172185621Y-57288600D01*
X172083344Y-57097884D01*
X172074675Y-57496655D01*
X172066006Y-57895426D01*
X171940055Y-57900526D01*
X171867395Y-57901318D01*
X171824265Y-57896083D01*
X171805943Y-57884210D01*
X171805469Y-57883119D01*
X171803625Y-57861173D01*
X171802158Y-57808550D01*
X171801094Y-57729245D01*
X171800455Y-57627257D01*
X171800267Y-57506580D01*
X171800555Y-57371212D01*
X171801343Y-57225148D01*
X171801385Y-57219180D01*
X171805938Y-56577747D01*
X171935200Y-56577747D01*
X172064463Y-56577747D01*
X172183785Y-56794471D01*
X172233843Y-56885385D01*
X172284551Y-56977470D01*
X172330326Y-57060588D01*
X172365589Y-57124606D01*
X172368654Y-57130170D01*
X172434200Y-57249145D01*
X172611653Y-56927088D01*
X172665558Y-56830274D01*
X172715042Y-56743310D01*
X172757293Y-56670987D01*
X172789497Y-56618095D01*
X172808842Y-56589426D01*
X172811763Y-56586227D01*
X172840766Y-56576982D01*
X172894046Y-56572241D01*
X172953012Y-56572585D01*
G37*
%TD.AperFunction*%
%TA.AperFunction,EtchedComponent*%
G36*
X168239094Y-50982538D02*
G01*
X168277468Y-51024752D01*
X168301053Y-51091058D01*
X168316157Y-51121679D01*
X168347583Y-51166799D01*
X168388949Y-51218973D01*
X168433873Y-51270757D01*
X168475971Y-51314705D01*
X168508862Y-51343374D01*
X168523377Y-51350375D01*
X168543599Y-51340995D01*
X168586006Y-51315424D01*
X168644486Y-51277513D01*
X168712928Y-51231113D01*
X168716304Y-51228777D01*
X168891833Y-51107178D01*
X169009534Y-51223977D01*
X169065922Y-51281666D01*
X169101111Y-51323412D01*
X169119802Y-51356324D01*
X169126698Y-51387514D01*
X169127208Y-51401924D01*
X169127181Y-51463071D01*
X169378607Y-51457846D01*
X169630033Y-51452621D01*
X169630033Y-51721804D01*
X169630033Y-51990986D01*
X169579119Y-52017315D01*
X169541015Y-52040079D01*
X169518737Y-52059002D01*
X169518334Y-52059616D01*
X169525213Y-52078284D01*
X169552118Y-52114158D01*
X169593875Y-52160624D01*
X169611167Y-52178291D01*
X169678392Y-52253097D01*
X169721277Y-52323202D01*
X169743325Y-52398827D01*
X169748038Y-52490196D01*
X169743361Y-52564027D01*
X169737317Y-52634894D01*
X169732663Y-52698258D01*
X169730358Y-52740974D01*
X169730318Y-52742457D01*
X169745817Y-52805758D01*
X169794136Y-52869994D01*
X169873527Y-52933378D01*
X169971636Y-52988976D01*
X170103881Y-53060443D01*
X170208530Y-53132358D01*
X170292352Y-53209820D01*
X170339058Y-53265805D01*
X170406268Y-53362717D01*
X170453048Y-53451138D01*
X170486117Y-53544144D01*
X170490753Y-53560955D01*
X170499685Y-53608832D01*
X170506660Y-53673296D01*
X170511469Y-53746380D01*
X170513903Y-53820115D01*
X170513752Y-53886532D01*
X170510806Y-53937662D01*
X170504856Y-53965538D01*
X170501469Y-53968396D01*
X170485165Y-53956557D01*
X170450360Y-53924356D01*
X170402227Y-53876764D01*
X170348104Y-53821024D01*
X170272885Y-53745677D01*
X170216675Y-53697472D01*
X170178241Y-53675399D01*
X170168162Y-53673652D01*
X170139519Y-53679891D01*
X170136272Y-53705110D01*
X170137857Y-53712662D01*
X170164006Y-53829068D01*
X170182145Y-53921066D01*
X170193584Y-53997648D01*
X170199632Y-54067806D01*
X170201600Y-54140532D01*
X170201624Y-54150443D01*
X170201667Y-54306484D01*
X170141682Y-54237133D01*
X170103772Y-54197218D01*
X170080011Y-54183257D01*
X170066416Y-54190772D01*
X170060307Y-54211575D01*
X170064944Y-54244222D01*
X170081928Y-54293493D01*
X170112857Y-54364168D01*
X170151574Y-54445188D01*
X170179809Y-54505790D01*
X170197321Y-54554743D01*
X170206641Y-54604298D01*
X170210300Y-54666705D01*
X170210852Y-54732162D01*
X170209943Y-54812320D01*
X170205412Y-54870250D01*
X170194551Y-54918387D01*
X170174654Y-54969167D01*
X170146428Y-55028125D01*
X170093724Y-55121222D01*
X170033716Y-55196184D01*
X169978753Y-55248283D01*
X169929297Y-55290440D01*
X169890414Y-55321980D01*
X169868950Y-55337398D01*
X169867119Y-55338089D01*
X169854930Y-55324229D01*
X169831519Y-55288121D01*
X169805681Y-55244081D01*
X169770268Y-55190969D01*
X169726488Y-55138540D01*
X169681877Y-55094501D01*
X169643974Y-55066561D01*
X169626342Y-55060682D01*
X169620981Y-55076590D01*
X169615068Y-55118674D01*
X169609737Y-55178476D01*
X169608905Y-55190793D01*
X169582510Y-55338296D01*
X169524441Y-55478936D01*
X169437681Y-55607034D01*
X169337999Y-55706519D01*
X169299482Y-55735914D01*
X169271412Y-55752693D01*
X169265952Y-55754198D01*
X169251552Y-55739437D01*
X169234570Y-55702954D01*
X169231116Y-55693075D01*
X169209411Y-55645038D01*
X169178217Y-55595547D01*
X169144774Y-55554291D01*
X169116323Y-55530958D01*
X169108355Y-55528805D01*
X169099912Y-55544530D01*
X169094180Y-55585296D01*
X169092559Y-55629686D01*
X169088882Y-55689542D01*
X169079234Y-55755717D01*
X169065687Y-55819375D01*
X169050315Y-55871680D01*
X169035190Y-55903794D01*
X169026870Y-55909691D01*
X169011673Y-55895793D01*
X168986060Y-55860758D01*
X168967467Y-55831576D01*
X168920883Y-55769491D01*
X168873921Y-55733014D01*
X168831070Y-55724840D01*
X168807857Y-55735720D01*
X168785672Y-55761918D01*
X168754990Y-55807504D01*
X168730863Y-55847975D01*
X168662617Y-55943477D01*
X168572353Y-56032986D01*
X168468233Y-56110800D01*
X168358416Y-56171217D01*
X168251065Y-56208533D01*
X168203443Y-56216503D01*
X168153653Y-56219133D01*
X168110545Y-56213851D01*
X168062626Y-56197716D01*
X167998404Y-56167787D01*
X167982934Y-56160058D01*
X167871403Y-56093404D01*
X167771275Y-56013309D01*
X167688856Y-55926002D01*
X167670247Y-55897871D01*
X167916377Y-55897871D01*
X167920596Y-55907560D01*
X167938053Y-55926173D01*
X167948090Y-55922355D01*
X167948258Y-55919931D01*
X167935944Y-55905266D01*
X167928242Y-55899914D01*
X167916377Y-55897871D01*
X167670247Y-55897871D01*
X167661225Y-55884232D01*
X167844231Y-55884232D01*
X167852900Y-55892901D01*
X167861569Y-55884232D01*
X167852900Y-55875563D01*
X167844231Y-55884232D01*
X167661225Y-55884232D01*
X167630450Y-55837710D01*
X167611572Y-55793208D01*
X167598828Y-55762867D01*
X167670852Y-55762867D01*
X167679521Y-55771536D01*
X167688190Y-55762867D01*
X167679521Y-55754198D01*
X167670852Y-55762867D01*
X167598828Y-55762867D01*
X167586353Y-55733168D01*
X167581374Y-55728191D01*
X167653514Y-55728191D01*
X167662183Y-55736860D01*
X167667463Y-55731580D01*
X167844231Y-55731580D01*
X167850969Y-55764716D01*
X167868968Y-55768713D01*
X167872578Y-55765536D01*
X168024634Y-55765536D01*
X168024937Y-55839647D01*
X168051449Y-55903978D01*
X168099870Y-55949163D01*
X168111601Y-55954989D01*
X168157010Y-55973055D01*
X168188838Y-55976476D01*
X168224654Y-55964923D01*
X168251786Y-55952367D01*
X168306720Y-55910977D01*
X168336966Y-55856158D01*
X168344477Y-55795232D01*
X168331209Y-55735522D01*
X168299116Y-55684349D01*
X168250153Y-55649035D01*
X168186274Y-55636903D01*
X168167971Y-55638381D01*
X168094331Y-55660979D01*
X168046445Y-55706392D01*
X168024634Y-55765536D01*
X167872578Y-55765536D01*
X167894905Y-55745888D01*
X167925456Y-55698562D01*
X167943215Y-55662502D01*
X167968251Y-55600877D01*
X167976197Y-55562694D01*
X167969127Y-55542738D01*
X167943794Y-55536700D01*
X167914103Y-55556966D01*
X167884790Y-55596376D01*
X167860589Y-55647772D01*
X167846236Y-55703994D01*
X167844231Y-55731580D01*
X167667463Y-55731580D01*
X167670852Y-55728191D01*
X167662183Y-55719522D01*
X167653514Y-55728191D01*
X167581374Y-55728191D01*
X167558731Y-55705558D01*
X167524151Y-55708199D01*
X167485487Y-55732911D01*
X167454169Y-55766085D01*
X167418951Y-55815289D01*
X167404769Y-55838858D01*
X167362045Y-55914850D01*
X167331786Y-55856334D01*
X167314629Y-55807892D01*
X167300373Y-55740617D01*
X167293075Y-55679703D01*
X167290962Y-55650170D01*
X167636176Y-55650170D01*
X167642520Y-55664441D01*
X167647735Y-55661729D01*
X167649810Y-55641153D01*
X167647735Y-55638612D01*
X167637428Y-55640992D01*
X167636176Y-55650170D01*
X167290962Y-55650170D01*
X167287620Y-55603458D01*
X167428673Y-55603458D01*
X167430315Y-55639623D01*
X167437497Y-55645263D01*
X167454680Y-55625184D01*
X167474630Y-55591192D01*
X167480136Y-55571523D01*
X167487829Y-55554812D01*
X167740204Y-55554812D01*
X167748873Y-55563481D01*
X167757542Y-55554812D01*
X167748873Y-55546143D01*
X167740204Y-55554812D01*
X167487829Y-55554812D01*
X167491911Y-55545946D01*
X167514892Y-55520136D01*
X167757542Y-55520136D01*
X167766211Y-55528805D01*
X167774880Y-55520136D01*
X167766211Y-55511467D01*
X167757542Y-55520136D01*
X167514892Y-55520136D01*
X167515221Y-55519766D01*
X167528531Y-55502798D01*
X167636176Y-55502798D01*
X167644845Y-55511467D01*
X167653514Y-55502798D01*
X167644845Y-55494129D01*
X167636176Y-55502798D01*
X167528531Y-55502798D01*
X167536216Y-55493001D01*
X167779130Y-55493001D01*
X167781502Y-55494129D01*
X167797324Y-55481924D01*
X167800886Y-55476792D01*
X167805304Y-55460583D01*
X167802933Y-55459454D01*
X167787111Y-55471659D01*
X167783549Y-55476792D01*
X167779130Y-55493001D01*
X167536216Y-55493001D01*
X167537983Y-55490748D01*
X167531353Y-55469399D01*
X167508072Y-55466069D01*
X167479780Y-55487067D01*
X167452910Y-55523991D01*
X167433901Y-55568439D01*
X167428673Y-55603458D01*
X167287620Y-55603458D01*
X167284624Y-55561587D01*
X167235409Y-55608739D01*
X167196803Y-55656348D01*
X167168721Y-55709131D01*
X167167110Y-55713713D01*
X167152296Y-55752054D01*
X167140712Y-55771080D01*
X167139492Y-55771536D01*
X167113961Y-55760483D01*
X167071534Y-55731553D01*
X167020134Y-55691088D01*
X166967681Y-55645428D01*
X166922096Y-55600915D01*
X166910441Y-55588162D01*
X166843836Y-55489984D01*
X166967519Y-55489984D01*
X166984561Y-55492761D01*
X167007049Y-55489573D01*
X167007317Y-55483655D01*
X166984112Y-55479516D01*
X166974086Y-55482286D01*
X166967519Y-55489984D01*
X166843836Y-55489984D01*
X166834150Y-55475707D01*
X166831244Y-55468123D01*
X166907985Y-55468123D01*
X166916654Y-55476792D01*
X166925323Y-55468123D01*
X166916654Y-55459454D01*
X166907985Y-55468123D01*
X166831244Y-55468123D01*
X166802403Y-55392864D01*
X166936917Y-55392864D01*
X166940494Y-55444294D01*
X166940661Y-55445291D01*
X166956792Y-55453826D01*
X166990370Y-55455586D01*
X167025367Y-55451449D01*
X167026845Y-55450785D01*
X167653514Y-55450785D01*
X167662183Y-55459454D01*
X167670852Y-55450785D01*
X167662183Y-55442116D01*
X167653514Y-55450785D01*
X167026845Y-55450785D01*
X167045752Y-55442294D01*
X167046688Y-55439477D01*
X167032608Y-55426425D01*
X167020682Y-55424778D01*
X167007843Y-55416109D01*
X167670852Y-55416109D01*
X167679521Y-55424778D01*
X167688190Y-55416109D01*
X168000272Y-55416109D01*
X168008941Y-55424778D01*
X168017610Y-55416109D01*
X168008941Y-55407440D01*
X168000272Y-55416109D01*
X167688190Y-55416109D01*
X167679521Y-55407440D01*
X167670852Y-55416109D01*
X167007843Y-55416109D01*
X166999399Y-55410407D01*
X166996548Y-55398771D01*
X167948258Y-55398771D01*
X167956927Y-55407440D01*
X167965596Y-55398771D01*
X167956927Y-55390102D01*
X167948258Y-55398771D01*
X166996548Y-55398771D01*
X166994675Y-55391125D01*
X166994159Y-55388973D01*
X167692441Y-55388973D01*
X167694813Y-55390102D01*
X167710635Y-55377897D01*
X167714197Y-55372764D01*
X167716560Y-55364095D01*
X167774880Y-55364095D01*
X167783549Y-55372764D01*
X167792217Y-55364095D01*
X168017610Y-55364095D01*
X168026279Y-55372764D01*
X168034948Y-55364095D01*
X168026279Y-55355426D01*
X168017610Y-55364095D01*
X167792217Y-55364095D01*
X167783549Y-55355426D01*
X167774880Y-55364095D01*
X167716560Y-55364095D01*
X167718615Y-55356555D01*
X167716243Y-55355426D01*
X167700421Y-55367632D01*
X167696859Y-55372764D01*
X167692441Y-55388973D01*
X166994159Y-55388973D01*
X166986396Y-55356628D01*
X166967104Y-55346235D01*
X166948686Y-55359952D01*
X166936917Y-55392864D01*
X166802403Y-55392864D01*
X166782465Y-55340837D01*
X166782404Y-55340473D01*
X167081364Y-55340473D01*
X167093329Y-55355629D01*
X167125394Y-55349697D01*
X167171817Y-55324709D01*
X167188908Y-55312082D01*
X167740204Y-55312082D01*
X167748873Y-55320751D01*
X167757542Y-55312082D01*
X167930921Y-55312082D01*
X167939589Y-55320751D01*
X167948258Y-55312082D01*
X167939589Y-55303413D01*
X167930921Y-55312082D01*
X167757542Y-55312082D01*
X167748873Y-55303413D01*
X167740204Y-55312082D01*
X167188908Y-55312082D01*
X167213947Y-55293583D01*
X167250420Y-55260068D01*
X167774880Y-55260068D01*
X167783549Y-55268737D01*
X167792217Y-55260068D01*
X167783549Y-55251399D01*
X167774880Y-55260068D01*
X167250420Y-55260068D01*
X167255517Y-55255384D01*
X167282928Y-55222264D01*
X167289419Y-55206894D01*
X167278834Y-55190717D01*
X169057883Y-55190717D01*
X169066552Y-55199385D01*
X169075221Y-55190717D01*
X169066552Y-55182048D01*
X169057883Y-55190717D01*
X167278834Y-55190717D01*
X167276313Y-55186864D01*
X167245875Y-55183542D01*
X167211424Y-55197421D01*
X167203653Y-55203720D01*
X167187793Y-55216140D01*
X167192913Y-55201980D01*
X167194297Y-55199385D01*
X167201999Y-55181697D01*
X167192432Y-55188644D01*
X167164352Y-55221454D01*
X167134881Y-55258118D01*
X167103847Y-55299992D01*
X167084534Y-55331422D01*
X167081364Y-55340473D01*
X166782404Y-55340473D01*
X166780549Y-55329420D01*
X166838634Y-55329420D01*
X166847303Y-55338089D01*
X166855972Y-55329420D01*
X166847303Y-55320751D01*
X166838634Y-55329420D01*
X166780549Y-55329420D01*
X166778932Y-55319783D01*
X166967636Y-55319783D01*
X166972029Y-55327001D01*
X166997197Y-55337548D01*
X167011509Y-55318991D01*
X167012013Y-55312082D01*
X167003194Y-55289001D01*
X166995698Y-55286075D01*
X166973058Y-55297547D01*
X166967636Y-55319783D01*
X166778932Y-55319783D01*
X166771822Y-55277406D01*
X166821296Y-55277406D01*
X166829965Y-55286075D01*
X166838634Y-55277406D01*
X166829965Y-55268737D01*
X166821296Y-55277406D01*
X166771822Y-55277406D01*
X166768133Y-55255424D01*
X166994675Y-55255424D01*
X167002993Y-55270267D01*
X167024602Y-55259258D01*
X167054479Y-55225991D01*
X167072478Y-55199730D01*
X167088507Y-55173379D01*
X167497473Y-55173379D01*
X167506142Y-55182048D01*
X167514811Y-55173379D01*
X167506142Y-55164710D01*
X167497473Y-55173379D01*
X167088507Y-55173379D01*
X167099053Y-55156041D01*
X167341432Y-55156041D01*
X167350101Y-55164710D01*
X167358770Y-55156041D01*
X167350101Y-55147372D01*
X167341432Y-55156041D01*
X167099053Y-55156041D01*
X167101989Y-55151215D01*
X167113891Y-55124864D01*
X167112667Y-55121365D01*
X167358770Y-55121365D01*
X167367439Y-55130034D01*
X167376108Y-55121365D01*
X167367439Y-55112696D01*
X167358770Y-55121365D01*
X167112667Y-55121365D01*
X167110172Y-55114234D01*
X167099327Y-55112696D01*
X167081281Y-55125805D01*
X167053730Y-55157789D01*
X167024750Y-55197635D01*
X167002418Y-55234330D01*
X166994675Y-55255424D01*
X166768133Y-55255424D01*
X166763094Y-55225392D01*
X166803958Y-55225392D01*
X166812627Y-55234061D01*
X166821296Y-55225392D01*
X166812627Y-55216723D01*
X166803958Y-55225392D01*
X166763094Y-55225392D01*
X166756608Y-55186741D01*
X166756580Y-55186382D01*
X166750025Y-55125411D01*
X166741641Y-55080740D01*
X166740466Y-55078020D01*
X166791342Y-55078020D01*
X166792695Y-55115519D01*
X166796153Y-55125814D01*
X166797522Y-55121365D01*
X166925323Y-55121365D01*
X166933992Y-55130034D01*
X166942661Y-55121365D01*
X166933992Y-55112696D01*
X166925323Y-55121365D01*
X166797522Y-55121365D01*
X166798856Y-55117031D01*
X166799594Y-55104027D01*
X167272081Y-55104027D01*
X167280750Y-55112696D01*
X167289419Y-55104027D01*
X167280750Y-55095358D01*
X167272081Y-55104027D01*
X166799594Y-55104027D01*
X166801564Y-55069351D01*
X167376108Y-55069351D01*
X167384777Y-55078020D01*
X167393446Y-55069351D01*
X167384777Y-55060682D01*
X167376108Y-55069351D01*
X166801564Y-55069351D01*
X166801725Y-55066508D01*
X166798856Y-55039010D01*
X166794568Y-55030794D01*
X166791848Y-55052577D01*
X166791342Y-55078020D01*
X166740466Y-55078020D01*
X166733105Y-55060974D01*
X166732068Y-55060682D01*
X166714758Y-55073918D01*
X166684683Y-55108228D01*
X166647823Y-55155513D01*
X166610159Y-55207676D01*
X166577672Y-55256619D01*
X166556343Y-55294243D01*
X166552380Y-55303976D01*
X166538983Y-55329707D01*
X166518182Y-55334354D01*
X166484996Y-55316415D01*
X166434448Y-55274388D01*
X166424464Y-55265370D01*
X166309019Y-55141141D01*
X166307505Y-55138703D01*
X166405187Y-55138703D01*
X166413856Y-55147372D01*
X166422525Y-55138703D01*
X166413856Y-55130034D01*
X166405187Y-55138703D01*
X166307505Y-55138703D01*
X166275197Y-55086689D01*
X166370511Y-55086689D01*
X166379180Y-55095358D01*
X166387849Y-55086689D01*
X166379180Y-55078020D01*
X166370511Y-55086689D01*
X166275197Y-55086689D01*
X166227176Y-55009377D01*
X166179108Y-54870804D01*
X166170245Y-54779990D01*
X166294300Y-54779990D01*
X166296647Y-54867363D01*
X166304599Y-54941536D01*
X166316537Y-54987650D01*
X166338250Y-55029617D01*
X166355081Y-55040140D01*
X166367296Y-55018537D01*
X166372479Y-54982662D01*
X167081364Y-54982662D01*
X167095243Y-55005648D01*
X167107371Y-55008669D01*
X167393446Y-55008669D01*
X167399790Y-55022940D01*
X167405005Y-55020227D01*
X167407080Y-54999651D01*
X167405005Y-54997110D01*
X167394697Y-54999490D01*
X167393446Y-55008669D01*
X167107371Y-55008669D01*
X167130357Y-54994790D01*
X167133378Y-54982662D01*
X167254743Y-54982662D01*
X167263412Y-54991331D01*
X167272081Y-54982662D01*
X167263412Y-54973993D01*
X167254743Y-54982662D01*
X167133378Y-54982662D01*
X167119499Y-54959676D01*
X167107371Y-54956655D01*
X167084385Y-54970533D01*
X167081364Y-54982662D01*
X166372479Y-54982662D01*
X166375156Y-54964129D01*
X166378201Y-54893125D01*
X166478685Y-54893125D01*
X166482142Y-54945659D01*
X166491026Y-54971460D01*
X166501640Y-54970008D01*
X166506586Y-54950573D01*
X166506928Y-54947986D01*
X166803958Y-54947986D01*
X166812627Y-54956655D01*
X166821296Y-54947986D01*
X167410784Y-54947986D01*
X167419453Y-54956655D01*
X167428122Y-54947986D01*
X167419453Y-54939317D01*
X167410784Y-54947986D01*
X166821296Y-54947986D01*
X166812627Y-54939317D01*
X166803958Y-54947986D01*
X166506928Y-54947986D01*
X166511516Y-54913310D01*
X166821296Y-54913310D01*
X166829965Y-54921979D01*
X166838634Y-54913310D01*
X166829965Y-54904641D01*
X166821296Y-54913310D01*
X166511516Y-54913310D01*
X166512222Y-54907974D01*
X166513366Y-54895972D01*
X167428122Y-54895972D01*
X167436791Y-54904641D01*
X167445460Y-54895972D01*
X167436791Y-54887304D01*
X167428122Y-54895972D01*
X166513366Y-54895972D01*
X166514192Y-54887304D01*
X166841928Y-54887304D01*
X166854651Y-54878635D01*
X167168054Y-54878635D01*
X167176723Y-54887304D01*
X167185392Y-54878635D01*
X167176723Y-54869966D01*
X167168054Y-54878635D01*
X166854651Y-54878635D01*
X166858650Y-54875910D01*
X166881979Y-54852628D01*
X166882879Y-54851499D01*
X167224318Y-54851499D01*
X167226690Y-54852628D01*
X167242512Y-54840422D01*
X167246074Y-54835290D01*
X167250492Y-54819081D01*
X167248121Y-54817952D01*
X167232298Y-54830158D01*
X167228736Y-54835290D01*
X167224318Y-54851499D01*
X166882879Y-54851499D01*
X166902001Y-54827512D01*
X166904691Y-54817952D01*
X166887969Y-54829346D01*
X166864641Y-54852628D01*
X166844618Y-54877744D01*
X166841928Y-54887304D01*
X166514192Y-54887304D01*
X166515095Y-54877831D01*
X166521247Y-54822155D01*
X166528712Y-54778529D01*
X166531244Y-54769435D01*
X167669275Y-54769435D01*
X167671376Y-54824145D01*
X167676686Y-54883778D01*
X167684531Y-54938549D01*
X167694236Y-54978674D01*
X167695974Y-54983219D01*
X167721067Y-55029037D01*
X167744786Y-55040815D01*
X167768771Y-55019057D01*
X167775421Y-55007657D01*
X167788188Y-54988350D01*
X167801495Y-54988400D01*
X167822541Y-55011255D01*
X167844237Y-55040602D01*
X167886709Y-55094903D01*
X167916660Y-55121168D01*
X167938127Y-55121831D01*
X167951942Y-55105498D01*
X167965369Y-55088915D01*
X167982631Y-55093191D01*
X168013142Y-55120839D01*
X168014495Y-55122191D01*
X168060593Y-55168288D01*
X168070357Y-55127489D01*
X168080122Y-55086689D01*
X168111543Y-55134368D01*
X168150060Y-55173219D01*
X168190869Y-55177529D01*
X168232781Y-55147258D01*
X168239905Y-55138703D01*
X168271366Y-55103882D01*
X168288843Y-55099113D01*
X168294926Y-55123987D01*
X168295016Y-55130034D01*
X168300435Y-55158380D01*
X168318572Y-55159753D01*
X168352243Y-55133505D01*
X168373787Y-55111913D01*
X168406588Y-55080001D01*
X168426007Y-55071261D01*
X168441438Y-55082717D01*
X168446203Y-55088975D01*
X168465759Y-55109724D01*
X168473830Y-55111430D01*
X168486490Y-55093732D01*
X168511021Y-55058587D01*
X168520030Y-55045579D01*
X168560436Y-54987131D01*
X168590242Y-55026645D01*
X168620048Y-55066160D01*
X168650919Y-55019044D01*
X168656029Y-55006222D01*
X169182953Y-55006222D01*
X169190634Y-55027910D01*
X169217118Y-55066681D01*
X169257002Y-55114790D01*
X169264442Y-55123029D01*
X169309513Y-55176647D01*
X169345215Y-55227034D01*
X169364300Y-55263884D01*
X169364863Y-55265830D01*
X169374957Y-55293224D01*
X169382293Y-55286831D01*
X169383193Y-55283048D01*
X169379522Y-55250170D01*
X169362876Y-55203327D01*
X169355414Y-55187690D01*
X169327499Y-55142121D01*
X169291189Y-55094521D01*
X169252503Y-55051222D01*
X169217462Y-55018560D01*
X169192084Y-55002869D01*
X169182953Y-55006222D01*
X168656029Y-55006222D01*
X168663583Y-54987265D01*
X168675689Y-54936352D01*
X168682579Y-54895972D01*
X169855426Y-54895972D01*
X169864095Y-54904641D01*
X169872764Y-54895972D01*
X169864095Y-54887304D01*
X169855426Y-54895972D01*
X168682579Y-54895972D01*
X168686082Y-54875441D01*
X168688860Y-54852628D01*
X169855426Y-54852628D01*
X169861769Y-54866899D01*
X169866984Y-54864186D01*
X169869059Y-54843610D01*
X169866984Y-54841069D01*
X169856677Y-54843449D01*
X169855426Y-54852628D01*
X168688860Y-54852628D01*
X168693604Y-54813671D01*
X168693891Y-54809283D01*
X169838088Y-54809283D01*
X169846757Y-54817952D01*
X169855426Y-54809283D01*
X169846757Y-54800614D01*
X169838088Y-54809283D01*
X168693891Y-54809283D01*
X168697102Y-54760180D01*
X168695417Y-54724105D01*
X168689516Y-54713925D01*
X168669304Y-54720005D01*
X168630166Y-54735097D01*
X168618441Y-54739932D01*
X168533355Y-54762900D01*
X168451700Y-54756282D01*
X168364813Y-54719222D01*
X168355699Y-54713925D01*
X168254155Y-54670184D01*
X168154905Y-54661004D01*
X168057413Y-54686383D01*
X168006149Y-54713925D01*
X167920818Y-54754844D01*
X167839078Y-54764087D01*
X167752481Y-54742500D01*
X167746199Y-54739932D01*
X167704905Y-54723314D01*
X167679798Y-54714403D01*
X167677404Y-54713925D01*
X167671060Y-54729433D01*
X167669275Y-54769435D01*
X166531244Y-54769435D01*
X166532218Y-54765938D01*
X166538122Y-54747472D01*
X167345683Y-54747472D01*
X167348055Y-54748600D01*
X167363877Y-54736395D01*
X167367439Y-54731263D01*
X167371857Y-54715054D01*
X167369486Y-54713925D01*
X167353663Y-54726130D01*
X167350101Y-54731263D01*
X167345683Y-54747472D01*
X166538122Y-54747472D01*
X166542696Y-54733167D01*
X166550472Y-54705256D01*
X167393446Y-54705256D01*
X167402115Y-54713925D01*
X167410784Y-54705256D01*
X167402115Y-54696587D01*
X167393446Y-54705256D01*
X166550472Y-54705256D01*
X166556462Y-54683755D01*
X166559888Y-54670580D01*
X167254743Y-54670580D01*
X167263412Y-54679249D01*
X167272081Y-54670580D01*
X167263412Y-54661911D01*
X167254743Y-54670580D01*
X166559888Y-54670580D01*
X166560314Y-54668940D01*
X166581586Y-54610786D01*
X166604041Y-54566553D01*
X167306757Y-54566553D01*
X167315426Y-54575222D01*
X167324095Y-54566553D01*
X167315426Y-54557884D01*
X167306757Y-54566553D01*
X166604041Y-54566553D01*
X166614179Y-54546582D01*
X166629479Y-54521969D01*
X166660677Y-54471038D01*
X166671349Y-54442964D01*
X166661609Y-54439452D01*
X166631570Y-54462207D01*
X166625831Y-54467511D01*
X166570010Y-54538394D01*
X166524034Y-54632318D01*
X166492541Y-54738045D01*
X166481228Y-54818118D01*
X166478685Y-54893125D01*
X166378201Y-54893125D01*
X166378925Y-54876233D01*
X166379357Y-54825165D01*
X166380733Y-54735546D01*
X166384327Y-54650955D01*
X166387439Y-54609897D01*
X166422525Y-54609897D01*
X166436568Y-54625279D01*
X166448531Y-54627235D01*
X166471604Y-54617873D01*
X166474538Y-54609897D01*
X166460495Y-54594516D01*
X166448531Y-54592560D01*
X166425459Y-54601921D01*
X166422525Y-54609897D01*
X166387439Y-54609897D01*
X166389568Y-54581810D01*
X166393663Y-54551856D01*
X166446147Y-54551856D01*
X166448769Y-54558269D01*
X166463776Y-54554041D01*
X166494714Y-54529856D01*
X166535178Y-54492280D01*
X166578765Y-54447883D01*
X166619074Y-54403232D01*
X166649699Y-54364896D01*
X166664239Y-54339442D01*
X166664651Y-54336826D01*
X166654618Y-54316999D01*
X166624188Y-54322754D01*
X166575605Y-54353411D01*
X166554355Y-54370205D01*
X166509701Y-54415277D01*
X166473317Y-54466747D01*
X166450401Y-54515358D01*
X166446147Y-54551856D01*
X166393663Y-54551856D01*
X166394856Y-54543128D01*
X166402892Y-54496868D01*
X166400544Y-54476101D01*
X166385740Y-54472659D01*
X166377342Y-54474014D01*
X166348425Y-54495305D01*
X166322531Y-54542646D01*
X166320011Y-54549452D01*
X166306070Y-54609955D01*
X166297470Y-54690494D01*
X166294300Y-54779990D01*
X166170245Y-54779990D01*
X166164990Y-54726149D01*
X166184994Y-54576142D01*
X166228864Y-54445188D01*
X166265084Y-54355136D01*
X166293742Y-54274509D01*
X166309980Y-54219795D01*
X166457200Y-54219795D01*
X166465869Y-54228464D01*
X166474538Y-54219795D01*
X166471648Y-54216905D01*
X166532331Y-54216905D01*
X166534711Y-54227213D01*
X166543890Y-54228464D01*
X166558161Y-54222120D01*
X166555448Y-54216905D01*
X166534872Y-54214830D01*
X166532331Y-54216905D01*
X166471648Y-54216905D01*
X166465869Y-54211126D01*
X166457200Y-54219795D01*
X166309980Y-54219795D01*
X166313295Y-54208625D01*
X166315056Y-54199567D01*
X166584345Y-54199567D01*
X166586725Y-54209875D01*
X166595903Y-54211126D01*
X166610175Y-54204782D01*
X166607462Y-54199567D01*
X166586886Y-54197492D01*
X166584345Y-54199567D01*
X166315056Y-54199567D01*
X166322203Y-54162800D01*
X166321758Y-54160026D01*
X166491340Y-54160026D01*
X166499768Y-54151464D01*
X166520410Y-54120413D01*
X166526552Y-54103785D01*
X166540225Y-54090615D01*
X166547357Y-54089761D01*
X166559420Y-54094878D01*
X166547357Y-54110566D01*
X166528483Y-54142170D01*
X166532403Y-54167944D01*
X166552559Y-54176450D01*
X166575545Y-54162572D01*
X166575561Y-54162507D01*
X166665255Y-54162507D01*
X166673597Y-54177580D01*
X166693520Y-54168423D01*
X166717369Y-54139654D01*
X166724851Y-54126538D01*
X166751210Y-54088183D01*
X166778376Y-54065990D01*
X166778409Y-54065978D01*
X166797743Y-54050188D01*
X166797275Y-54040961D01*
X166798345Y-54017121D01*
X166813087Y-53979028D01*
X166814204Y-53976845D01*
X166840013Y-53927097D01*
X166802024Y-53960750D01*
X166773367Y-53991919D01*
X166738654Y-54037374D01*
X166704617Y-54087186D01*
X166677986Y-54131426D01*
X166665494Y-54160163D01*
X166665255Y-54162507D01*
X166575561Y-54162507D01*
X166578566Y-54150443D01*
X166591420Y-54127435D01*
X166602578Y-54124437D01*
X166631411Y-54111265D01*
X166655641Y-54080729D01*
X166667457Y-54046298D01*
X166661225Y-54023314D01*
X166654493Y-54004683D01*
X166675359Y-53991512D01*
X166723237Y-53964287D01*
X166755520Y-53929187D01*
X166760463Y-53910235D01*
X167012013Y-53910235D01*
X167025418Y-53915391D01*
X167057637Y-53908567D01*
X167096678Y-53893701D01*
X167130547Y-53874728D01*
X167137754Y-53868962D01*
X167156026Y-53854789D01*
X167163077Y-53860591D01*
X167161291Y-53892135D01*
X167158009Y-53917992D01*
X167155071Y-53997076D01*
X167169301Y-54077028D01*
X167202973Y-54165555D01*
X167258360Y-54270360D01*
X167265639Y-54282809D01*
X167350101Y-54426202D01*
X167355482Y-54362009D01*
X167366659Y-54316458D01*
X167386021Y-54297806D01*
X167406973Y-54308232D01*
X167420824Y-54340449D01*
X167438530Y-54381652D01*
X167455830Y-54403255D01*
X167470872Y-54410327D01*
X167478137Y-54394860D01*
X167480129Y-54351039D01*
X167480136Y-54346751D01*
X167483196Y-54296253D01*
X167490883Y-54260433D01*
X167494608Y-54253604D01*
X167508423Y-54228811D01*
X167527992Y-54183327D01*
X167540506Y-54150443D01*
X167561176Y-54100535D01*
X167593825Y-54029804D01*
X167633868Y-53947893D01*
X167674249Y-53869139D01*
X167717678Y-53784641D01*
X167745647Y-53724684D01*
X167760158Y-53683846D01*
X167763208Y-53656710D01*
X167758499Y-53640764D01*
X167713351Y-53581229D01*
X167658416Y-53554249D01*
X167636268Y-53552286D01*
X167589361Y-53540956D01*
X167540396Y-53513040D01*
X167535311Y-53508942D01*
X167485116Y-53477832D01*
X167438462Y-53468226D01*
X167568172Y-53468226D01*
X167588219Y-53497394D01*
X167588295Y-53497470D01*
X167619804Y-53512961D01*
X167654331Y-53510889D01*
X167677056Y-53493616D01*
X167679521Y-53482935D01*
X167663397Y-53461469D01*
X167623173Y-53451495D01*
X167579872Y-53452863D01*
X167568172Y-53468226D01*
X167438462Y-53468226D01*
X167423765Y-53465200D01*
X167399612Y-53464183D01*
X167315426Y-53462768D01*
X167375646Y-53436546D01*
X167423992Y-53421859D01*
X167491966Y-53408915D01*
X167562029Y-53400782D01*
X167623130Y-53394025D01*
X167667942Y-53384999D01*
X167687874Y-53375509D01*
X167688190Y-53374282D01*
X167695199Y-53364046D01*
X167713067Y-53378806D01*
X167737055Y-53412585D01*
X167762426Y-53459408D01*
X167771344Y-53479146D01*
X167793389Y-53534379D01*
X167806596Y-53581996D01*
X167809799Y-53628022D01*
X167801834Y-53678483D01*
X167781533Y-53739405D01*
X167747731Y-53816813D01*
X167699263Y-53916733D01*
X167678707Y-53957963D01*
X167629367Y-54057022D01*
X167593472Y-54131440D01*
X167568883Y-54187553D01*
X167553461Y-54231696D01*
X167545070Y-54270206D01*
X167541571Y-54309419D01*
X167540825Y-54355671D01*
X167540818Y-54366597D01*
X167542505Y-54439786D01*
X167549432Y-54490632D01*
X167564401Y-54531380D01*
X167587333Y-54569950D01*
X167653816Y-54640920D01*
X167725106Y-54685787D01*
X167791430Y-54715983D01*
X167840957Y-54728227D01*
X167886272Y-54722985D01*
X167939958Y-54700721D01*
X167952934Y-54694202D01*
X168037480Y-54644798D01*
X168102646Y-54593986D01*
X168143753Y-54546025D01*
X168156313Y-54509088D01*
X168142536Y-54462134D01*
X168106289Y-54406621D01*
X168055194Y-54351212D01*
X167996877Y-54304574D01*
X167956612Y-54282124D01*
X167882661Y-54234786D01*
X167830092Y-54171578D01*
X167801390Y-54099482D01*
X167799038Y-54025481D01*
X167825519Y-53956558D01*
X167835766Y-53942389D01*
X167855177Y-53918896D01*
X167855630Y-53923449D01*
X167845188Y-53945584D01*
X167831331Y-53995186D01*
X167827864Y-54054121D01*
X167835076Y-54105295D01*
X167842196Y-54121737D01*
X167857870Y-54134678D01*
X167884536Y-54129569D01*
X167913136Y-54115999D01*
X167954241Y-54099450D01*
X167997827Y-54095286D01*
X168058472Y-54102341D01*
X168066705Y-54103734D01*
X168177820Y-54111812D01*
X168281682Y-54104221D01*
X168348766Y-54096552D01*
X168393639Y-54096980D01*
X168428034Y-54106525D01*
X168451898Y-54119023D01*
X168488728Y-54138097D01*
X168508839Y-54137968D01*
X168520876Y-54124273D01*
X168536174Y-54071892D01*
X168531296Y-54004191D01*
X168507234Y-53933320D01*
X168504940Y-53928717D01*
X168487453Y-53889355D01*
X168482346Y-53866606D01*
X168484409Y-53864368D01*
X168502894Y-53879140D01*
X168526135Y-53916124D01*
X168548903Y-53964329D01*
X168565969Y-54012762D01*
X168572137Y-54048777D01*
X168556082Y-54123048D01*
X168513526Y-54195131D01*
X168451642Y-54254567D01*
X168416310Y-54275968D01*
X168341452Y-54322640D01*
X168279757Y-54378917D01*
X168235388Y-54438834D01*
X168212512Y-54496427D01*
X168215293Y-54545730D01*
X168220593Y-54556233D01*
X168242842Y-54578958D01*
X168285619Y-54613530D01*
X168340288Y-54653038D01*
X168348845Y-54658871D01*
X168409708Y-54698026D01*
X168453414Y-54719548D01*
X168490068Y-54727231D01*
X168525983Y-54725372D01*
X168599989Y-54702463D01*
X169815951Y-54702463D01*
X169820604Y-54725889D01*
X169826716Y-54739796D01*
X169846985Y-54773550D01*
X169861640Y-54781724D01*
X169865333Y-54762429D01*
X169863887Y-54752935D01*
X169858150Y-54719865D01*
X169856752Y-54709590D01*
X169841411Y-54697797D01*
X169831050Y-54696587D01*
X169815951Y-54702463D01*
X168599989Y-54702463D01*
X168609819Y-54699420D01*
X168674765Y-54657690D01*
X169803845Y-54657690D01*
X169817868Y-54672335D01*
X169827766Y-54673470D01*
X169844545Y-54661359D01*
X169843287Y-54650452D01*
X169826856Y-54635187D01*
X169818933Y-54637027D01*
X169803845Y-54657690D01*
X168674765Y-54657690D01*
X168690199Y-54647773D01*
X168755349Y-54578400D01*
X168765338Y-54563385D01*
X168788069Y-54519928D01*
X168800671Y-54473484D01*
X168805158Y-54418591D01*
X169676761Y-54418591D01*
X169682709Y-54427850D01*
X169706188Y-54457915D01*
X169718461Y-54471194D01*
X169735256Y-54493337D01*
X169755106Y-54528611D01*
X169770118Y-54561858D01*
X169773383Y-54576666D01*
X169784656Y-54585763D01*
X169794980Y-54586780D01*
X169808417Y-54581226D01*
X169802419Y-54559588D01*
X169789819Y-54536878D01*
X169756260Y-54490727D01*
X169713549Y-54444444D01*
X169708853Y-54440075D01*
X169682228Y-54417930D01*
X169676761Y-54418591D01*
X168805158Y-54418591D01*
X168805724Y-54411672D01*
X168806222Y-54367167D01*
X168805522Y-54319614D01*
X168802284Y-54279086D01*
X168794480Y-54239287D01*
X168780081Y-54193920D01*
X168757059Y-54136692D01*
X168723386Y-54061306D01*
X168677033Y-53961467D01*
X168672166Y-53951058D01*
X168538371Y-53664983D01*
X168560694Y-53558723D01*
X168581439Y-53482114D01*
X168583555Y-53476951D01*
X168662729Y-53476951D01*
X168667781Y-53500273D01*
X168692530Y-53516558D01*
X168733542Y-53506370D01*
X168746941Y-53499663D01*
X168776640Y-53475791D01*
X168773194Y-53457231D01*
X168738120Y-53448456D01*
X168729486Y-53448259D01*
X168683466Y-53456130D01*
X168662729Y-53476951D01*
X168583555Y-53476951D01*
X168607280Y-53419071D01*
X168634721Y-53376570D01*
X168659511Y-53361570D01*
X168675960Y-53374776D01*
X168676450Y-53378908D01*
X168692012Y-53388941D01*
X168731672Y-53395201D01*
X168760247Y-53396246D01*
X168827734Y-53399490D01*
X168896843Y-53408071D01*
X168959512Y-53420263D01*
X169007680Y-53434340D01*
X169033284Y-53448574D01*
X169035141Y-53455109D01*
X169015479Y-53466200D01*
X168972750Y-53473116D01*
X168943358Y-53474266D01*
X168871499Y-53481683D01*
X168817185Y-53506711D01*
X168808327Y-53513276D01*
X168763743Y-53539804D01*
X168721927Y-53552170D01*
X168718694Y-53552286D01*
X168667796Y-53568510D01*
X168624910Y-53612723D01*
X168606447Y-53649356D01*
X168603554Y-53670087D01*
X168609337Y-53700447D01*
X168625599Y-53745019D01*
X168654141Y-53808384D01*
X168696765Y-53895123D01*
X168724930Y-53950667D01*
X168858497Y-54212303D01*
X168888384Y-54146698D01*
X168907728Y-54096075D01*
X168918165Y-54052940D01*
X168918725Y-54045549D01*
X168926424Y-54008399D01*
X168935359Y-53993536D01*
X168947347Y-53966529D01*
X168956084Y-53921167D01*
X168957032Y-53911685D01*
X168966128Y-53861720D01*
X168980467Y-53844522D01*
X168997296Y-53860738D01*
X169010924Y-53899044D01*
X169022802Y-54001878D01*
X169010344Y-54111988D01*
X168976405Y-54217486D01*
X168923840Y-54306480D01*
X168908925Y-54323896D01*
X168880783Y-54362334D01*
X168867968Y-54395844D01*
X168867888Y-54398402D01*
X168875799Y-54407956D01*
X168899654Y-54390642D01*
X168928739Y-54359749D01*
X168964359Y-54321014D01*
X168985664Y-54305470D01*
X169000621Y-54309743D01*
X169012665Y-54324192D01*
X169027181Y-54339887D01*
X169040464Y-54337512D01*
X169058018Y-54312494D01*
X169074632Y-54280874D01*
X169600342Y-54280874D01*
X169617236Y-54304570D01*
X169647371Y-54329296D01*
X169734885Y-54403771D01*
X169810474Y-54484417D01*
X169865352Y-54561634D01*
X169873159Y-54575997D01*
X169902229Y-54623460D01*
X169925215Y-54642830D01*
X169939212Y-54632713D01*
X169942115Y-54609036D01*
X169928691Y-54549416D01*
X169892581Y-54479180D01*
X169840029Y-54406828D01*
X169777280Y-54340861D01*
X169750505Y-54320357D01*
X169896457Y-54320357D01*
X169900226Y-54337975D01*
X169917363Y-54375570D01*
X169932601Y-54404164D01*
X169990386Y-54540883D01*
X170020740Y-54690713D01*
X170022384Y-54832366D01*
X170018120Y-54900876D01*
X170019881Y-54939613D01*
X170028032Y-54953017D01*
X170032296Y-54952602D01*
X170051388Y-54932496D01*
X170067700Y-54894843D01*
X170079824Y-54821567D01*
X170082122Y-54730391D01*
X170075121Y-54636509D01*
X170059345Y-54555115D01*
X170055524Y-54542691D01*
X170036081Y-54498560D01*
X170006600Y-54447214D01*
X169972479Y-54396198D01*
X169939116Y-54353056D01*
X169911908Y-54325333D01*
X169896457Y-54320357D01*
X169750505Y-54320357D01*
X169710577Y-54289780D01*
X169705267Y-54286597D01*
X169660746Y-54263140D01*
X169924777Y-54263140D01*
X169931121Y-54277411D01*
X169936336Y-54274698D01*
X169938411Y-54254122D01*
X169936336Y-54251581D01*
X169926028Y-54253961D01*
X169924777Y-54263140D01*
X169660746Y-54263140D01*
X169655659Y-54260460D01*
X169625400Y-54253383D01*
X169607213Y-54262380D01*
X169600342Y-54280874D01*
X169074632Y-54280874D01*
X169082275Y-54266327D01*
X169123811Y-54169672D01*
X169153382Y-54070756D01*
X169166737Y-53994403D01*
X169751398Y-53994403D01*
X169760067Y-54003071D01*
X169768736Y-53994403D01*
X169760067Y-53985734D01*
X169751398Y-53994403D01*
X169166737Y-53994403D01*
X169169725Y-53977317D01*
X169171334Y-53907713D01*
X169248600Y-53907713D01*
X169257269Y-53916382D01*
X169265938Y-53907713D01*
X169317951Y-53907713D01*
X169326620Y-53916382D01*
X169335289Y-53907713D01*
X169326620Y-53899044D01*
X169317951Y-53907713D01*
X169265938Y-53907713D01*
X169257269Y-53899044D01*
X169248600Y-53907713D01*
X169171334Y-53907713D01*
X169171580Y-53897092D01*
X169161877Y-53855699D01*
X170098156Y-53855699D01*
X170106825Y-53864368D01*
X170115494Y-53855699D01*
X170106825Y-53847031D01*
X170098156Y-53855699D01*
X169161877Y-53855699D01*
X169157686Y-53837820D01*
X169153398Y-53829947D01*
X169156618Y-53816711D01*
X169188206Y-53816333D01*
X169244431Y-53828553D01*
X169278724Y-53838706D01*
X169304737Y-53844347D01*
X169309680Y-53832086D01*
X169300501Y-53801317D01*
X169289566Y-53760956D01*
X169275773Y-53698271D01*
X169269363Y-53664983D01*
X169994129Y-53664983D01*
X170002798Y-53673652D01*
X170011467Y-53664983D01*
X170002798Y-53656314D01*
X169994129Y-53664983D01*
X169269363Y-53664983D01*
X169261699Y-53625186D01*
X169258472Y-53606880D01*
X169245289Y-53543618D01*
X169855426Y-53543618D01*
X169864095Y-53552286D01*
X169872764Y-53543618D01*
X169864095Y-53534949D01*
X169855426Y-53543618D01*
X169245289Y-53543618D01*
X169243777Y-53536360D01*
X169236214Y-53509784D01*
X169775945Y-53509784D01*
X169777528Y-53517809D01*
X169796072Y-53532182D01*
X169815945Y-53534594D01*
X169820750Y-53528135D01*
X169807150Y-53516999D01*
X169793843Y-53510995D01*
X169775945Y-53509784D01*
X169236214Y-53509784D01*
X169231040Y-53491604D01*
X169716723Y-53491604D01*
X169725392Y-53500273D01*
X169734060Y-53491604D01*
X169725392Y-53482935D01*
X169716723Y-53491604D01*
X169231040Y-53491604D01*
X169226784Y-53476651D01*
X169210551Y-53438011D01*
X169206354Y-53432136D01*
X169182575Y-53399284D01*
X169188027Y-53383678D01*
X169223870Y-53383742D01*
X169239931Y-53386433D01*
X169284366Y-53392039D01*
X169297798Y-53383882D01*
X169281988Y-53358560D01*
X169264398Y-53339172D01*
X169239040Y-53304985D01*
X169205862Y-53250450D01*
X169171584Y-53186701D01*
X169167994Y-53179522D01*
X169118561Y-53091644D01*
X169065627Y-53017629D01*
X169014304Y-52963761D01*
X168970275Y-52936500D01*
X168941255Y-52938326D01*
X168890270Y-52951417D01*
X168827118Y-52973134D01*
X168810972Y-52979443D01*
X168717524Y-53014130D01*
X168626936Y-53041050D01*
X168528357Y-53062810D01*
X168410939Y-53082016D01*
X168347957Y-53090665D01*
X168199658Y-53110170D01*
X168189258Y-53188191D01*
X168182864Y-53224712D01*
X168177806Y-53233328D01*
X168176018Y-53222867D01*
X168171498Y-53172919D01*
X168161529Y-53139631D01*
X168139748Y-53118501D01*
X168099790Y-53105030D01*
X168035291Y-53094718D01*
X167986209Y-53088661D01*
X167888273Y-53073522D01*
X167779806Y-53051569D01*
X167681074Y-53027002D01*
X167662183Y-53021516D01*
X167588875Y-53000851D01*
X167524104Y-52985080D01*
X167477793Y-52976516D01*
X167465289Y-52975636D01*
X167421257Y-52991911D01*
X167362313Y-53038346D01*
X167289248Y-53114186D01*
X167202856Y-53218675D01*
X167182825Y-53244539D01*
X167133175Y-53313074D01*
X167107908Y-53357781D01*
X167106943Y-53379407D01*
X167130198Y-53378697D01*
X167170106Y-53360471D01*
X167190881Y-53350478D01*
X167195619Y-53355528D01*
X167184489Y-53381842D01*
X167171407Y-53408150D01*
X167150682Y-53458696D01*
X167127868Y-53528374D01*
X167107813Y-53602341D01*
X167107345Y-53604300D01*
X167087215Y-53681691D01*
X167064390Y-53758629D01*
X167044222Y-53817331D01*
X167025867Y-53866407D01*
X167014203Y-53901009D01*
X167012013Y-53910235D01*
X166760463Y-53910235D01*
X166764366Y-53895273D01*
X166763003Y-53890375D01*
X166803958Y-53890375D01*
X166812627Y-53899044D01*
X166821296Y-53890375D01*
X166812627Y-53881706D01*
X166803958Y-53890375D01*
X166763003Y-53890375D01*
X166762978Y-53890285D01*
X166743168Y-53875546D01*
X166708824Y-53885078D01*
X166664962Y-53914510D01*
X166616598Y-53959473D01*
X166568749Y-54015598D01*
X166526431Y-54078516D01*
X166508543Y-54111915D01*
X166492093Y-54149174D01*
X166491340Y-54160026D01*
X166321758Y-54160026D01*
X166318925Y-54142352D01*
X166316775Y-54141775D01*
X166291224Y-54154789D01*
X166254371Y-54188479D01*
X166214360Y-54234809D01*
X166193707Y-54263140D01*
X166180115Y-54281612D01*
X166171474Y-54285396D01*
X166166606Y-54269765D01*
X166164334Y-54229990D01*
X166163483Y-54161342D01*
X166163366Y-54141218D01*
X166166391Y-54040742D01*
X166169356Y-54011249D01*
X166219646Y-54011249D01*
X166222074Y-54051599D01*
X166224697Y-54057606D01*
X166239884Y-54064357D01*
X166255475Y-54037959D01*
X166270693Y-53979918D01*
X166274170Y-53961638D01*
X166287344Y-53914404D01*
X166309517Y-53858269D01*
X166310742Y-53855699D01*
X166769282Y-53855699D01*
X166777951Y-53864368D01*
X166786620Y-53855699D01*
X166777951Y-53847031D01*
X166769282Y-53855699D01*
X166310742Y-53855699D01*
X166319003Y-53838362D01*
X166803958Y-53838362D01*
X166812627Y-53847031D01*
X166821296Y-53838362D01*
X166812627Y-53829693D01*
X166803958Y-53838362D01*
X166319003Y-53838362D01*
X166327264Y-53821024D01*
X166855972Y-53821024D01*
X166864641Y-53829693D01*
X166873310Y-53821024D01*
X166864641Y-53812355D01*
X166855972Y-53821024D01*
X166327264Y-53821024D01*
X166335525Y-53803686D01*
X166907985Y-53803686D01*
X166916654Y-53812355D01*
X166925323Y-53803686D01*
X166916654Y-53795017D01*
X166907985Y-53803686D01*
X166335525Y-53803686D01*
X166336084Y-53802512D01*
X166362441Y-53756413D01*
X166383983Y-53729251D01*
X166391255Y-53725665D01*
X166403557Y-53711539D01*
X166405187Y-53699114D01*
X166419362Y-53671135D01*
X166433537Y-53662093D01*
X166619021Y-53662093D01*
X166621401Y-53672400D01*
X166630579Y-53673652D01*
X166644850Y-53667308D01*
X166642138Y-53662093D01*
X166621562Y-53660018D01*
X166619021Y-53662093D01*
X166433537Y-53662093D01*
X166435146Y-53661067D01*
X166469597Y-53640244D01*
X166500163Y-53613833D01*
X166533817Y-53587635D01*
X166559783Y-53578194D01*
X166586083Y-53566751D01*
X166587077Y-53560955D01*
X166699931Y-53560955D01*
X166708600Y-53569624D01*
X166717269Y-53560955D01*
X166734607Y-53560955D01*
X166743275Y-53569624D01*
X166751944Y-53560955D01*
X166743275Y-53552286D01*
X166734607Y-53560955D01*
X166717269Y-53560955D01*
X166708600Y-53552286D01*
X166699931Y-53560955D01*
X166587077Y-53560955D01*
X166590147Y-53543051D01*
X166570381Y-53524066D01*
X166540612Y-53527885D01*
X166494046Y-53549815D01*
X166439148Y-53584211D01*
X166384381Y-53625431D01*
X166338211Y-53667829D01*
X166317105Y-53692944D01*
X166290885Y-53741033D01*
X166265664Y-53806242D01*
X166243806Y-53879237D01*
X166227679Y-53950684D01*
X166219646Y-54011249D01*
X166169356Y-54011249D01*
X166175677Y-53948387D01*
X166188914Y-53881150D01*
X166214010Y-53784476D01*
X166226788Y-53717055D01*
X166227522Y-53675832D01*
X166216488Y-53657752D01*
X166209138Y-53656314D01*
X166177450Y-53669252D01*
X166126328Y-53706526D01*
X166058529Y-53765823D01*
X165976807Y-53844829D01*
X165940269Y-53882017D01*
X165848116Y-53977065D01*
X165852295Y-53838362D01*
X165898460Y-53838362D01*
X166008864Y-53732646D01*
X166066125Y-53680540D01*
X166121118Y-53635125D01*
X166164232Y-53604210D01*
X166173429Y-53598923D01*
X166217527Y-53580198D01*
X166281565Y-53557790D01*
X166351857Y-53536480D01*
X166353417Y-53536046D01*
X166421950Y-53514782D01*
X166428550Y-53512305D01*
X166598909Y-53512305D01*
X166602492Y-53527110D01*
X166622657Y-53550588D01*
X166651696Y-53540729D01*
X166660433Y-53532836D01*
X166664232Y-53523390D01*
X166775062Y-53523390D01*
X166777442Y-53533697D01*
X166786620Y-53534949D01*
X166800891Y-53528605D01*
X166798179Y-53523390D01*
X166777603Y-53521315D01*
X166775062Y-53523390D01*
X166664232Y-53523390D01*
X166672357Y-53503184D01*
X166661451Y-53475433D01*
X166638416Y-53465597D01*
X166608090Y-53479399D01*
X166598909Y-53512305D01*
X166428550Y-53512305D01*
X166482788Y-53491951D01*
X166523231Y-53472341D01*
X166524405Y-53471587D01*
X166569566Y-53441996D01*
X166513180Y-53418988D01*
X166422014Y-53396862D01*
X166318342Y-53396198D01*
X166266484Y-53404236D01*
X166227684Y-53409958D01*
X166219690Y-53403511D01*
X166223139Y-53399066D01*
X166262716Y-53377655D01*
X166330684Y-53363125D01*
X166421299Y-53356253D01*
X166528444Y-53357796D01*
X166677707Y-53365662D01*
X166723495Y-53305631D01*
X166756873Y-53255319D01*
X166768413Y-53222218D01*
X166757572Y-53209558D01*
X166738941Y-53213557D01*
X166644265Y-53236096D01*
X166539660Y-53231778D01*
X166531454Y-53230464D01*
X166448531Y-53216616D01*
X166578566Y-53202746D01*
X166646598Y-53194359D01*
X166691906Y-53183442D01*
X166726330Y-53164693D01*
X166761713Y-53132810D01*
X166782286Y-53111522D01*
X166821175Y-53067140D01*
X166847638Y-53030119D01*
X166855348Y-53011487D01*
X166845669Y-53008690D01*
X166822167Y-53028921D01*
X166811765Y-53040819D01*
X166782327Y-53072641D01*
X166764272Y-53078997D01*
X166751971Y-53066826D01*
X166741893Y-53034689D01*
X166735735Y-52983247D01*
X166735162Y-52965644D01*
X167001290Y-52965644D01*
X167002023Y-53001047D01*
X167014597Y-53044418D01*
X167039118Y-53103468D01*
X167072552Y-53177712D01*
X167096328Y-53223305D01*
X167113627Y-53243808D01*
X167127632Y-53242780D01*
X167141523Y-53223781D01*
X167143458Y-53220230D01*
X167155726Y-53182835D01*
X167142555Y-53149041D01*
X167140361Y-53145847D01*
X167124842Y-53106594D01*
X167116498Y-53052200D01*
X167116040Y-53037291D01*
X167118638Y-52989655D01*
X167130524Y-52965309D01*
X167157834Y-52953013D01*
X167162745Y-52951737D01*
X167224505Y-52953731D01*
X167260465Y-52969294D01*
X167296930Y-52987717D01*
X167319867Y-52987388D01*
X167343795Y-52969330D01*
X167368405Y-52943171D01*
X167376108Y-52929099D01*
X167361722Y-52911876D01*
X167324989Y-52886459D01*
X167275544Y-52858048D01*
X167223026Y-52831843D01*
X167177070Y-52813045D01*
X167149396Y-52806757D01*
X167086810Y-52822848D01*
X167037750Y-52868356D01*
X167010486Y-52926382D01*
X167001290Y-52965644D01*
X166735162Y-52965644D01*
X166734872Y-52956751D01*
X166735035Y-52954129D01*
X166769282Y-52954129D01*
X166777951Y-52962798D01*
X166786620Y-52954129D01*
X166777951Y-52945461D01*
X166769282Y-52954129D01*
X166735035Y-52954129D01*
X166738409Y-52899745D01*
X166753710Y-52860771D01*
X166787064Y-52823680D01*
X166815774Y-52791480D01*
X166825581Y-52768801D01*
X166823138Y-52764551D01*
X166797066Y-52767819D01*
X166762504Y-52804086D01*
X166719880Y-52872844D01*
X166699101Y-52912429D01*
X166648660Y-52995103D01*
X166595311Y-53046124D01*
X166535323Y-53068504D01*
X166503937Y-53069991D01*
X166454879Y-53073663D01*
X166391385Y-53085313D01*
X166356317Y-53094216D01*
X166306011Y-53112088D01*
X166259821Y-53138192D01*
X166209207Y-53178472D01*
X166145628Y-53238870D01*
X166139105Y-53245369D01*
X166042092Y-53352334D01*
X165973638Y-53453173D01*
X165930207Y-53554881D01*
X165908259Y-53664449D01*
X165904882Y-53708231D01*
X165898460Y-53838362D01*
X165852295Y-53838362D01*
X165854448Y-53766883D01*
X165857817Y-53675491D01*
X165862689Y-53609348D01*
X165870889Y-53559026D01*
X165884245Y-53515100D01*
X165904585Y-53468143D01*
X165917540Y-53441402D01*
X166000767Y-53305056D01*
X166105886Y-53185197D01*
X166226814Y-53087483D01*
X166357466Y-53017569D01*
X166384273Y-53007405D01*
X166473323Y-52966572D01*
X166553733Y-52912535D01*
X166615554Y-52852671D01*
X166638625Y-52818835D01*
X166654638Y-52786638D01*
X166662033Y-52758731D01*
X166660893Y-52724769D01*
X166651305Y-52674409D01*
X166640208Y-52626391D01*
X166624376Y-52551591D01*
X166621061Y-52520987D01*
X166734607Y-52520987D01*
X166744215Y-52612394D01*
X166774553Y-52679023D01*
X166827890Y-52722670D01*
X166906495Y-52745136D01*
X167012637Y-52748219D01*
X167020682Y-52747783D01*
X167089913Y-52742609D01*
X167147986Y-52736226D01*
X167184279Y-52729851D01*
X167188156Y-52728620D01*
X167206781Y-52713730D01*
X167206611Y-52683676D01*
X167201735Y-52664587D01*
X167200182Y-52648651D01*
X167246432Y-52648651D01*
X167255922Y-52690320D01*
X167291005Y-52755512D01*
X167358342Y-52818632D01*
X167455516Y-52878197D01*
X167580110Y-52932727D01*
X167729706Y-52980739D01*
X167729827Y-52980772D01*
X167916984Y-53020294D01*
X168109563Y-53036431D01*
X168315571Y-53029547D01*
X168454711Y-53013716D01*
X168569506Y-52990807D01*
X168695350Y-52954572D01*
X168818906Y-52909572D01*
X168827114Y-52905830D01*
X169075221Y-52905830D01*
X169085289Y-52923488D01*
X169110053Y-52955768D01*
X169115377Y-52962171D01*
X169143282Y-52992815D01*
X169162667Y-52999322D01*
X169187058Y-52984316D01*
X169195318Y-52977677D01*
X169250129Y-52948341D01*
X169298930Y-52951366D01*
X169337555Y-52986220D01*
X169343513Y-52996613D01*
X169363108Y-53040806D01*
X169366877Y-53076969D01*
X169353217Y-53116967D01*
X169320527Y-53172667D01*
X169319531Y-53174239D01*
X169290076Y-53226553D01*
X169281975Y-53258871D01*
X169288322Y-53272992D01*
X169305255Y-53286985D01*
X169320054Y-53286462D01*
X169337890Y-53266846D01*
X169363935Y-53223559D01*
X169382968Y-53189212D01*
X169426343Y-53092247D01*
X169440382Y-53010957D01*
X169425136Y-52942616D01*
X169388636Y-52892113D01*
X169336790Y-52853496D01*
X169279596Y-52841458D01*
X169276291Y-52841433D01*
X169233184Y-52846311D01*
X169180708Y-52858636D01*
X169129679Y-52874944D01*
X169090913Y-52891770D01*
X169075225Y-52905651D01*
X169075221Y-52905830D01*
X168827114Y-52905830D01*
X168926833Y-52860367D01*
X168964490Y-52839427D01*
X169018171Y-52799021D01*
X169491867Y-52799021D01*
X169535691Y-52846285D01*
X169563237Y-52882681D01*
X169574800Y-52911633D01*
X169574539Y-52915223D01*
X169580669Y-52942274D01*
X169602111Y-52982146D01*
X169609115Y-52992447D01*
X169642622Y-53048794D01*
X169670067Y-53109880D01*
X169671298Y-53113356D01*
X169692715Y-53157578D01*
X169724982Y-53184794D01*
X169776500Y-53199662D01*
X169838088Y-53205852D01*
X169898770Y-53209631D01*
X169846757Y-53221588D01*
X169790809Y-53226021D01*
X169745265Y-53220231D01*
X169713293Y-53213312D01*
X169701682Y-53221641D01*
X169704534Y-53253230D01*
X169707828Y-53271108D01*
X169718087Y-53317101D01*
X169727857Y-53347776D01*
X169729305Y-53350564D01*
X169749935Y-53356837D01*
X169795890Y-53359502D01*
X169857963Y-53358112D01*
X169869979Y-53357407D01*
X169963049Y-53355937D01*
X170044675Y-53363109D01*
X170106770Y-53377799D01*
X170137424Y-53394647D01*
X170129106Y-53400096D01*
X170094184Y-53401754D01*
X170048238Y-53399754D01*
X169977540Y-53399399D01*
X169910229Y-53406764D01*
X169880026Y-53414048D01*
X169814262Y-53435752D01*
X169852808Y-53466964D01*
X169890898Y-53489150D01*
X169947786Y-53512953D01*
X169989680Y-53526761D01*
X170129699Y-53578323D01*
X170250184Y-53648406D01*
X170352804Y-53733444D01*
X170400589Y-53777830D01*
X170437939Y-53811304D01*
X170458404Y-53828121D01*
X170460197Y-53829060D01*
X170462351Y-53813505D01*
X170462001Y-53771801D01*
X170459257Y-53712376D01*
X170458553Y-53700998D01*
X170438955Y-53575714D01*
X170394949Y-53460848D01*
X170323125Y-53349105D01*
X170258584Y-53273260D01*
X170163064Y-53181015D01*
X170073818Y-53118944D01*
X169986173Y-53084321D01*
X169918488Y-53074716D01*
X169863220Y-53072116D01*
X169821161Y-53069773D01*
X169808422Y-53068840D01*
X169773317Y-53049806D01*
X169732415Y-53001461D01*
X169688928Y-52927975D01*
X169669961Y-52889095D01*
X169633802Y-52819339D01*
X169601807Y-52779732D01*
X169569608Y-52766814D01*
X169532837Y-52777123D01*
X169530324Y-52778440D01*
X169491867Y-52799021D01*
X169018171Y-52799021D01*
X169044469Y-52779226D01*
X169092140Y-52712437D01*
X169109707Y-52635824D01*
X169109897Y-52626066D01*
X169109859Y-52625623D01*
X169152545Y-52625623D01*
X169153308Y-52681441D01*
X169159919Y-52711669D01*
X169175362Y-52725276D01*
X169186792Y-52728537D01*
X169235060Y-52738699D01*
X169257269Y-52743389D01*
X169326625Y-52751779D01*
X169403598Y-52751679D01*
X169474430Y-52743849D01*
X169525364Y-52729055D01*
X169526573Y-52728444D01*
X169583969Y-52679937D01*
X169619060Y-52607175D01*
X169630033Y-52520987D01*
X169613520Y-52411883D01*
X169566233Y-52313660D01*
X169491553Y-52231205D01*
X169392863Y-52169407D01*
X169384223Y-52165584D01*
X169332614Y-52144320D01*
X169302880Y-52136695D01*
X169285297Y-52142059D01*
X169271400Y-52158039D01*
X169253092Y-52188396D01*
X169255623Y-52209868D01*
X169283268Y-52230068D01*
X169322286Y-52248617D01*
X169395510Y-52289986D01*
X169445738Y-52342751D01*
X169481624Y-52411499D01*
X169497233Y-52454558D01*
X169496714Y-52482116D01*
X169479263Y-52509781D01*
X169476358Y-52513397D01*
X169444800Y-52552370D01*
X169320593Y-52520155D01*
X169245356Y-52503127D01*
X169196848Y-52501505D01*
X169169153Y-52518999D01*
X169156354Y-52559325D01*
X169152545Y-52625623D01*
X169109859Y-52625623D01*
X169108334Y-52607792D01*
X169100299Y-52601082D01*
X169080773Y-52608038D01*
X169044737Y-52630762D01*
X168987172Y-52671354D01*
X168966859Y-52685959D01*
X168779877Y-52800693D01*
X168584937Y-52881909D01*
X168383531Y-52929370D01*
X168177149Y-52942843D01*
X167967283Y-52922094D01*
X167774880Y-52873387D01*
X167580492Y-52794688D01*
X167406069Y-52691099D01*
X167366696Y-52662375D01*
X167305497Y-52619971D01*
X167266274Y-52603241D01*
X167247196Y-52612647D01*
X167246432Y-52648651D01*
X167200182Y-52648651D01*
X167196083Y-52606602D01*
X167204508Y-52578042D01*
X167212678Y-52540235D01*
X167201810Y-52519574D01*
X167173157Y-52500225D01*
X167128575Y-52496872D01*
X167062075Y-52509564D01*
X167021785Y-52521013D01*
X166949948Y-52538527D01*
X166904436Y-52537306D01*
X166881178Y-52515294D01*
X166876099Y-52470436D01*
X166877921Y-52448432D01*
X166900755Y-52368628D01*
X166951113Y-52304855D01*
X167031864Y-52253630D01*
X167042354Y-52248779D01*
X167091255Y-52224574D01*
X167111852Y-52204700D01*
X167108319Y-52181335D01*
X167091821Y-52156100D01*
X167076525Y-52138189D01*
X167059324Y-52132981D01*
X167030577Y-52141235D01*
X166980644Y-52163707D01*
X166977755Y-52165060D01*
X166875425Y-52229422D01*
X166799019Y-52312745D01*
X166751193Y-52411139D01*
X166734607Y-52520713D01*
X166734607Y-52520987D01*
X166621061Y-52520987D01*
X166621031Y-52520713D01*
X166618454Y-52496920D01*
X166621808Y-52449471D01*
X166629681Y-52412254D01*
X166674212Y-52293131D01*
X166742363Y-52187830D01*
X166794626Y-52133488D01*
X166830951Y-52098636D01*
X166852954Y-52071817D01*
X166855972Y-52064488D01*
X166842127Y-52047435D01*
X166807660Y-52023652D01*
X166795289Y-52016671D01*
X166734607Y-51983992D01*
X166734607Y-51719197D01*
X166734607Y-51621147D01*
X166819011Y-51621147D01*
X166819666Y-51688273D01*
X166820161Y-51714471D01*
X166825136Y-51813946D01*
X166836882Y-51884064D01*
X166857313Y-51929804D01*
X166888348Y-51956144D01*
X166916874Y-51965595D01*
X166970477Y-51976713D01*
X167003155Y-51983491D01*
X167039411Y-52005784D01*
X167079352Y-52053810D01*
X167118120Y-52119695D01*
X167150857Y-52195563D01*
X167167402Y-52249674D01*
X167183854Y-52314925D01*
X167200245Y-52378922D01*
X167204215Y-52394201D01*
X167242350Y-52477230D01*
X167310522Y-52559339D01*
X167404131Y-52637985D01*
X167518576Y-52710628D01*
X167649257Y-52774723D01*
X167791572Y-52827729D01*
X167940922Y-52867102D01*
X168092705Y-52890301D01*
X168103654Y-52891284D01*
X168101959Y-52884207D01*
X168075562Y-52863465D01*
X168029658Y-52832958D01*
X168008296Y-52819687D01*
X167916826Y-52754623D01*
X167859609Y-52691944D01*
X167845066Y-52653959D01*
X167991603Y-52653959D01*
X167994765Y-52710353D01*
X168008608Y-52748122D01*
X168039670Y-52783068D01*
X168048225Y-52790842D01*
X168118144Y-52832212D01*
X168195897Y-52840652D01*
X168277145Y-52815700D01*
X168278025Y-52815247D01*
X168327553Y-52779427D01*
X168354781Y-52730377D01*
X168364210Y-52659252D01*
X168364368Y-52645526D01*
X168352776Y-52581365D01*
X168416381Y-52581365D01*
X168430424Y-52596747D01*
X168442388Y-52598703D01*
X168465461Y-52589341D01*
X168468395Y-52581365D01*
X168454352Y-52565983D01*
X168442388Y-52564027D01*
X168419315Y-52573389D01*
X168416381Y-52581365D01*
X168352776Y-52581365D01*
X168350214Y-52567182D01*
X168312166Y-52507599D01*
X168256841Y-52469060D01*
X168190856Y-52453851D01*
X168120829Y-52464258D01*
X168053377Y-52502564D01*
X168026279Y-52528779D01*
X168001233Y-52573251D01*
X167991853Y-52637700D01*
X167991603Y-52653959D01*
X167845066Y-52653959D01*
X167836342Y-52631174D01*
X167846571Y-52572696D01*
X167913583Y-52572696D01*
X167922252Y-52581365D01*
X167930921Y-52572696D01*
X167922252Y-52564027D01*
X167913583Y-52572696D01*
X167846571Y-52572696D01*
X167846721Y-52571836D01*
X167848134Y-52568865D01*
X167873959Y-52533459D01*
X167910790Y-52523866D01*
X167921497Y-52524333D01*
X167976552Y-52513111D01*
X168029706Y-52476654D01*
X168072130Y-52444865D01*
X168114821Y-52429588D01*
X168173973Y-52425351D01*
X168181593Y-52425324D01*
X168245084Y-52429134D01*
X168290536Y-52443981D01*
X168331737Y-52473003D01*
X168389467Y-52508657D01*
X168441006Y-52520682D01*
X168491677Y-52534441D01*
X168521320Y-52571607D01*
X168527016Y-52626014D01*
X168513816Y-52674429D01*
X168483465Y-52717821D01*
X168429634Y-52768038D01*
X168360809Y-52818459D01*
X168285474Y-52862465D01*
X168253137Y-52877792D01*
X168242782Y-52885891D01*
X168260304Y-52887776D01*
X168299631Y-52884296D01*
X168354691Y-52876301D01*
X168419412Y-52864641D01*
X168487723Y-52850165D01*
X168537733Y-52837953D01*
X168663477Y-52796773D01*
X168786968Y-52741098D01*
X168901741Y-52675066D01*
X169001330Y-52602817D01*
X169079269Y-52528493D01*
X169126842Y-52460769D01*
X169148438Y-52408803D01*
X169171076Y-52339399D01*
X169186839Y-52279893D01*
X169223927Y-52153188D01*
X169268600Y-52060277D01*
X169320890Y-52001113D01*
X169380832Y-51975647D01*
X169397453Y-51974539D01*
X169448179Y-51964081D01*
X169492563Y-51928008D01*
X169498458Y-51921195D01*
X169519587Y-51893322D01*
X169532811Y-51864846D01*
X169539958Y-51826884D01*
X169542855Y-51770550D01*
X169543344Y-51703094D01*
X169543344Y-51538337D01*
X169495665Y-51547654D01*
X169453975Y-51554074D01*
X169391674Y-51561737D01*
X169326620Y-51568548D01*
X169221996Y-51584577D01*
X169149433Y-51609941D01*
X169107435Y-51645229D01*
X169100725Y-51657481D01*
X169093901Y-51688969D01*
X169087939Y-51744296D01*
X169083940Y-51812625D01*
X169083465Y-51827167D01*
X169073724Y-51940099D01*
X169052460Y-52038260D01*
X169021630Y-52117065D01*
X168983188Y-52171931D01*
X168939088Y-52198274D01*
X168924480Y-52199932D01*
X168866303Y-52187390D01*
X168830814Y-52149521D01*
X168817888Y-52085956D01*
X168827400Y-51996331D01*
X168838664Y-51948532D01*
X168855025Y-51897532D01*
X168903304Y-51897532D01*
X168915443Y-51919585D01*
X168949521Y-51944055D01*
X168993397Y-51968255D01*
X169016005Y-51971132D01*
X169023119Y-51953068D01*
X169023207Y-51948932D01*
X169009863Y-51921599D01*
X168978857Y-51894888D01*
X168943724Y-51878005D01*
X168919942Y-51878709D01*
X168903304Y-51897532D01*
X168855025Y-51897532D01*
X168866438Y-51861955D01*
X168903109Y-51785937D01*
X168955527Y-51707741D01*
X168995758Y-51656479D01*
X169071807Y-51563110D01*
X168986112Y-51404729D01*
X168949190Y-51339111D01*
X168917028Y-51286755D01*
X168893739Y-51254081D01*
X168884721Y-51246348D01*
X168862914Y-51254571D01*
X168820406Y-51276194D01*
X168766153Y-51306643D01*
X168762887Y-51308553D01*
X168674657Y-51370447D01*
X168618808Y-51436515D01*
X168593239Y-51512162D01*
X168595851Y-51602795D01*
X168615955Y-51686885D01*
X168633329Y-51772497D01*
X168639866Y-51869615D01*
X168635434Y-51963645D01*
X168619903Y-52039996D01*
X168619123Y-52042267D01*
X168579204Y-52107779D01*
X168516114Y-52156597D01*
X168477064Y-52172289D01*
X168458672Y-52174845D01*
X168448234Y-52164716D01*
X168443491Y-52134985D01*
X168442187Y-52078739D01*
X168442143Y-52065356D01*
X168438753Y-51990300D01*
X168426067Y-51931887D01*
X168406563Y-51887835D01*
X168451549Y-51887835D01*
X168461711Y-51910049D01*
X168462616Y-51910967D01*
X168486029Y-51918453D01*
X168529342Y-51922362D01*
X168540636Y-51922525D01*
X168587763Y-51917845D01*
X168606331Y-51902500D01*
X168607098Y-51896519D01*
X168596887Y-51879377D01*
X168562169Y-51871569D01*
X168529078Y-51870512D01*
X168473800Y-51874780D01*
X168451549Y-51887835D01*
X168406563Y-51887835D01*
X168399747Y-51872440D01*
X168390682Y-51855622D01*
X168353548Y-51798818D01*
X168346937Y-51790775D01*
X168414684Y-51790775D01*
X168421583Y-51817142D01*
X168427940Y-51824277D01*
X168454180Y-51833192D01*
X168498837Y-51835824D01*
X168547626Y-51832815D01*
X168586263Y-51824809D01*
X168599627Y-51816560D01*
X168599376Y-51792952D01*
X168568976Y-51775919D01*
X168512636Y-51767377D01*
X168490067Y-51766750D01*
X168438475Y-51773086D01*
X168414684Y-51790775D01*
X168346937Y-51790775D01*
X168306954Y-51742133D01*
X168258058Y-51692800D01*
X168214020Y-51658052D01*
X168182320Y-51645119D01*
X168149996Y-51658412D01*
X168105844Y-51693449D01*
X168057034Y-51742965D01*
X168010735Y-51799696D01*
X167974531Y-51855622D01*
X167940385Y-51930909D01*
X167923589Y-52006667D01*
X167919528Y-52061228D01*
X167915937Y-52122266D01*
X167909583Y-52155696D01*
X167898138Y-52168584D01*
X167884034Y-52168899D01*
X167812597Y-52142750D01*
X167758743Y-52094124D01*
X167747394Y-52075706D01*
X167730779Y-52019329D01*
X167723654Y-51940056D01*
X167724633Y-51897515D01*
X167757542Y-51897515D01*
X167765613Y-51914689D01*
X167794885Y-51920500D01*
X167829880Y-51919188D01*
X167876388Y-51911151D01*
X167905606Y-51897458D01*
X167909345Y-51892184D01*
X167901748Y-51877800D01*
X167864640Y-51871196D01*
X167837007Y-51870512D01*
X167785640Y-51873589D01*
X167761679Y-51884375D01*
X167757542Y-51897515D01*
X167724633Y-51897515D01*
X167725767Y-51848267D01*
X167729963Y-51812757D01*
X167757542Y-51812757D01*
X167772224Y-51828761D01*
X167808685Y-51835579D01*
X167855550Y-51834180D01*
X167901440Y-51825528D01*
X167934979Y-51810592D01*
X167945033Y-51796826D01*
X167941736Y-51775655D01*
X167915658Y-51767403D01*
X167893182Y-51766721D01*
X167820742Y-51772482D01*
X167774200Y-51788172D01*
X167757544Y-51812438D01*
X167757542Y-51812757D01*
X167729963Y-51812757D01*
X167736866Y-51754344D01*
X167756700Y-51668671D01*
X167757313Y-51666699D01*
X167779035Y-51575865D01*
X167778603Y-51512402D01*
X167933792Y-51512402D01*
X167939813Y-51602602D01*
X167958803Y-51662088D01*
X167986685Y-51731772D01*
X168073764Y-51662439D01*
X168122143Y-51626406D01*
X168161771Y-51601336D01*
X168182144Y-51593106D01*
X168205726Y-51603864D01*
X168245151Y-51631766D01*
X168282232Y-51662457D01*
X168325347Y-51699140D01*
X168357649Y-51724278D01*
X168370477Y-51731809D01*
X168380336Y-51716727D01*
X168396070Y-51677707D01*
X168409776Y-51637137D01*
X168427901Y-51551072D01*
X168421604Y-51475665D01*
X168388553Y-51403776D01*
X168326417Y-51328266D01*
X168300560Y-51302696D01*
X168252210Y-51258967D01*
X168211751Y-51226725D01*
X168186854Y-51212000D01*
X168184779Y-51211672D01*
X168156719Y-51223871D01*
X168114419Y-51255583D01*
X168065593Y-51299476D01*
X168017952Y-51348223D01*
X167979210Y-51394492D01*
X167959214Y-51426026D01*
X167933792Y-51512402D01*
X167778603Y-51512402D01*
X167778549Y-51504420D01*
X167754526Y-51444066D01*
X167713683Y-51394362D01*
X167674299Y-51360577D01*
X167622111Y-51322860D01*
X167566670Y-51287273D01*
X167517527Y-51259877D01*
X167484233Y-51246734D01*
X167480465Y-51246348D01*
X167468143Y-51260266D01*
X167443567Y-51296963D01*
X167411225Y-51348848D01*
X167375603Y-51408333D01*
X167341190Y-51467830D01*
X167312473Y-51519751D01*
X167293939Y-51556505D01*
X167289419Y-51569416D01*
X167300147Y-51586416D01*
X167328205Y-51621200D01*
X167365469Y-51663928D01*
X167428636Y-51750897D01*
X167484191Y-51858084D01*
X167525539Y-51971046D01*
X167543761Y-52054414D01*
X167542263Y-52124225D01*
X167517927Y-52173459D01*
X167473352Y-52197964D01*
X167452680Y-52199932D01*
X167397972Y-52183484D01*
X167354214Y-52134161D01*
X167321419Y-52051996D01*
X167318708Y-52037709D01*
X167362903Y-52037709D01*
X167367825Y-52047730D01*
X167397737Y-52041213D01*
X167417846Y-52032496D01*
X167457467Y-52007995D01*
X167478896Y-51983832D01*
X167480136Y-51978401D01*
X167474075Y-51965583D01*
X167451329Y-51971838D01*
X167425179Y-51986105D01*
X167382259Y-52015663D01*
X167362903Y-52037709D01*
X167318708Y-52037709D01*
X167301497Y-51947011D01*
X167325383Y-51947011D01*
X167335653Y-51962980D01*
X167348973Y-51972746D01*
X167365964Y-51969145D01*
X167398588Y-51949245D01*
X167402725Y-51946538D01*
X167433608Y-51918846D01*
X167445460Y-51894525D01*
X167442174Y-51875534D01*
X167427112Y-51873331D01*
X167392471Y-51888186D01*
X167375247Y-51896964D01*
X167334582Y-51923590D01*
X167325383Y-51947011D01*
X167301497Y-51947011D01*
X167299601Y-51937021D01*
X167290835Y-51836447D01*
X167286019Y-51755435D01*
X167280845Y-51701571D01*
X167273038Y-51667379D01*
X167260322Y-51645384D01*
X167240421Y-51628110D01*
X167223973Y-51616828D01*
X167197498Y-51601379D01*
X167166151Y-51589286D01*
X167124146Y-51579535D01*
X167065700Y-51571117D01*
X166985026Y-51563018D01*
X166876339Y-51554227D01*
X166858153Y-51552853D01*
X166839108Y-51552634D01*
X166827235Y-51559697D01*
X166821035Y-51580411D01*
X166819011Y-51621147D01*
X166734607Y-51621147D01*
X166734607Y-51454403D01*
X166994675Y-51454403D01*
X167254743Y-51454403D01*
X167254743Y-51389888D01*
X167258221Y-51353216D01*
X167272089Y-51319632D01*
X167301501Y-51280576D01*
X167351608Y-51227490D01*
X167353893Y-51225178D01*
X167402717Y-51178463D01*
X167444340Y-51143368D01*
X167471478Y-51125898D01*
X167475402Y-51124983D01*
X167497905Y-51134147D01*
X167542491Y-51159079D01*
X167602641Y-51195938D01*
X167669796Y-51239524D01*
X167737969Y-51283600D01*
X167796112Y-51318735D01*
X167838025Y-51341349D01*
X167857454Y-51347886D01*
X167875549Y-51333148D01*
X167910780Y-51298928D01*
X167956923Y-51251374D01*
X167980019Y-51226801D01*
X168036501Y-51162717D01*
X168070310Y-51114979D01*
X168085309Y-51077610D01*
X168086961Y-51061224D01*
X168087646Y-51057657D01*
X168120753Y-51057657D01*
X168123834Y-51097147D01*
X168133196Y-51113424D01*
X168166072Y-51125451D01*
X168207400Y-51118594D01*
X168239229Y-51096450D01*
X168242330Y-51091563D01*
X168252109Y-51045642D01*
X168234395Y-51009772D01*
X168196292Y-50991649D01*
X168153870Y-50995724D01*
X168131749Y-51018246D01*
X168120753Y-51057657D01*
X168087646Y-51057657D01*
X168097367Y-51007076D01*
X168130773Y-50977356D01*
X168185388Y-50968942D01*
X168239094Y-50982538D01*
G37*
%TD.AperFunction*%
%TA.AperFunction,EtchedComponent*%
G36*
X167372833Y-54049417D02*
G01*
X167379535Y-54072423D01*
X167397230Y-54130965D01*
X167418218Y-54194035D01*
X167420754Y-54201199D01*
X167437146Y-54251192D01*
X167439139Y-54270845D01*
X167426316Y-54261548D01*
X167409194Y-54239769D01*
X167391782Y-54201436D01*
X167377445Y-54144218D01*
X167372123Y-54107099D01*
X167367577Y-54056730D01*
X167367638Y-54038326D01*
X167372833Y-54049417D01*
G37*
%TD.AperFunction*%
%TA.AperFunction,EtchedComponent*%
G36*
X167862625Y-53160030D02*
G01*
X167895729Y-53187311D01*
X167896759Y-53189152D01*
X167911593Y-53228220D01*
X167905497Y-53242631D01*
X167883208Y-53228853D01*
X167867809Y-53210742D01*
X167842190Y-53179312D01*
X167824288Y-53173031D01*
X167801202Y-53189167D01*
X167794416Y-53195213D01*
X167766168Y-53212983D01*
X167757291Y-53205750D01*
X167772850Y-53180098D01*
X167778347Y-53174321D01*
X167818146Y-53155030D01*
X167862625Y-53160030D01*
G37*
%TD.AperFunction*%
%TA.AperFunction,EtchedComponent*%
G36*
X168551954Y-53152836D02*
G01*
X168574266Y-53169815D01*
X168597544Y-53193391D01*
X168598946Y-53204782D01*
X168597562Y-53204952D01*
X168569788Y-53194494D01*
X168561451Y-53187623D01*
X168530692Y-53177229D01*
X168496182Y-53194465D01*
X168470818Y-53228213D01*
X168456584Y-53254552D01*
X168453505Y-53248970D01*
X168455616Y-53224854D01*
X168472788Y-53183189D01*
X168496246Y-53159375D01*
X168525763Y-53145252D01*
X168551954Y-53152836D01*
G37*
%TD.AperFunction*%
%TA.AperFunction,EtchedComponent*%
G36*
X166630579Y-54055629D02*
G01*
X166616528Y-54070531D01*
X166604572Y-54072423D01*
X166581440Y-54068714D01*
X166578566Y-54065609D01*
X166592123Y-54054429D01*
X166604572Y-54048815D01*
X166626898Y-54048455D01*
X166630579Y-54055629D01*
G37*
%TD.AperFunction*%
%TA.AperFunction,EtchedComponent*%
G36*
X166191693Y-53424783D02*
G01*
X166188463Y-53430921D01*
X166172127Y-53447479D01*
X166169079Y-53448259D01*
X166167896Y-53437060D01*
X166171125Y-53430921D01*
X166187461Y-53414364D01*
X166190510Y-53413583D01*
X166191693Y-53424783D01*
G37*
%TD.AperFunction*%
%TA.AperFunction,EtchedComponent*%
G36*
X170184845Y-53422252D02*
G01*
X170176176Y-53430921D01*
X170167508Y-53422252D01*
X170176176Y-53413583D01*
X170184845Y-53422252D01*
G37*
%TD.AperFunction*%
%TA.AperFunction,EtchedComponent*%
G36*
X168225630Y-51757782D02*
G01*
X168287949Y-51835336D01*
X168336156Y-51930335D01*
X168367258Y-52032817D01*
X168378265Y-52132820D01*
X168366183Y-52220382D01*
X168365343Y-52222984D01*
X168328794Y-52290797D01*
X168273726Y-52342492D01*
X168209397Y-52370464D01*
X168182320Y-52373310D01*
X168115410Y-52357267D01*
X168072111Y-52329398D01*
X168019109Y-52263312D01*
X167991125Y-52179229D01*
X167987617Y-52082582D01*
X167990113Y-52069897D01*
X168104299Y-52069897D01*
X168112968Y-52078566D01*
X168121637Y-52069897D01*
X168112968Y-52061228D01*
X168104299Y-52069897D01*
X167990113Y-52069897D01*
X168008039Y-51978805D01*
X168020613Y-51948532D01*
X168156313Y-51948532D01*
X168164982Y-51957201D01*
X168173651Y-51948532D01*
X168164982Y-51939863D01*
X168156313Y-51948532D01*
X168020613Y-51948532D01*
X168051848Y-51873329D01*
X168118499Y-51771588D01*
X168129322Y-51758311D01*
X168172407Y-51706792D01*
X168225630Y-51757782D01*
G37*
%TD.AperFunction*%
%TA.AperFunction,EtchedComponent*%
G36*
X168215170Y-52519736D02*
G01*
X168273080Y-52557042D01*
X168280891Y-52564573D01*
X168316340Y-52608191D01*
X168325122Y-52644633D01*
X168323139Y-52655597D01*
X168314693Y-52695560D01*
X168312591Y-52715334D01*
X168297481Y-52741024D01*
X168259587Y-52769336D01*
X168209333Y-52792903D01*
X168197297Y-52796825D01*
X168156528Y-52794483D01*
X168107068Y-52763080D01*
X168106274Y-52762413D01*
X168063592Y-52708390D01*
X168055561Y-52674566D01*
X168081199Y-52674566D01*
X168086244Y-52692174D01*
X168118933Y-52735990D01*
X168169011Y-52754129D01*
X168228228Y-52744259D01*
X168244142Y-52736796D01*
X168270103Y-52705530D01*
X168277978Y-52658239D01*
X168267768Y-52608487D01*
X168244167Y-52573750D01*
X168198369Y-52551028D01*
X168151204Y-52555725D01*
X168110641Y-52581864D01*
X168084649Y-52623470D01*
X168081199Y-52674566D01*
X168055561Y-52674566D01*
X168049174Y-52647668D01*
X168063362Y-52589149D01*
X168097969Y-52547948D01*
X168157530Y-52516771D01*
X168215170Y-52519736D01*
G37*
%TD.AperFunction*%
%TA.AperFunction,EtchedComponent*%
G36*
X104184091Y-134869689D02*
G01*
X104251980Y-134895616D01*
X104294960Y-134936698D01*
X104315658Y-134994233D01*
X104318497Y-135033453D01*
X104310926Y-135097440D01*
X104286326Y-135138631D01*
X104284230Y-135140586D01*
X104263176Y-135162101D01*
X104261429Y-135180239D01*
X104280318Y-135207558D01*
X104292899Y-135222623D01*
X104330297Y-135291100D01*
X104335137Y-135364478D01*
X104307624Y-135436290D01*
X104285283Y-135465767D01*
X104234731Y-135522389D01*
X104033504Y-135528225D01*
X103832277Y-135534060D01*
X103833294Y-135461706D01*
X103937064Y-135461706D01*
X104010750Y-135461610D01*
X104075565Y-135457145D01*
X104138618Y-135446312D01*
X104146694Y-135444218D01*
X104204712Y-135414753D01*
X104235567Y-135369483D01*
X104236119Y-135314302D01*
X104227744Y-135291986D01*
X104202304Y-135257666D01*
X104161408Y-135235894D01*
X104098355Y-135224279D01*
X104028088Y-135220704D01*
X103937064Y-135218976D01*
X103937064Y-135340341D01*
X103937064Y-135461706D01*
X103833294Y-135461706D01*
X103835001Y-135340341D01*
X103836991Y-135198805D01*
X103837626Y-135153664D01*
X103937064Y-135153664D01*
X104048779Y-135146550D01*
X104130757Y-135136131D01*
X104183562Y-135116549D01*
X104196151Y-135107168D01*
X104227359Y-135061701D01*
X104224090Y-135014142D01*
X104197132Y-134976246D01*
X104168943Y-134956065D01*
X104128982Y-134945342D01*
X104067024Y-134941670D01*
X104049760Y-134941570D01*
X103937064Y-134941570D01*
X103937064Y-135047617D01*
X103937064Y-135153664D01*
X103837626Y-135153664D01*
X103839117Y-135047617D01*
X103841706Y-134863549D01*
X103963071Y-134858112D01*
X104088664Y-134857620D01*
X104184091Y-134869689D01*
G37*
%TD.AperFunction*%
%TA.AperFunction,EtchedComponent*%
G36*
X104758084Y-134870072D02*
G01*
X104764145Y-134876553D01*
X104774763Y-134898239D01*
X104794917Y-134945845D01*
X104822205Y-135013156D01*
X104854225Y-135093955D01*
X104888577Y-135182027D01*
X104922858Y-135271158D01*
X104954667Y-135355130D01*
X104981603Y-135427729D01*
X105001264Y-135482739D01*
X105011249Y-135513945D01*
X105012013Y-135518078D01*
X104997176Y-135527909D01*
X104969479Y-135531058D01*
X104939340Y-135523857D01*
X104914765Y-135497171D01*
X104892434Y-135453037D01*
X104857922Y-135375017D01*
X104708600Y-135375017D01*
X104559278Y-135375017D01*
X104524766Y-135453037D01*
X104498969Y-135502480D01*
X104474059Y-135525906D01*
X104447720Y-135531058D01*
X104415501Y-135526975D01*
X104405187Y-135519358D01*
X104411185Y-135499589D01*
X104427589Y-135453769D01*
X104452016Y-135388074D01*
X104482082Y-135308683D01*
X104489887Y-135288327D01*
X104581875Y-135288327D01*
X104701586Y-135288327D01*
X104760946Y-135286227D01*
X104803775Y-135280704D01*
X104821246Y-135272930D01*
X104821296Y-135272471D01*
X104815601Y-135248580D01*
X104800763Y-135204505D01*
X104780151Y-135148808D01*
X104757134Y-135090051D01*
X104735081Y-135036796D01*
X104717360Y-134997604D01*
X104707342Y-134981038D01*
X104706641Y-134981094D01*
X104697718Y-134999210D01*
X104679458Y-135042130D01*
X104655021Y-135102310D01*
X104640841Y-135138128D01*
X104581875Y-135288327D01*
X104489887Y-135288327D01*
X104515403Y-135221775D01*
X104549595Y-135133527D01*
X104582274Y-135050118D01*
X104611057Y-134977726D01*
X104633559Y-134922529D01*
X104647397Y-134890707D01*
X104648904Y-134887712D01*
X104679018Y-134862242D01*
X104721106Y-134855810D01*
X104758084Y-134870072D01*
G37*
%TD.AperFunction*%
%TA.AperFunction,EtchedComponent*%
G36*
X105195984Y-134877081D02*
G01*
X105232999Y-134925041D01*
X105276841Y-135003535D01*
X105286996Y-135023856D01*
X105333148Y-135118195D01*
X105366762Y-135183221D01*
X105392070Y-135219973D01*
X105413305Y-135229488D01*
X105434697Y-135212804D01*
X105460481Y-135170958D01*
X105494889Y-135104990D01*
X105508784Y-135078242D01*
X105557246Y-134987359D01*
X105593910Y-134923810D01*
X105621873Y-134883617D01*
X105644234Y-134862802D01*
X105664088Y-134857385D01*
X105678177Y-134860634D01*
X105687825Y-134868387D01*
X105694947Y-134886207D01*
X105699908Y-134918640D01*
X105703074Y-134970232D01*
X105704808Y-135045528D01*
X105705477Y-135149075D01*
X105705528Y-135201094D01*
X105705528Y-135531058D01*
X105662687Y-135531058D01*
X105619845Y-135531058D01*
X105615007Y-135301331D01*
X105610170Y-135071604D01*
X105526411Y-135223310D01*
X105479617Y-135303905D01*
X105442894Y-135353500D01*
X105412190Y-135372767D01*
X105383456Y-135362375D01*
X105352642Y-135322995D01*
X105317061Y-135257986D01*
X105274311Y-135175036D01*
X105243947Y-135122115D01*
X105223835Y-135100036D01*
X105211840Y-135109614D01*
X105205825Y-135151661D01*
X105203657Y-135226992D01*
X105203281Y-135301331D01*
X105202729Y-135531058D01*
X105159385Y-135531058D01*
X105116040Y-135531058D01*
X105116040Y-135202661D01*
X105116955Y-135082192D01*
X105119591Y-134984975D01*
X105123786Y-134914153D01*
X105129378Y-134872871D01*
X105133533Y-134863453D01*
X105163571Y-134857327D01*
X105195984Y-134877081D01*
G37*
%TD.AperFunction*%
%TA.AperFunction,EtchedComponent*%
G36*
X106387301Y-134859978D02*
G01*
X106477682Y-134875898D01*
X106540701Y-134904398D01*
X106579383Y-134947137D01*
X106596756Y-135005773D01*
X106598429Y-135036928D01*
X106587265Y-135110122D01*
X106565236Y-135147986D01*
X106543386Y-135175349D01*
X106544296Y-135195398D01*
X106567295Y-135223492D01*
X106604758Y-135287224D01*
X106614215Y-135357746D01*
X106597152Y-135425740D01*
X106555051Y-135481890D01*
X106522635Y-135503899D01*
X106486428Y-135514432D01*
X106428095Y-135522898D01*
X106356648Y-135528953D01*
X106281098Y-135532250D01*
X106210454Y-135532446D01*
X106153729Y-135529193D01*
X106119933Y-135522147D01*
X106115858Y-135519499D01*
X106111910Y-135498945D01*
X106108792Y-135450560D01*
X106106516Y-135381178D01*
X106105590Y-135326826D01*
X106105093Y-135297633D01*
X106104585Y-135215063D01*
X106208327Y-135215063D01*
X106208327Y-135326826D01*
X106210214Y-135386577D01*
X106215137Y-135432025D01*
X106221330Y-135451979D01*
X106244156Y-135457612D01*
X106290949Y-135459140D01*
X106346358Y-135456571D01*
X106414378Y-135448514D01*
X106457563Y-135435340D01*
X106485700Y-135413827D01*
X106489396Y-135409474D01*
X106520235Y-135353466D01*
X106518585Y-135304638D01*
X106486261Y-135265104D01*
X106425077Y-135236981D01*
X106336848Y-135222383D01*
X106328418Y-135221849D01*
X106208327Y-135215063D01*
X106104585Y-135215063D01*
X106104534Y-135206760D01*
X106104849Y-135115395D01*
X106105999Y-135034038D01*
X106106051Y-135030370D01*
X106108150Y-134958521D01*
X106109134Y-134941570D01*
X106208327Y-134941570D01*
X106208327Y-135034038D01*
X106210597Y-135088423D01*
X106216420Y-135127959D01*
X106221330Y-135139897D01*
X106246467Y-135146838D01*
X106294060Y-135147624D01*
X106352661Y-135143377D01*
X106410822Y-135135218D01*
X106457096Y-135124271D01*
X106477233Y-135114809D01*
X106499123Y-135076677D01*
X106499759Y-135026503D01*
X106479447Y-134979403D01*
X106474377Y-134973276D01*
X106449528Y-134955170D01*
X106410401Y-134945288D01*
X106348064Y-134941706D01*
X106327005Y-134941570D01*
X106208327Y-134941570D01*
X106109134Y-134941570D01*
X106111158Y-134906683D01*
X106114823Y-134882305D01*
X106127257Y-134868156D01*
X106155672Y-134859701D01*
X106206769Y-134855733D01*
X106266530Y-134854977D01*
X106387301Y-134859978D01*
G37*
%TD.AperFunction*%
%TA.AperFunction,EtchedComponent*%
G36*
X107013545Y-134862381D02*
G01*
X107036053Y-134875676D01*
X107047627Y-134898109D01*
X107068645Y-134946518D01*
X107096658Y-135014590D01*
X107129219Y-135096009D01*
X107163880Y-135184462D01*
X107198194Y-135273632D01*
X107229712Y-135357206D01*
X107255987Y-135428868D01*
X107274572Y-135482303D01*
X107283018Y-135511198D01*
X107283275Y-135513473D01*
X107268536Y-135527032D01*
X107242899Y-135531058D01*
X107212127Y-135522084D01*
X107185869Y-135490452D01*
X107169213Y-135457372D01*
X107135903Y-135383686D01*
X106985300Y-135378692D01*
X106834696Y-135373699D01*
X106799892Y-135452378D01*
X106770419Y-135506015D01*
X106741680Y-135529313D01*
X106730461Y-135531058D01*
X106698788Y-135525361D01*
X106688825Y-135518054D01*
X106692622Y-135498607D01*
X106707313Y-135451995D01*
X106731117Y-135383330D01*
X106762254Y-135297724D01*
X106769267Y-135279099D01*
X106867166Y-135279099D01*
X106883039Y-135283650D01*
X106924805Y-135286947D01*
X106983689Y-135288321D01*
X106988382Y-135288327D01*
X107109599Y-135288327D01*
X107064566Y-135171297D01*
X107040936Y-135108907D01*
X107021687Y-135056304D01*
X107010862Y-135024544D01*
X107010679Y-135023925D01*
X106996621Y-134998272D01*
X106987770Y-134993583D01*
X106977151Y-135008327D01*
X106958070Y-135046627D01*
X106934284Y-135099589D01*
X106909550Y-135158318D01*
X106887626Y-135213920D01*
X106872268Y-135257500D01*
X106867166Y-135279099D01*
X106769267Y-135279099D01*
X106798942Y-135200289D01*
X106805072Y-135184300D01*
X106847717Y-135074138D01*
X106880492Y-134992246D01*
X106905582Y-134934382D01*
X106925172Y-134896303D01*
X106941447Y-134873767D01*
X106956590Y-134862532D01*
X106972786Y-134858354D01*
X106972917Y-134858338D01*
X107013545Y-134862381D01*
G37*
%TD.AperFunction*%
%TA.AperFunction,EtchedComponent*%
G36*
X107982927Y-134884235D02*
G01*
X107985457Y-134892765D01*
X107988466Y-134923017D01*
X107990511Y-134981239D01*
X107991491Y-135060737D01*
X107991308Y-135154814D01*
X107990404Y-135227645D01*
X107985460Y-135522389D01*
X107942115Y-135522389D01*
X107898770Y-135522389D01*
X107890101Y-135296996D01*
X107881432Y-135071604D01*
X107807168Y-135215408D01*
X107771915Y-135279537D01*
X107739470Y-135331289D01*
X107714749Y-135363125D01*
X107706829Y-135369217D01*
X107676587Y-135368470D01*
X107643566Y-135341861D01*
X107605592Y-135286886D01*
X107560492Y-135201041D01*
X107559993Y-135200008D01*
X107499999Y-135075788D01*
X107491330Y-135299089D01*
X107482661Y-135522389D01*
X107434603Y-135527911D01*
X107386546Y-135533434D01*
X107391259Y-135198492D01*
X107395972Y-134863549D01*
X107437208Y-134863549D01*
X107456828Y-134867822D01*
X107477101Y-134883803D01*
X107501537Y-134916238D01*
X107533642Y-134969870D01*
X107576926Y-135049445D01*
X107582676Y-135060282D01*
X107686909Y-135257014D01*
X107751443Y-135138302D01*
X107789678Y-135067776D01*
X107827845Y-134997068D01*
X107857634Y-134941570D01*
X107894018Y-134888214D01*
X107930340Y-134859608D01*
X107961632Y-134857649D01*
X107982927Y-134884235D01*
G37*
%TD.AperFunction*%
%TA.AperFunction,EtchedComponent*%
G36*
X104506429Y-133067138D02*
G01*
X104587611Y-133087793D01*
X104668089Y-133117943D01*
X104731389Y-133156720D01*
X104787665Y-133207175D01*
X104841838Y-133271906D01*
X104877369Y-133336339D01*
X104891215Y-133393269D01*
X104882674Y-133432049D01*
X104860513Y-133441129D01*
X104811908Y-133447605D01*
X104745056Y-133450459D01*
X104734029Y-133450512D01*
X104665211Y-133449903D01*
X104622558Y-133446340D01*
X104597561Y-133437221D01*
X104581711Y-133419942D01*
X104571008Y-133400647D01*
X104527225Y-133350743D01*
X104462252Y-133317472D01*
X104385953Y-133302040D01*
X104308193Y-133305652D01*
X104238834Y-133329514D01*
X104203624Y-133355754D01*
X104169051Y-133406019D01*
X104168307Y-133456443D01*
X104201337Y-133510985D01*
X104201467Y-133511136D01*
X104225672Y-133532375D01*
X104263489Y-133553055D01*
X104320289Y-133575351D01*
X104401441Y-133601440D01*
X104483207Y-133625285D01*
X104624344Y-133669081D01*
X104734291Y-133712745D01*
X104816403Y-133759171D01*
X104874034Y-133811253D01*
X104910539Y-133871883D01*
X104929272Y-133943956D01*
X104933724Y-134013889D01*
X104918657Y-134125447D01*
X104873913Y-134220910D01*
X104801099Y-134299139D01*
X104701823Y-134358994D01*
X104577692Y-134399339D01*
X104430314Y-134419034D01*
X104359174Y-134420867D01*
X104221002Y-134412492D01*
X104113996Y-134388591D01*
X104047385Y-134359982D01*
X103982826Y-134323472D01*
X103957955Y-134305797D01*
X103905934Y-134253311D01*
X103861413Y-134188575D01*
X103830425Y-134122413D01*
X103819003Y-134065651D01*
X103819483Y-134057338D01*
X103824129Y-134034961D01*
X103836918Y-134021548D01*
X103865520Y-134014280D01*
X103917608Y-134010338D01*
X103951352Y-134008873D01*
X104078337Y-134003753D01*
X104142069Y-134072947D01*
X104188012Y-134116382D01*
X104234121Y-134150016D01*
X104254609Y-134160421D01*
X104327758Y-134176372D01*
X104409418Y-134176530D01*
X104488555Y-134162633D01*
X104554131Y-134136418D01*
X104589447Y-134107703D01*
X104620479Y-134053574D01*
X104621160Y-134004901D01*
X104590560Y-133960702D01*
X104527748Y-133919996D01*
X104431794Y-133881800D01*
X104353173Y-133858385D01*
X104204575Y-133814108D01*
X104087257Y-133769228D01*
X103997875Y-133721254D01*
X103933086Y-133667693D01*
X103889546Y-133606055D01*
X103863910Y-133533847D01*
X103856143Y-133487989D01*
X103859073Y-133381813D01*
X103891741Y-133286922D01*
X103950471Y-133205325D01*
X104031589Y-133139034D01*
X104131419Y-133090059D01*
X104246285Y-133060411D01*
X104372514Y-133052100D01*
X104506429Y-133067138D01*
G37*
%TD.AperFunction*%
%TA.AperFunction,EtchedComponent*%
G36*
X107763360Y-133063070D02*
G01*
X107865219Y-133078319D01*
X107924777Y-133095085D01*
X108002266Y-133133378D01*
X108077510Y-133188016D01*
X108142779Y-133251588D01*
X108190338Y-133316678D01*
X108211529Y-133370002D01*
X108218846Y-133422749D01*
X108213280Y-133456405D01*
X108189414Y-133475205D01*
X108141827Y-133483388D01*
X108065101Y-133485187D01*
X108064184Y-133485188D01*
X107925096Y-133485188D01*
X107885926Y-133424354D01*
X107830196Y-133365104D01*
X107754515Y-133319949D01*
X107673001Y-133296515D01*
X107646232Y-133294852D01*
X107591601Y-133302589D01*
X107530285Y-133321320D01*
X107516022Y-133327328D01*
X107471677Y-133351411D01*
X107438656Y-133381176D01*
X107415359Y-133421760D01*
X107400187Y-133478299D01*
X107391544Y-133555928D01*
X107387831Y-133659784D01*
X107387303Y-133740978D01*
X107387661Y-133842303D01*
X107389269Y-133915429D01*
X107392928Y-133966831D01*
X107399439Y-134002981D01*
X107409603Y-134030355D01*
X107424220Y-134055427D01*
X107426659Y-134059108D01*
X107489597Y-134127035D01*
X107568395Y-134164788D01*
X107664962Y-134173214D01*
X107681027Y-134172008D01*
X107744535Y-134160761D01*
X107799660Y-134142015D01*
X107819730Y-134130702D01*
X107871901Y-134074843D01*
X107909621Y-134001023D01*
X107924731Y-133925382D01*
X107924750Y-133922969D01*
X107924777Y-133866621D01*
X107815549Y-133866621D01*
X107742016Y-133863076D01*
X107696524Y-133849541D01*
X107672898Y-133821668D01*
X107664964Y-133775107D01*
X107664709Y-133760364D01*
X107667107Y-133716695D01*
X107677506Y-133685179D01*
X107700719Y-133663858D01*
X107741554Y-133650772D01*
X107804822Y-133643962D01*
X107895335Y-133641469D01*
X107957224Y-133641228D01*
X108071094Y-133642692D01*
X108151683Y-133647151D01*
X108200267Y-133654708D01*
X108216054Y-133662034D01*
X108227469Y-133691479D01*
X108234279Y-133746363D01*
X108236595Y-133817771D01*
X108234527Y-133896788D01*
X108228184Y-133974498D01*
X108217678Y-134041987D01*
X108211023Y-134068691D01*
X108165830Y-134177792D01*
X108099632Y-134263650D01*
X108007108Y-134332463D01*
X107965511Y-134354661D01*
X107908456Y-134381310D01*
X107860290Y-134398617D01*
X107809930Y-134408901D01*
X107746294Y-134414483D01*
X107665378Y-134417489D01*
X107578252Y-134418893D01*
X107515216Y-134416541D01*
X107465763Y-134409054D01*
X107419390Y-134395054D01*
X107382526Y-134380384D01*
X107291048Y-134336709D01*
X107224111Y-134290095D01*
X107172012Y-134232134D01*
X107127794Y-134159590D01*
X107098475Y-134081964D01*
X107076997Y-133979225D01*
X107063565Y-133860082D01*
X107058380Y-133733246D01*
X107061647Y-133607426D01*
X107073567Y-133491333D01*
X107094344Y-133393677D01*
X107108986Y-133352445D01*
X107172707Y-133246872D01*
X107263233Y-133159039D01*
X107361296Y-133100602D01*
X107439138Y-133076653D01*
X107539385Y-133062344D01*
X107651104Y-133057780D01*
X107763360Y-133063070D01*
G37*
%TD.AperFunction*%
%TA.AperFunction,EtchedComponent*%
G36*
X105454129Y-133736587D02*
G01*
X105454129Y-134395426D01*
X105310818Y-134400466D01*
X105233257Y-134401455D01*
X105185279Y-134397443D01*
X105162075Y-134387882D01*
X105158893Y-134383060D01*
X105157055Y-134361128D01*
X105155593Y-134308518D01*
X105154532Y-134229226D01*
X105153897Y-134127248D01*
X105153712Y-134006580D01*
X105154002Y-133871219D01*
X105154790Y-133725159D01*
X105154832Y-133719180D01*
X105159385Y-133077747D01*
X105306757Y-133077747D01*
X105454129Y-133077747D01*
X105454129Y-133736587D01*
G37*
%TD.AperFunction*%
%TA.AperFunction,EtchedComponent*%
G36*
X106738137Y-133072711D02*
G01*
X106789526Y-133079655D01*
X106808044Y-133087711D01*
X106814497Y-133109958D01*
X106820085Y-133162085D01*
X106824793Y-133239307D01*
X106828608Y-133336841D01*
X106831518Y-133449901D01*
X106833507Y-133573702D01*
X106834564Y-133703460D01*
X106834674Y-133834390D01*
X106833824Y-133961707D01*
X106832001Y-134080627D01*
X106829191Y-134186364D01*
X106825380Y-134274134D01*
X106820556Y-134339152D01*
X106814705Y-134376633D01*
X106811685Y-134383290D01*
X106783217Y-134394639D01*
X106730046Y-134402037D01*
X106675687Y-134404095D01*
X106560494Y-134404095D01*
X106297766Y-134009658D01*
X106035037Y-133615222D01*
X106034993Y-133988853D01*
X106034295Y-134126649D01*
X106032149Y-134232293D01*
X106028425Y-134308285D01*
X106022989Y-134357124D01*
X106015710Y-134381310D01*
X106014142Y-134383290D01*
X105986097Y-134394995D01*
X105937249Y-134402023D01*
X105878360Y-134404411D01*
X105820193Y-134402199D01*
X105773512Y-134395423D01*
X105749079Y-134384121D01*
X105748111Y-134382354D01*
X105746334Y-134360587D01*
X105744929Y-134308137D01*
X105743918Y-134228993D01*
X105743325Y-134127145D01*
X105743172Y-134006585D01*
X105743482Y-133871303D01*
X105744277Y-133725288D01*
X105744320Y-133719180D01*
X105748873Y-133077747D01*
X105878013Y-133077747D01*
X106007153Y-133077747D01*
X106175470Y-133337815D01*
X106237571Y-133434012D01*
X106300194Y-133531448D01*
X106357983Y-133621760D01*
X106405581Y-133696583D01*
X106427764Y-133731748D01*
X106466004Y-133790685D01*
X106498145Y-133836503D01*
X106519411Y-133862567D01*
X106524418Y-133866116D01*
X106528237Y-133849738D01*
X106532004Y-133803544D01*
X106535506Y-133732390D01*
X106538529Y-133641135D01*
X106540858Y-133534638D01*
X106541755Y-133472184D01*
X106546415Y-133077747D01*
X106665007Y-133072585D01*
X106738137Y-133072711D01*
G37*
%TD.AperFunction*%
%TA.AperFunction,EtchedComponent*%
G36*
X109172633Y-133142764D02*
G01*
X109196245Y-133199582D01*
X109227331Y-133278692D01*
X109264328Y-133375734D01*
X109305673Y-133486349D01*
X109349803Y-133606177D01*
X109395156Y-133730860D01*
X109440169Y-133856038D01*
X109483281Y-133977352D01*
X109522928Y-134090442D01*
X109557548Y-134190950D01*
X109585578Y-134274515D01*
X109605456Y-134336779D01*
X109615619Y-134373382D01*
X109616479Y-134381061D01*
X109602841Y-134393846D01*
X109570208Y-134400423D01*
X109512394Y-134401628D01*
X109472593Y-134400495D01*
X109338108Y-134395426D01*
X109293138Y-134282730D01*
X109248167Y-134170034D01*
X108975373Y-134170034D01*
X108702578Y-134170034D01*
X108655611Y-134282730D01*
X108608644Y-134395426D01*
X108474503Y-134400495D01*
X108402894Y-134401725D01*
X108359144Y-134398161D01*
X108336649Y-134388864D01*
X108330570Y-134380048D01*
X108334490Y-134359517D01*
X108349066Y-134310864D01*
X108372734Y-134238422D01*
X108403931Y-134146521D01*
X108441093Y-134039491D01*
X108482657Y-133921665D01*
X108489933Y-133901297D01*
X108778997Y-133901297D01*
X108973741Y-133901297D01*
X109168486Y-133901297D01*
X109083644Y-133662901D01*
X109052850Y-133576376D01*
X109025814Y-133500416D01*
X109004856Y-133441543D01*
X108992301Y-133406282D01*
X108990187Y-133400351D01*
X108977449Y-133384272D01*
X108971747Y-133386022D01*
X108962741Y-133404941D01*
X108944353Y-133450674D01*
X108918838Y-133517370D01*
X108888455Y-133599180D01*
X108870460Y-133648572D01*
X108778997Y-133901297D01*
X108489933Y-133901297D01*
X108527059Y-133797371D01*
X108572736Y-133670941D01*
X108618123Y-133546707D01*
X108661659Y-133428998D01*
X108701778Y-133322145D01*
X108736918Y-133230480D01*
X108765514Y-133158333D01*
X108786004Y-133110035D01*
X108796047Y-133090751D01*
X108823797Y-133078602D01*
X108884304Y-133071410D01*
X108976817Y-133069078D01*
X109140379Y-133069078D01*
X109172633Y-133142764D01*
G37*
%TD.AperFunction*%
%TA.AperFunction,EtchedComponent*%
G36*
X110953012Y-133072585D02*
G01*
X111071603Y-133077747D01*
X111076437Y-133701911D01*
X111077296Y-133847164D01*
X111077589Y-133982603D01*
X111077345Y-134104032D01*
X111076595Y-134207254D01*
X111075367Y-134288070D01*
X111073691Y-134342284D01*
X111071772Y-134365085D01*
X111064104Y-134385179D01*
X111048026Y-134396872D01*
X111015632Y-134402409D01*
X110959017Y-134404034D01*
X110934425Y-134404095D01*
X110864655Y-134402446D01*
X110822544Y-134396586D01*
X110801192Y-134385147D01*
X110796052Y-134376671D01*
X110792933Y-134351812D01*
X110790150Y-134297761D01*
X110787849Y-134220001D01*
X110786179Y-134124017D01*
X110785288Y-134015290D01*
X110785186Y-133973565D01*
X110784844Y-133597884D01*
X110663540Y-133823276D01*
X110618528Y-133904794D01*
X110576930Y-133976262D01*
X110542453Y-134031589D01*
X110518801Y-134064687D01*
X110513196Y-134070341D01*
X110475584Y-134085776D01*
X110427670Y-134092013D01*
X110398406Y-134088785D01*
X110371390Y-134076491D01*
X110343499Y-134051218D01*
X110311611Y-134009052D01*
X110272605Y-133946080D01*
X110223357Y-133858388D01*
X110185621Y-133788600D01*
X110083344Y-133597884D01*
X110074675Y-133996655D01*
X110066006Y-134395426D01*
X109940055Y-134400526D01*
X109867395Y-134401318D01*
X109824265Y-134396083D01*
X109805943Y-134384210D01*
X109805469Y-134383119D01*
X109803625Y-134361173D01*
X109802158Y-134308550D01*
X109801094Y-134229245D01*
X109800455Y-134127257D01*
X109800267Y-134006580D01*
X109800555Y-133871212D01*
X109801343Y-133725148D01*
X109801385Y-133719180D01*
X109805938Y-133077747D01*
X109935200Y-133077747D01*
X110064463Y-133077747D01*
X110183785Y-133294471D01*
X110233843Y-133385385D01*
X110284551Y-133477470D01*
X110330326Y-133560588D01*
X110365589Y-133624606D01*
X110368654Y-133630170D01*
X110434200Y-133749145D01*
X110611653Y-133427088D01*
X110665558Y-133330274D01*
X110715042Y-133243310D01*
X110757293Y-133170987D01*
X110789497Y-133118095D01*
X110808842Y-133089426D01*
X110811763Y-133086227D01*
X110840766Y-133076982D01*
X110894046Y-133072241D01*
X110953012Y-133072585D01*
G37*
%TD.AperFunction*%
%TA.AperFunction,EtchedComponent*%
G36*
X106239094Y-127482538D02*
G01*
X106277468Y-127524752D01*
X106301053Y-127591058D01*
X106316157Y-127621679D01*
X106347583Y-127666799D01*
X106388949Y-127718973D01*
X106433873Y-127770757D01*
X106475971Y-127814705D01*
X106508862Y-127843374D01*
X106523377Y-127850375D01*
X106543599Y-127840995D01*
X106586006Y-127815424D01*
X106644486Y-127777513D01*
X106712928Y-127731113D01*
X106716304Y-127728777D01*
X106891833Y-127607178D01*
X107009534Y-127723977D01*
X107065922Y-127781666D01*
X107101111Y-127823412D01*
X107119802Y-127856324D01*
X107126698Y-127887514D01*
X107127208Y-127901924D01*
X107127181Y-127963071D01*
X107378607Y-127957846D01*
X107630033Y-127952621D01*
X107630033Y-128221804D01*
X107630033Y-128490986D01*
X107579119Y-128517315D01*
X107541015Y-128540079D01*
X107518737Y-128559002D01*
X107518334Y-128559616D01*
X107525213Y-128578284D01*
X107552118Y-128614158D01*
X107593875Y-128660624D01*
X107611167Y-128678291D01*
X107678392Y-128753097D01*
X107721277Y-128823202D01*
X107743325Y-128898827D01*
X107748038Y-128990196D01*
X107743361Y-129064027D01*
X107737317Y-129134894D01*
X107732663Y-129198258D01*
X107730358Y-129240974D01*
X107730318Y-129242457D01*
X107745817Y-129305758D01*
X107794136Y-129369994D01*
X107873527Y-129433378D01*
X107971636Y-129488976D01*
X108103881Y-129560443D01*
X108208530Y-129632358D01*
X108292352Y-129709820D01*
X108339058Y-129765805D01*
X108406268Y-129862717D01*
X108453048Y-129951138D01*
X108486117Y-130044144D01*
X108490753Y-130060955D01*
X108499685Y-130108832D01*
X108506660Y-130173296D01*
X108511469Y-130246380D01*
X108513903Y-130320115D01*
X108513752Y-130386532D01*
X108510806Y-130437662D01*
X108504856Y-130465538D01*
X108501469Y-130468396D01*
X108485165Y-130456557D01*
X108450360Y-130424356D01*
X108402227Y-130376764D01*
X108348104Y-130321024D01*
X108272885Y-130245677D01*
X108216675Y-130197472D01*
X108178241Y-130175399D01*
X108168162Y-130173652D01*
X108139519Y-130179891D01*
X108136272Y-130205110D01*
X108137857Y-130212662D01*
X108164006Y-130329068D01*
X108182145Y-130421066D01*
X108193584Y-130497648D01*
X108199632Y-130567806D01*
X108201600Y-130640532D01*
X108201624Y-130650443D01*
X108201667Y-130806484D01*
X108141682Y-130737133D01*
X108103772Y-130697218D01*
X108080011Y-130683257D01*
X108066416Y-130690772D01*
X108060307Y-130711575D01*
X108064944Y-130744222D01*
X108081928Y-130793493D01*
X108112857Y-130864168D01*
X108151574Y-130945188D01*
X108179809Y-131005790D01*
X108197321Y-131054743D01*
X108206641Y-131104298D01*
X108210300Y-131166705D01*
X108210852Y-131232162D01*
X108209943Y-131312320D01*
X108205412Y-131370250D01*
X108194551Y-131418387D01*
X108174654Y-131469167D01*
X108146428Y-131528125D01*
X108093724Y-131621222D01*
X108033716Y-131696184D01*
X107978753Y-131748283D01*
X107929297Y-131790440D01*
X107890414Y-131821980D01*
X107868950Y-131837398D01*
X107867119Y-131838089D01*
X107854930Y-131824229D01*
X107831519Y-131788121D01*
X107805681Y-131744081D01*
X107770268Y-131690969D01*
X107726488Y-131638540D01*
X107681877Y-131594501D01*
X107643974Y-131566561D01*
X107626342Y-131560682D01*
X107620981Y-131576590D01*
X107615068Y-131618674D01*
X107609737Y-131678476D01*
X107608905Y-131690793D01*
X107582510Y-131838296D01*
X107524441Y-131978936D01*
X107437681Y-132107034D01*
X107337999Y-132206519D01*
X107299482Y-132235914D01*
X107271412Y-132252693D01*
X107265952Y-132254198D01*
X107251552Y-132239437D01*
X107234570Y-132202954D01*
X107231116Y-132193075D01*
X107209411Y-132145038D01*
X107178217Y-132095547D01*
X107144774Y-132054291D01*
X107116323Y-132030958D01*
X107108355Y-132028805D01*
X107099912Y-132044530D01*
X107094180Y-132085296D01*
X107092559Y-132129686D01*
X107088882Y-132189542D01*
X107079234Y-132255717D01*
X107065687Y-132319375D01*
X107050315Y-132371680D01*
X107035190Y-132403794D01*
X107026870Y-132409691D01*
X107011673Y-132395793D01*
X106986060Y-132360758D01*
X106967467Y-132331576D01*
X106920883Y-132269491D01*
X106873921Y-132233014D01*
X106831070Y-132224840D01*
X106807857Y-132235720D01*
X106785672Y-132261918D01*
X106754990Y-132307504D01*
X106730863Y-132347975D01*
X106662617Y-132443477D01*
X106572353Y-132532986D01*
X106468233Y-132610800D01*
X106358416Y-132671217D01*
X106251065Y-132708533D01*
X106203443Y-132716503D01*
X106153653Y-132719133D01*
X106110545Y-132713851D01*
X106062626Y-132697716D01*
X105998404Y-132667787D01*
X105982934Y-132660058D01*
X105871403Y-132593404D01*
X105771275Y-132513309D01*
X105688856Y-132426002D01*
X105670247Y-132397871D01*
X105916377Y-132397871D01*
X105920596Y-132407560D01*
X105938053Y-132426173D01*
X105948090Y-132422355D01*
X105948258Y-132419931D01*
X105935944Y-132405266D01*
X105928242Y-132399914D01*
X105916377Y-132397871D01*
X105670247Y-132397871D01*
X105661225Y-132384232D01*
X105844231Y-132384232D01*
X105852900Y-132392901D01*
X105861569Y-132384232D01*
X105852900Y-132375563D01*
X105844231Y-132384232D01*
X105661225Y-132384232D01*
X105630450Y-132337710D01*
X105611572Y-132293208D01*
X105598828Y-132262867D01*
X105670852Y-132262867D01*
X105679521Y-132271536D01*
X105688190Y-132262867D01*
X105679521Y-132254198D01*
X105670852Y-132262867D01*
X105598828Y-132262867D01*
X105586353Y-132233168D01*
X105581374Y-132228191D01*
X105653514Y-132228191D01*
X105662183Y-132236860D01*
X105667463Y-132231580D01*
X105844231Y-132231580D01*
X105850969Y-132264716D01*
X105868968Y-132268713D01*
X105872578Y-132265536D01*
X106024634Y-132265536D01*
X106024937Y-132339647D01*
X106051449Y-132403978D01*
X106099870Y-132449163D01*
X106111601Y-132454989D01*
X106157010Y-132473055D01*
X106188838Y-132476476D01*
X106224654Y-132464923D01*
X106251786Y-132452367D01*
X106306720Y-132410977D01*
X106336966Y-132356158D01*
X106344477Y-132295232D01*
X106331209Y-132235522D01*
X106299116Y-132184349D01*
X106250153Y-132149035D01*
X106186274Y-132136903D01*
X106167971Y-132138381D01*
X106094331Y-132160979D01*
X106046445Y-132206392D01*
X106024634Y-132265536D01*
X105872578Y-132265536D01*
X105894905Y-132245888D01*
X105925456Y-132198562D01*
X105943215Y-132162502D01*
X105968251Y-132100877D01*
X105976197Y-132062694D01*
X105969127Y-132042738D01*
X105943794Y-132036700D01*
X105914103Y-132056966D01*
X105884790Y-132096376D01*
X105860589Y-132147772D01*
X105846236Y-132203994D01*
X105844231Y-132231580D01*
X105667463Y-132231580D01*
X105670852Y-132228191D01*
X105662183Y-132219522D01*
X105653514Y-132228191D01*
X105581374Y-132228191D01*
X105558731Y-132205558D01*
X105524151Y-132208199D01*
X105485487Y-132232911D01*
X105454169Y-132266085D01*
X105418951Y-132315289D01*
X105404769Y-132338858D01*
X105362045Y-132414850D01*
X105331786Y-132356334D01*
X105314629Y-132307892D01*
X105300373Y-132240617D01*
X105293075Y-132179703D01*
X105290962Y-132150170D01*
X105636176Y-132150170D01*
X105642520Y-132164441D01*
X105647735Y-132161729D01*
X105649810Y-132141153D01*
X105647735Y-132138612D01*
X105637428Y-132140992D01*
X105636176Y-132150170D01*
X105290962Y-132150170D01*
X105287620Y-132103458D01*
X105428673Y-132103458D01*
X105430315Y-132139623D01*
X105437497Y-132145263D01*
X105454680Y-132125184D01*
X105474630Y-132091192D01*
X105480136Y-132071523D01*
X105487829Y-132054812D01*
X105740204Y-132054812D01*
X105748873Y-132063481D01*
X105757542Y-132054812D01*
X105748873Y-132046143D01*
X105740204Y-132054812D01*
X105487829Y-132054812D01*
X105491911Y-132045946D01*
X105514892Y-132020136D01*
X105757542Y-132020136D01*
X105766211Y-132028805D01*
X105774880Y-132020136D01*
X105766211Y-132011467D01*
X105757542Y-132020136D01*
X105514892Y-132020136D01*
X105515221Y-132019766D01*
X105528531Y-132002798D01*
X105636176Y-132002798D01*
X105644845Y-132011467D01*
X105653514Y-132002798D01*
X105644845Y-131994129D01*
X105636176Y-132002798D01*
X105528531Y-132002798D01*
X105536216Y-131993001D01*
X105779130Y-131993001D01*
X105781502Y-131994129D01*
X105797324Y-131981924D01*
X105800886Y-131976792D01*
X105805304Y-131960583D01*
X105802933Y-131959454D01*
X105787111Y-131971659D01*
X105783549Y-131976792D01*
X105779130Y-131993001D01*
X105536216Y-131993001D01*
X105537983Y-131990748D01*
X105531353Y-131969399D01*
X105508072Y-131966069D01*
X105479780Y-131987067D01*
X105452910Y-132023991D01*
X105433901Y-132068439D01*
X105428673Y-132103458D01*
X105287620Y-132103458D01*
X105284624Y-132061587D01*
X105235409Y-132108739D01*
X105196803Y-132156348D01*
X105168721Y-132209131D01*
X105167110Y-132213713D01*
X105152296Y-132252054D01*
X105140712Y-132271080D01*
X105139492Y-132271536D01*
X105113961Y-132260483D01*
X105071534Y-132231553D01*
X105020134Y-132191088D01*
X104967681Y-132145428D01*
X104922096Y-132100915D01*
X104910441Y-132088162D01*
X104843836Y-131989984D01*
X104967519Y-131989984D01*
X104984561Y-131992761D01*
X105007049Y-131989573D01*
X105007317Y-131983655D01*
X104984112Y-131979516D01*
X104974086Y-131982286D01*
X104967519Y-131989984D01*
X104843836Y-131989984D01*
X104834150Y-131975707D01*
X104831244Y-131968123D01*
X104907985Y-131968123D01*
X104916654Y-131976792D01*
X104925323Y-131968123D01*
X104916654Y-131959454D01*
X104907985Y-131968123D01*
X104831244Y-131968123D01*
X104802403Y-131892864D01*
X104936917Y-131892864D01*
X104940494Y-131944294D01*
X104940661Y-131945291D01*
X104956792Y-131953826D01*
X104990370Y-131955586D01*
X105025367Y-131951449D01*
X105026845Y-131950785D01*
X105653514Y-131950785D01*
X105662183Y-131959454D01*
X105670852Y-131950785D01*
X105662183Y-131942116D01*
X105653514Y-131950785D01*
X105026845Y-131950785D01*
X105045752Y-131942294D01*
X105046688Y-131939477D01*
X105032608Y-131926425D01*
X105020682Y-131924778D01*
X105007843Y-131916109D01*
X105670852Y-131916109D01*
X105679521Y-131924778D01*
X105688190Y-131916109D01*
X106000272Y-131916109D01*
X106008941Y-131924778D01*
X106017610Y-131916109D01*
X106008941Y-131907440D01*
X106000272Y-131916109D01*
X105688190Y-131916109D01*
X105679521Y-131907440D01*
X105670852Y-131916109D01*
X105007843Y-131916109D01*
X104999399Y-131910407D01*
X104996548Y-131898771D01*
X105948258Y-131898771D01*
X105956927Y-131907440D01*
X105965596Y-131898771D01*
X105956927Y-131890102D01*
X105948258Y-131898771D01*
X104996548Y-131898771D01*
X104994675Y-131891125D01*
X104994159Y-131888973D01*
X105692441Y-131888973D01*
X105694813Y-131890102D01*
X105710635Y-131877897D01*
X105714197Y-131872764D01*
X105716560Y-131864095D01*
X105774880Y-131864095D01*
X105783549Y-131872764D01*
X105792217Y-131864095D01*
X106017610Y-131864095D01*
X106026279Y-131872764D01*
X106034948Y-131864095D01*
X106026279Y-131855426D01*
X106017610Y-131864095D01*
X105792217Y-131864095D01*
X105783549Y-131855426D01*
X105774880Y-131864095D01*
X105716560Y-131864095D01*
X105718615Y-131856555D01*
X105716243Y-131855426D01*
X105700421Y-131867632D01*
X105696859Y-131872764D01*
X105692441Y-131888973D01*
X104994159Y-131888973D01*
X104986396Y-131856628D01*
X104967104Y-131846235D01*
X104948686Y-131859952D01*
X104936917Y-131892864D01*
X104802403Y-131892864D01*
X104782465Y-131840837D01*
X104782404Y-131840473D01*
X105081364Y-131840473D01*
X105093329Y-131855629D01*
X105125394Y-131849697D01*
X105171817Y-131824709D01*
X105188908Y-131812082D01*
X105740204Y-131812082D01*
X105748873Y-131820751D01*
X105757542Y-131812082D01*
X105930921Y-131812082D01*
X105939589Y-131820751D01*
X105948258Y-131812082D01*
X105939589Y-131803413D01*
X105930921Y-131812082D01*
X105757542Y-131812082D01*
X105748873Y-131803413D01*
X105740204Y-131812082D01*
X105188908Y-131812082D01*
X105213947Y-131793583D01*
X105250420Y-131760068D01*
X105774880Y-131760068D01*
X105783549Y-131768737D01*
X105792217Y-131760068D01*
X105783549Y-131751399D01*
X105774880Y-131760068D01*
X105250420Y-131760068D01*
X105255517Y-131755384D01*
X105282928Y-131722264D01*
X105289419Y-131706894D01*
X105278834Y-131690717D01*
X107057883Y-131690717D01*
X107066552Y-131699385D01*
X107075221Y-131690717D01*
X107066552Y-131682048D01*
X107057883Y-131690717D01*
X105278834Y-131690717D01*
X105276313Y-131686864D01*
X105245875Y-131683542D01*
X105211424Y-131697421D01*
X105203653Y-131703720D01*
X105187793Y-131716140D01*
X105192913Y-131701980D01*
X105194297Y-131699385D01*
X105201999Y-131681697D01*
X105192432Y-131688644D01*
X105164352Y-131721454D01*
X105134881Y-131758118D01*
X105103847Y-131799992D01*
X105084534Y-131831422D01*
X105081364Y-131840473D01*
X104782404Y-131840473D01*
X104780549Y-131829420D01*
X104838634Y-131829420D01*
X104847303Y-131838089D01*
X104855972Y-131829420D01*
X104847303Y-131820751D01*
X104838634Y-131829420D01*
X104780549Y-131829420D01*
X104778932Y-131819783D01*
X104967636Y-131819783D01*
X104972029Y-131827001D01*
X104997197Y-131837548D01*
X105011509Y-131818991D01*
X105012013Y-131812082D01*
X105003194Y-131789001D01*
X104995698Y-131786075D01*
X104973058Y-131797547D01*
X104967636Y-131819783D01*
X104778932Y-131819783D01*
X104771822Y-131777406D01*
X104821296Y-131777406D01*
X104829965Y-131786075D01*
X104838634Y-131777406D01*
X104829965Y-131768737D01*
X104821296Y-131777406D01*
X104771822Y-131777406D01*
X104768133Y-131755424D01*
X104994675Y-131755424D01*
X105002993Y-131770267D01*
X105024602Y-131759258D01*
X105054479Y-131725991D01*
X105072478Y-131699730D01*
X105088507Y-131673379D01*
X105497473Y-131673379D01*
X105506142Y-131682048D01*
X105514811Y-131673379D01*
X105506142Y-131664710D01*
X105497473Y-131673379D01*
X105088507Y-131673379D01*
X105099053Y-131656041D01*
X105341432Y-131656041D01*
X105350101Y-131664710D01*
X105358770Y-131656041D01*
X105350101Y-131647372D01*
X105341432Y-131656041D01*
X105099053Y-131656041D01*
X105101989Y-131651215D01*
X105113891Y-131624864D01*
X105112667Y-131621365D01*
X105358770Y-131621365D01*
X105367439Y-131630034D01*
X105376108Y-131621365D01*
X105367439Y-131612696D01*
X105358770Y-131621365D01*
X105112667Y-131621365D01*
X105110172Y-131614234D01*
X105099327Y-131612696D01*
X105081281Y-131625805D01*
X105053730Y-131657789D01*
X105024750Y-131697635D01*
X105002418Y-131734330D01*
X104994675Y-131755424D01*
X104768133Y-131755424D01*
X104763094Y-131725392D01*
X104803958Y-131725392D01*
X104812627Y-131734061D01*
X104821296Y-131725392D01*
X104812627Y-131716723D01*
X104803958Y-131725392D01*
X104763094Y-131725392D01*
X104756608Y-131686741D01*
X104756580Y-131686382D01*
X104750025Y-131625411D01*
X104741641Y-131580740D01*
X104740466Y-131578020D01*
X104791342Y-131578020D01*
X104792695Y-131615519D01*
X104796153Y-131625814D01*
X104797522Y-131621365D01*
X104925323Y-131621365D01*
X104933992Y-131630034D01*
X104942661Y-131621365D01*
X104933992Y-131612696D01*
X104925323Y-131621365D01*
X104797522Y-131621365D01*
X104798856Y-131617031D01*
X104799594Y-131604027D01*
X105272081Y-131604027D01*
X105280750Y-131612696D01*
X105289419Y-131604027D01*
X105280750Y-131595358D01*
X105272081Y-131604027D01*
X104799594Y-131604027D01*
X104801564Y-131569351D01*
X105376108Y-131569351D01*
X105384777Y-131578020D01*
X105393446Y-131569351D01*
X105384777Y-131560682D01*
X105376108Y-131569351D01*
X104801564Y-131569351D01*
X104801725Y-131566508D01*
X104798856Y-131539010D01*
X104794568Y-131530794D01*
X104791848Y-131552577D01*
X104791342Y-131578020D01*
X104740466Y-131578020D01*
X104733105Y-131560974D01*
X104732068Y-131560682D01*
X104714758Y-131573918D01*
X104684683Y-131608228D01*
X104647823Y-131655513D01*
X104610159Y-131707676D01*
X104577672Y-131756619D01*
X104556343Y-131794243D01*
X104552380Y-131803976D01*
X104538983Y-131829707D01*
X104518182Y-131834354D01*
X104484996Y-131816415D01*
X104434448Y-131774388D01*
X104424464Y-131765370D01*
X104309019Y-131641141D01*
X104307505Y-131638703D01*
X104405187Y-131638703D01*
X104413856Y-131647372D01*
X104422525Y-131638703D01*
X104413856Y-131630034D01*
X104405187Y-131638703D01*
X104307505Y-131638703D01*
X104275197Y-131586689D01*
X104370511Y-131586689D01*
X104379180Y-131595358D01*
X104387849Y-131586689D01*
X104379180Y-131578020D01*
X104370511Y-131586689D01*
X104275197Y-131586689D01*
X104227176Y-131509377D01*
X104179108Y-131370804D01*
X104170245Y-131279990D01*
X104294300Y-131279990D01*
X104296647Y-131367363D01*
X104304599Y-131441536D01*
X104316537Y-131487650D01*
X104338250Y-131529617D01*
X104355081Y-131540140D01*
X104367296Y-131518537D01*
X104372479Y-131482662D01*
X105081364Y-131482662D01*
X105095243Y-131505648D01*
X105107371Y-131508669D01*
X105393446Y-131508669D01*
X105399790Y-131522940D01*
X105405005Y-131520227D01*
X105407080Y-131499651D01*
X105405005Y-131497110D01*
X105394697Y-131499490D01*
X105393446Y-131508669D01*
X105107371Y-131508669D01*
X105130357Y-131494790D01*
X105133378Y-131482662D01*
X105254743Y-131482662D01*
X105263412Y-131491331D01*
X105272081Y-131482662D01*
X105263412Y-131473993D01*
X105254743Y-131482662D01*
X105133378Y-131482662D01*
X105119499Y-131459676D01*
X105107371Y-131456655D01*
X105084385Y-131470533D01*
X105081364Y-131482662D01*
X104372479Y-131482662D01*
X104375156Y-131464129D01*
X104378201Y-131393125D01*
X104478685Y-131393125D01*
X104482142Y-131445659D01*
X104491026Y-131471460D01*
X104501640Y-131470008D01*
X104506586Y-131450573D01*
X104506928Y-131447986D01*
X104803958Y-131447986D01*
X104812627Y-131456655D01*
X104821296Y-131447986D01*
X105410784Y-131447986D01*
X105419453Y-131456655D01*
X105428122Y-131447986D01*
X105419453Y-131439317D01*
X105410784Y-131447986D01*
X104821296Y-131447986D01*
X104812627Y-131439317D01*
X104803958Y-131447986D01*
X104506928Y-131447986D01*
X104511516Y-131413310D01*
X104821296Y-131413310D01*
X104829965Y-131421979D01*
X104838634Y-131413310D01*
X104829965Y-131404641D01*
X104821296Y-131413310D01*
X104511516Y-131413310D01*
X104512222Y-131407974D01*
X104513366Y-131395972D01*
X105428122Y-131395972D01*
X105436791Y-131404641D01*
X105445460Y-131395972D01*
X105436791Y-131387304D01*
X105428122Y-131395972D01*
X104513366Y-131395972D01*
X104514192Y-131387304D01*
X104841928Y-131387304D01*
X104854651Y-131378635D01*
X105168054Y-131378635D01*
X105176723Y-131387304D01*
X105185392Y-131378635D01*
X105176723Y-131369966D01*
X105168054Y-131378635D01*
X104854651Y-131378635D01*
X104858650Y-131375910D01*
X104881979Y-131352628D01*
X104882879Y-131351499D01*
X105224318Y-131351499D01*
X105226690Y-131352628D01*
X105242512Y-131340422D01*
X105246074Y-131335290D01*
X105250492Y-131319081D01*
X105248121Y-131317952D01*
X105232298Y-131330158D01*
X105228736Y-131335290D01*
X105224318Y-131351499D01*
X104882879Y-131351499D01*
X104902001Y-131327512D01*
X104904691Y-131317952D01*
X104887969Y-131329346D01*
X104864641Y-131352628D01*
X104844618Y-131377744D01*
X104841928Y-131387304D01*
X104514192Y-131387304D01*
X104515095Y-131377831D01*
X104521247Y-131322155D01*
X104528712Y-131278529D01*
X104531244Y-131269435D01*
X105669275Y-131269435D01*
X105671376Y-131324145D01*
X105676686Y-131383778D01*
X105684531Y-131438549D01*
X105694236Y-131478674D01*
X105695974Y-131483219D01*
X105721067Y-131529037D01*
X105744786Y-131540815D01*
X105768771Y-131519057D01*
X105775421Y-131507657D01*
X105788188Y-131488350D01*
X105801495Y-131488400D01*
X105822541Y-131511255D01*
X105844237Y-131540602D01*
X105886709Y-131594903D01*
X105916660Y-131621168D01*
X105938127Y-131621831D01*
X105951942Y-131605498D01*
X105965369Y-131588915D01*
X105982631Y-131593191D01*
X106013142Y-131620839D01*
X106014495Y-131622191D01*
X106060593Y-131668288D01*
X106070357Y-131627489D01*
X106080122Y-131586689D01*
X106111543Y-131634368D01*
X106150060Y-131673219D01*
X106190869Y-131677529D01*
X106232781Y-131647258D01*
X106239905Y-131638703D01*
X106271366Y-131603882D01*
X106288843Y-131599113D01*
X106294926Y-131623987D01*
X106295016Y-131630034D01*
X106300435Y-131658380D01*
X106318572Y-131659753D01*
X106352243Y-131633505D01*
X106373787Y-131611913D01*
X106406588Y-131580001D01*
X106426007Y-131571261D01*
X106441438Y-131582717D01*
X106446203Y-131588975D01*
X106465759Y-131609724D01*
X106473830Y-131611430D01*
X106486490Y-131593732D01*
X106511021Y-131558587D01*
X106520030Y-131545579D01*
X106560436Y-131487131D01*
X106590242Y-131526645D01*
X106620048Y-131566160D01*
X106650919Y-131519044D01*
X106656029Y-131506222D01*
X107182953Y-131506222D01*
X107190634Y-131527910D01*
X107217118Y-131566681D01*
X107257002Y-131614790D01*
X107264442Y-131623029D01*
X107309513Y-131676647D01*
X107345215Y-131727034D01*
X107364300Y-131763884D01*
X107364863Y-131765830D01*
X107374957Y-131793224D01*
X107382293Y-131786831D01*
X107383193Y-131783048D01*
X107379522Y-131750170D01*
X107362876Y-131703327D01*
X107355414Y-131687690D01*
X107327499Y-131642121D01*
X107291189Y-131594521D01*
X107252503Y-131551222D01*
X107217462Y-131518560D01*
X107192084Y-131502869D01*
X107182953Y-131506222D01*
X106656029Y-131506222D01*
X106663583Y-131487265D01*
X106675689Y-131436352D01*
X106682579Y-131395972D01*
X107855426Y-131395972D01*
X107864095Y-131404641D01*
X107872764Y-131395972D01*
X107864095Y-131387304D01*
X107855426Y-131395972D01*
X106682579Y-131395972D01*
X106686082Y-131375441D01*
X106688860Y-131352628D01*
X107855426Y-131352628D01*
X107861769Y-131366899D01*
X107866984Y-131364186D01*
X107869059Y-131343610D01*
X107866984Y-131341069D01*
X107856677Y-131343449D01*
X107855426Y-131352628D01*
X106688860Y-131352628D01*
X106693604Y-131313671D01*
X106693891Y-131309283D01*
X107838088Y-131309283D01*
X107846757Y-131317952D01*
X107855426Y-131309283D01*
X107846757Y-131300614D01*
X107838088Y-131309283D01*
X106693891Y-131309283D01*
X106697102Y-131260180D01*
X106695417Y-131224105D01*
X106689516Y-131213925D01*
X106669304Y-131220005D01*
X106630166Y-131235097D01*
X106618441Y-131239932D01*
X106533355Y-131262900D01*
X106451700Y-131256282D01*
X106364813Y-131219222D01*
X106355699Y-131213925D01*
X106254155Y-131170184D01*
X106154905Y-131161004D01*
X106057413Y-131186383D01*
X106006149Y-131213925D01*
X105920818Y-131254844D01*
X105839078Y-131264087D01*
X105752481Y-131242500D01*
X105746199Y-131239932D01*
X105704905Y-131223314D01*
X105679798Y-131214403D01*
X105677404Y-131213925D01*
X105671060Y-131229433D01*
X105669275Y-131269435D01*
X104531244Y-131269435D01*
X104532218Y-131265938D01*
X104538122Y-131247472D01*
X105345683Y-131247472D01*
X105348055Y-131248600D01*
X105363877Y-131236395D01*
X105367439Y-131231263D01*
X105371857Y-131215054D01*
X105369486Y-131213925D01*
X105353663Y-131226130D01*
X105350101Y-131231263D01*
X105345683Y-131247472D01*
X104538122Y-131247472D01*
X104542696Y-131233167D01*
X104550472Y-131205256D01*
X105393446Y-131205256D01*
X105402115Y-131213925D01*
X105410784Y-131205256D01*
X105402115Y-131196587D01*
X105393446Y-131205256D01*
X104550472Y-131205256D01*
X104556462Y-131183755D01*
X104559888Y-131170580D01*
X105254743Y-131170580D01*
X105263412Y-131179249D01*
X105272081Y-131170580D01*
X105263412Y-131161911D01*
X105254743Y-131170580D01*
X104559888Y-131170580D01*
X104560314Y-131168940D01*
X104581586Y-131110786D01*
X104604041Y-131066553D01*
X105306757Y-131066553D01*
X105315426Y-131075222D01*
X105324095Y-131066553D01*
X105315426Y-131057884D01*
X105306757Y-131066553D01*
X104604041Y-131066553D01*
X104614179Y-131046582D01*
X104629479Y-131021969D01*
X104660677Y-130971038D01*
X104671349Y-130942964D01*
X104661609Y-130939452D01*
X104631570Y-130962207D01*
X104625831Y-130967511D01*
X104570010Y-131038394D01*
X104524034Y-131132318D01*
X104492541Y-131238045D01*
X104481228Y-131318118D01*
X104478685Y-131393125D01*
X104378201Y-131393125D01*
X104378925Y-131376233D01*
X104379357Y-131325165D01*
X104380733Y-131235546D01*
X104384327Y-131150955D01*
X104387439Y-131109897D01*
X104422525Y-131109897D01*
X104436568Y-131125279D01*
X104448531Y-131127235D01*
X104471604Y-131117873D01*
X104474538Y-131109897D01*
X104460495Y-131094516D01*
X104448531Y-131092560D01*
X104425459Y-131101921D01*
X104422525Y-131109897D01*
X104387439Y-131109897D01*
X104389568Y-131081810D01*
X104393663Y-131051856D01*
X104446147Y-131051856D01*
X104448769Y-131058269D01*
X104463776Y-131054041D01*
X104494714Y-131029856D01*
X104535178Y-130992280D01*
X104578765Y-130947883D01*
X104619074Y-130903232D01*
X104649699Y-130864896D01*
X104664239Y-130839442D01*
X104664651Y-130836826D01*
X104654618Y-130816999D01*
X104624188Y-130822754D01*
X104575605Y-130853411D01*
X104554355Y-130870205D01*
X104509701Y-130915277D01*
X104473317Y-130966747D01*
X104450401Y-131015358D01*
X104446147Y-131051856D01*
X104393663Y-131051856D01*
X104394856Y-131043128D01*
X104402892Y-130996868D01*
X104400544Y-130976101D01*
X104385740Y-130972659D01*
X104377342Y-130974014D01*
X104348425Y-130995305D01*
X104322531Y-131042646D01*
X104320011Y-131049452D01*
X104306070Y-131109955D01*
X104297470Y-131190494D01*
X104294300Y-131279990D01*
X104170245Y-131279990D01*
X104164990Y-131226149D01*
X104184994Y-131076142D01*
X104228864Y-130945188D01*
X104265084Y-130855136D01*
X104293742Y-130774509D01*
X104309980Y-130719795D01*
X104457200Y-130719795D01*
X104465869Y-130728464D01*
X104474538Y-130719795D01*
X104471648Y-130716905D01*
X104532331Y-130716905D01*
X104534711Y-130727213D01*
X104543890Y-130728464D01*
X104558161Y-130722120D01*
X104555448Y-130716905D01*
X104534872Y-130714830D01*
X104532331Y-130716905D01*
X104471648Y-130716905D01*
X104465869Y-130711126D01*
X104457200Y-130719795D01*
X104309980Y-130719795D01*
X104313295Y-130708625D01*
X104315056Y-130699567D01*
X104584345Y-130699567D01*
X104586725Y-130709875D01*
X104595903Y-130711126D01*
X104610175Y-130704782D01*
X104607462Y-130699567D01*
X104586886Y-130697492D01*
X104584345Y-130699567D01*
X104315056Y-130699567D01*
X104322203Y-130662800D01*
X104321758Y-130660026D01*
X104491340Y-130660026D01*
X104499768Y-130651464D01*
X104520410Y-130620413D01*
X104526552Y-130603785D01*
X104540225Y-130590615D01*
X104547357Y-130589761D01*
X104559420Y-130594878D01*
X104547357Y-130610566D01*
X104528483Y-130642170D01*
X104532403Y-130667944D01*
X104552559Y-130676450D01*
X104575545Y-130662572D01*
X104575561Y-130662507D01*
X104665255Y-130662507D01*
X104673597Y-130677580D01*
X104693520Y-130668423D01*
X104717369Y-130639654D01*
X104724851Y-130626538D01*
X104751210Y-130588183D01*
X104778376Y-130565990D01*
X104778409Y-130565978D01*
X104797743Y-130550188D01*
X104797275Y-130540961D01*
X104798345Y-130517121D01*
X104813087Y-130479028D01*
X104814204Y-130476845D01*
X104840013Y-130427097D01*
X104802024Y-130460750D01*
X104773367Y-130491919D01*
X104738654Y-130537374D01*
X104704617Y-130587186D01*
X104677986Y-130631426D01*
X104665494Y-130660163D01*
X104665255Y-130662507D01*
X104575561Y-130662507D01*
X104578566Y-130650443D01*
X104591420Y-130627435D01*
X104602578Y-130624437D01*
X104631411Y-130611265D01*
X104655641Y-130580729D01*
X104667457Y-130546298D01*
X104661225Y-130523314D01*
X104654493Y-130504683D01*
X104675359Y-130491512D01*
X104723237Y-130464287D01*
X104755520Y-130429187D01*
X104760463Y-130410235D01*
X105012013Y-130410235D01*
X105025418Y-130415391D01*
X105057637Y-130408567D01*
X105096678Y-130393701D01*
X105130547Y-130374728D01*
X105137754Y-130368962D01*
X105156026Y-130354789D01*
X105163077Y-130360591D01*
X105161291Y-130392135D01*
X105158009Y-130417992D01*
X105155071Y-130497076D01*
X105169301Y-130577028D01*
X105202973Y-130665555D01*
X105258360Y-130770360D01*
X105265639Y-130782809D01*
X105350101Y-130926202D01*
X105355482Y-130862009D01*
X105366659Y-130816458D01*
X105386021Y-130797806D01*
X105406973Y-130808232D01*
X105420824Y-130840449D01*
X105438530Y-130881652D01*
X105455830Y-130903255D01*
X105470872Y-130910327D01*
X105478137Y-130894860D01*
X105480129Y-130851039D01*
X105480136Y-130846751D01*
X105483196Y-130796253D01*
X105490883Y-130760433D01*
X105494608Y-130753604D01*
X105508423Y-130728811D01*
X105527992Y-130683327D01*
X105540506Y-130650443D01*
X105561176Y-130600535D01*
X105593825Y-130529804D01*
X105633868Y-130447893D01*
X105674249Y-130369139D01*
X105717678Y-130284641D01*
X105745647Y-130224684D01*
X105760158Y-130183846D01*
X105763208Y-130156710D01*
X105758499Y-130140764D01*
X105713351Y-130081229D01*
X105658416Y-130054249D01*
X105636268Y-130052286D01*
X105589361Y-130040956D01*
X105540396Y-130013040D01*
X105535311Y-130008942D01*
X105485116Y-129977832D01*
X105438462Y-129968226D01*
X105568172Y-129968226D01*
X105588219Y-129997394D01*
X105588295Y-129997470D01*
X105619804Y-130012961D01*
X105654331Y-130010889D01*
X105677056Y-129993616D01*
X105679521Y-129982935D01*
X105663397Y-129961469D01*
X105623173Y-129951495D01*
X105579872Y-129952863D01*
X105568172Y-129968226D01*
X105438462Y-129968226D01*
X105423765Y-129965200D01*
X105399612Y-129964183D01*
X105315426Y-129962768D01*
X105375646Y-129936546D01*
X105423992Y-129921859D01*
X105491966Y-129908915D01*
X105562029Y-129900782D01*
X105623130Y-129894025D01*
X105667942Y-129884999D01*
X105687874Y-129875509D01*
X105688190Y-129874282D01*
X105695199Y-129864046D01*
X105713067Y-129878806D01*
X105737055Y-129912585D01*
X105762426Y-129959408D01*
X105771344Y-129979146D01*
X105793389Y-130034379D01*
X105806596Y-130081996D01*
X105809799Y-130128022D01*
X105801834Y-130178483D01*
X105781533Y-130239405D01*
X105747731Y-130316813D01*
X105699263Y-130416733D01*
X105678707Y-130457963D01*
X105629367Y-130557022D01*
X105593472Y-130631440D01*
X105568883Y-130687553D01*
X105553461Y-130731696D01*
X105545070Y-130770206D01*
X105541571Y-130809419D01*
X105540825Y-130855671D01*
X105540818Y-130866597D01*
X105542505Y-130939786D01*
X105549432Y-130990632D01*
X105564401Y-131031380D01*
X105587333Y-131069950D01*
X105653816Y-131140920D01*
X105725106Y-131185787D01*
X105791430Y-131215983D01*
X105840957Y-131228227D01*
X105886272Y-131222985D01*
X105939958Y-131200721D01*
X105952934Y-131194202D01*
X106037480Y-131144798D01*
X106102646Y-131093986D01*
X106143753Y-131046025D01*
X106156313Y-131009088D01*
X106142536Y-130962134D01*
X106106289Y-130906621D01*
X106055194Y-130851212D01*
X105996877Y-130804574D01*
X105956612Y-130782124D01*
X105882661Y-130734786D01*
X105830092Y-130671578D01*
X105801390Y-130599482D01*
X105799038Y-130525481D01*
X105825519Y-130456558D01*
X105835766Y-130442389D01*
X105855177Y-130418896D01*
X105855630Y-130423449D01*
X105845188Y-130445584D01*
X105831331Y-130495186D01*
X105827864Y-130554121D01*
X105835076Y-130605295D01*
X105842196Y-130621737D01*
X105857870Y-130634678D01*
X105884536Y-130629569D01*
X105913136Y-130615999D01*
X105954241Y-130599450D01*
X105997827Y-130595286D01*
X106058472Y-130602341D01*
X106066705Y-130603734D01*
X106177820Y-130611812D01*
X106281682Y-130604221D01*
X106348766Y-130596552D01*
X106393639Y-130596980D01*
X106428034Y-130606525D01*
X106451898Y-130619023D01*
X106488728Y-130638097D01*
X106508839Y-130637968D01*
X106520876Y-130624273D01*
X106536174Y-130571892D01*
X106531296Y-130504191D01*
X106507234Y-130433320D01*
X106504940Y-130428717D01*
X106487453Y-130389355D01*
X106482346Y-130366606D01*
X106484409Y-130364368D01*
X106502894Y-130379140D01*
X106526135Y-130416124D01*
X106548903Y-130464329D01*
X106565969Y-130512762D01*
X106572137Y-130548777D01*
X106556082Y-130623048D01*
X106513526Y-130695131D01*
X106451642Y-130754567D01*
X106416310Y-130775968D01*
X106341452Y-130822640D01*
X106279757Y-130878917D01*
X106235388Y-130938834D01*
X106212512Y-130996427D01*
X106215293Y-131045730D01*
X106220593Y-131056233D01*
X106242842Y-131078958D01*
X106285619Y-131113530D01*
X106340288Y-131153038D01*
X106348845Y-131158871D01*
X106409708Y-131198026D01*
X106453414Y-131219548D01*
X106490068Y-131227231D01*
X106525983Y-131225372D01*
X106599989Y-131202463D01*
X107815951Y-131202463D01*
X107820604Y-131225889D01*
X107826716Y-131239796D01*
X107846985Y-131273550D01*
X107861640Y-131281724D01*
X107865333Y-131262429D01*
X107863887Y-131252935D01*
X107858150Y-131219865D01*
X107856752Y-131209590D01*
X107841411Y-131197797D01*
X107831050Y-131196587D01*
X107815951Y-131202463D01*
X106599989Y-131202463D01*
X106609819Y-131199420D01*
X106674765Y-131157690D01*
X107803845Y-131157690D01*
X107817868Y-131172335D01*
X107827766Y-131173470D01*
X107844545Y-131161359D01*
X107843287Y-131150452D01*
X107826856Y-131135187D01*
X107818933Y-131137027D01*
X107803845Y-131157690D01*
X106674765Y-131157690D01*
X106690199Y-131147773D01*
X106755349Y-131078400D01*
X106765338Y-131063385D01*
X106788069Y-131019928D01*
X106800671Y-130973484D01*
X106805158Y-130918591D01*
X107676761Y-130918591D01*
X107682709Y-130927850D01*
X107706188Y-130957915D01*
X107718461Y-130971194D01*
X107735256Y-130993337D01*
X107755106Y-131028611D01*
X107770118Y-131061858D01*
X107773383Y-131076666D01*
X107784656Y-131085763D01*
X107794980Y-131086780D01*
X107808417Y-131081226D01*
X107802419Y-131059588D01*
X107789819Y-131036878D01*
X107756260Y-130990727D01*
X107713549Y-130944444D01*
X107708853Y-130940075D01*
X107682228Y-130917930D01*
X107676761Y-130918591D01*
X106805158Y-130918591D01*
X106805724Y-130911672D01*
X106806222Y-130867167D01*
X106805522Y-130819614D01*
X106802284Y-130779086D01*
X106794480Y-130739287D01*
X106780081Y-130693920D01*
X106757059Y-130636692D01*
X106723386Y-130561306D01*
X106677033Y-130461467D01*
X106672166Y-130451058D01*
X106538371Y-130164983D01*
X106560694Y-130058723D01*
X106581439Y-129982114D01*
X106583555Y-129976951D01*
X106662729Y-129976951D01*
X106667781Y-130000273D01*
X106692530Y-130016558D01*
X106733542Y-130006370D01*
X106746941Y-129999663D01*
X106776640Y-129975791D01*
X106773194Y-129957231D01*
X106738120Y-129948456D01*
X106729486Y-129948259D01*
X106683466Y-129956130D01*
X106662729Y-129976951D01*
X106583555Y-129976951D01*
X106607280Y-129919071D01*
X106634721Y-129876570D01*
X106659511Y-129861570D01*
X106675960Y-129874776D01*
X106676450Y-129878908D01*
X106692012Y-129888941D01*
X106731672Y-129895201D01*
X106760247Y-129896246D01*
X106827734Y-129899490D01*
X106896843Y-129908071D01*
X106959512Y-129920263D01*
X107007680Y-129934340D01*
X107033284Y-129948574D01*
X107035141Y-129955109D01*
X107015479Y-129966200D01*
X106972750Y-129973116D01*
X106943358Y-129974266D01*
X106871499Y-129981683D01*
X106817185Y-130006711D01*
X106808327Y-130013276D01*
X106763743Y-130039804D01*
X106721927Y-130052170D01*
X106718694Y-130052286D01*
X106667796Y-130068510D01*
X106624910Y-130112723D01*
X106606447Y-130149356D01*
X106603554Y-130170087D01*
X106609337Y-130200447D01*
X106625599Y-130245019D01*
X106654141Y-130308384D01*
X106696765Y-130395123D01*
X106724930Y-130450667D01*
X106858497Y-130712303D01*
X106888384Y-130646698D01*
X106907728Y-130596075D01*
X106918165Y-130552940D01*
X106918725Y-130545549D01*
X106926424Y-130508399D01*
X106935359Y-130493536D01*
X106947347Y-130466529D01*
X106956084Y-130421167D01*
X106957032Y-130411685D01*
X106966128Y-130361720D01*
X106980467Y-130344522D01*
X106997296Y-130360738D01*
X107010924Y-130399044D01*
X107022802Y-130501878D01*
X107010344Y-130611988D01*
X106976405Y-130717486D01*
X106923840Y-130806480D01*
X106908925Y-130823896D01*
X106880783Y-130862334D01*
X106867968Y-130895844D01*
X106867888Y-130898402D01*
X106875799Y-130907956D01*
X106899654Y-130890642D01*
X106928739Y-130859749D01*
X106964359Y-130821014D01*
X106985664Y-130805470D01*
X107000621Y-130809743D01*
X107012665Y-130824192D01*
X107027181Y-130839887D01*
X107040464Y-130837512D01*
X107058018Y-130812494D01*
X107074632Y-130780874D01*
X107600342Y-130780874D01*
X107617236Y-130804570D01*
X107647371Y-130829296D01*
X107734885Y-130903771D01*
X107810474Y-130984417D01*
X107865352Y-131061634D01*
X107873159Y-131075997D01*
X107902229Y-131123460D01*
X107925215Y-131142830D01*
X107939212Y-131132713D01*
X107942115Y-131109036D01*
X107928691Y-131049416D01*
X107892581Y-130979180D01*
X107840029Y-130906828D01*
X107777280Y-130840861D01*
X107750505Y-130820357D01*
X107896457Y-130820357D01*
X107900226Y-130837975D01*
X107917363Y-130875570D01*
X107932601Y-130904164D01*
X107990386Y-131040883D01*
X108020740Y-131190713D01*
X108022384Y-131332366D01*
X108018120Y-131400876D01*
X108019881Y-131439613D01*
X108028032Y-131453017D01*
X108032296Y-131452602D01*
X108051388Y-131432496D01*
X108067700Y-131394843D01*
X108079824Y-131321567D01*
X108082122Y-131230391D01*
X108075121Y-131136509D01*
X108059345Y-131055115D01*
X108055524Y-131042691D01*
X108036081Y-130998560D01*
X108006600Y-130947214D01*
X107972479Y-130896198D01*
X107939116Y-130853056D01*
X107911908Y-130825333D01*
X107896457Y-130820357D01*
X107750505Y-130820357D01*
X107710577Y-130789780D01*
X107705267Y-130786597D01*
X107660746Y-130763140D01*
X107924777Y-130763140D01*
X107931121Y-130777411D01*
X107936336Y-130774698D01*
X107938411Y-130754122D01*
X107936336Y-130751581D01*
X107926028Y-130753961D01*
X107924777Y-130763140D01*
X107660746Y-130763140D01*
X107655659Y-130760460D01*
X107625400Y-130753383D01*
X107607213Y-130762380D01*
X107600342Y-130780874D01*
X107074632Y-130780874D01*
X107082275Y-130766327D01*
X107123811Y-130669672D01*
X107153382Y-130570756D01*
X107166737Y-130494403D01*
X107751398Y-130494403D01*
X107760067Y-130503071D01*
X107768736Y-130494403D01*
X107760067Y-130485734D01*
X107751398Y-130494403D01*
X107166737Y-130494403D01*
X107169725Y-130477317D01*
X107171334Y-130407713D01*
X107248600Y-130407713D01*
X107257269Y-130416382D01*
X107265938Y-130407713D01*
X107317951Y-130407713D01*
X107326620Y-130416382D01*
X107335289Y-130407713D01*
X107326620Y-130399044D01*
X107317951Y-130407713D01*
X107265938Y-130407713D01*
X107257269Y-130399044D01*
X107248600Y-130407713D01*
X107171334Y-130407713D01*
X107171580Y-130397092D01*
X107161877Y-130355699D01*
X108098156Y-130355699D01*
X108106825Y-130364368D01*
X108115494Y-130355699D01*
X108106825Y-130347031D01*
X108098156Y-130355699D01*
X107161877Y-130355699D01*
X107157686Y-130337820D01*
X107153398Y-130329947D01*
X107156618Y-130316711D01*
X107188206Y-130316333D01*
X107244431Y-130328553D01*
X107278724Y-130338706D01*
X107304737Y-130344347D01*
X107309680Y-130332086D01*
X107300501Y-130301317D01*
X107289566Y-130260956D01*
X107275773Y-130198271D01*
X107269363Y-130164983D01*
X107994129Y-130164983D01*
X108002798Y-130173652D01*
X108011467Y-130164983D01*
X108002798Y-130156314D01*
X107994129Y-130164983D01*
X107269363Y-130164983D01*
X107261699Y-130125186D01*
X107258472Y-130106880D01*
X107245289Y-130043618D01*
X107855426Y-130043618D01*
X107864095Y-130052286D01*
X107872764Y-130043618D01*
X107864095Y-130034949D01*
X107855426Y-130043618D01*
X107245289Y-130043618D01*
X107243777Y-130036360D01*
X107236214Y-130009784D01*
X107775945Y-130009784D01*
X107777528Y-130017809D01*
X107796072Y-130032182D01*
X107815945Y-130034594D01*
X107820750Y-130028135D01*
X107807150Y-130016999D01*
X107793843Y-130010995D01*
X107775945Y-130009784D01*
X107236214Y-130009784D01*
X107231040Y-129991604D01*
X107716723Y-129991604D01*
X107725392Y-130000273D01*
X107734060Y-129991604D01*
X107725392Y-129982935D01*
X107716723Y-129991604D01*
X107231040Y-129991604D01*
X107226784Y-129976651D01*
X107210551Y-129938011D01*
X107206354Y-129932136D01*
X107182575Y-129899284D01*
X107188027Y-129883678D01*
X107223870Y-129883742D01*
X107239931Y-129886433D01*
X107284366Y-129892039D01*
X107297798Y-129883882D01*
X107281988Y-129858560D01*
X107264398Y-129839172D01*
X107239040Y-129804985D01*
X107205862Y-129750450D01*
X107171584Y-129686701D01*
X107167994Y-129679522D01*
X107118561Y-129591644D01*
X107065627Y-129517629D01*
X107014304Y-129463761D01*
X106970275Y-129436500D01*
X106941255Y-129438326D01*
X106890270Y-129451417D01*
X106827118Y-129473134D01*
X106810972Y-129479443D01*
X106717524Y-129514130D01*
X106626936Y-129541050D01*
X106528357Y-129562810D01*
X106410939Y-129582016D01*
X106347957Y-129590665D01*
X106199658Y-129610170D01*
X106189258Y-129688191D01*
X106182864Y-129724712D01*
X106177806Y-129733328D01*
X106176018Y-129722867D01*
X106171498Y-129672919D01*
X106161529Y-129639631D01*
X106139748Y-129618501D01*
X106099790Y-129605030D01*
X106035291Y-129594718D01*
X105986209Y-129588661D01*
X105888273Y-129573522D01*
X105779806Y-129551569D01*
X105681074Y-129527002D01*
X105662183Y-129521516D01*
X105588875Y-129500851D01*
X105524104Y-129485080D01*
X105477793Y-129476516D01*
X105465289Y-129475636D01*
X105421257Y-129491911D01*
X105362313Y-129538346D01*
X105289248Y-129614186D01*
X105202856Y-129718675D01*
X105182825Y-129744539D01*
X105133175Y-129813074D01*
X105107908Y-129857781D01*
X105106943Y-129879407D01*
X105130198Y-129878697D01*
X105170106Y-129860471D01*
X105190881Y-129850478D01*
X105195619Y-129855528D01*
X105184489Y-129881842D01*
X105171407Y-129908150D01*
X105150682Y-129958696D01*
X105127868Y-130028374D01*
X105107813Y-130102341D01*
X105107345Y-130104300D01*
X105087215Y-130181691D01*
X105064390Y-130258629D01*
X105044222Y-130317331D01*
X105025867Y-130366407D01*
X105014203Y-130401009D01*
X105012013Y-130410235D01*
X104760463Y-130410235D01*
X104764366Y-130395273D01*
X104763003Y-130390375D01*
X104803958Y-130390375D01*
X104812627Y-130399044D01*
X104821296Y-130390375D01*
X104812627Y-130381706D01*
X104803958Y-130390375D01*
X104763003Y-130390375D01*
X104762978Y-130390285D01*
X104743168Y-130375546D01*
X104708824Y-130385078D01*
X104664962Y-130414510D01*
X104616598Y-130459473D01*
X104568749Y-130515598D01*
X104526431Y-130578516D01*
X104508543Y-130611915D01*
X104492093Y-130649174D01*
X104491340Y-130660026D01*
X104321758Y-130660026D01*
X104318925Y-130642352D01*
X104316775Y-130641775D01*
X104291224Y-130654789D01*
X104254371Y-130688479D01*
X104214360Y-130734809D01*
X104193707Y-130763140D01*
X104180115Y-130781612D01*
X104171474Y-130785396D01*
X104166606Y-130769765D01*
X104164334Y-130729990D01*
X104163483Y-130661342D01*
X104163366Y-130641218D01*
X104166391Y-130540742D01*
X104169356Y-130511249D01*
X104219646Y-130511249D01*
X104222074Y-130551599D01*
X104224697Y-130557606D01*
X104239884Y-130564357D01*
X104255475Y-130537959D01*
X104270693Y-130479918D01*
X104274170Y-130461638D01*
X104287344Y-130414404D01*
X104309517Y-130358269D01*
X104310742Y-130355699D01*
X104769282Y-130355699D01*
X104777951Y-130364368D01*
X104786620Y-130355699D01*
X104777951Y-130347031D01*
X104769282Y-130355699D01*
X104310742Y-130355699D01*
X104319003Y-130338362D01*
X104803958Y-130338362D01*
X104812627Y-130347031D01*
X104821296Y-130338362D01*
X104812627Y-130329693D01*
X104803958Y-130338362D01*
X104319003Y-130338362D01*
X104327264Y-130321024D01*
X104855972Y-130321024D01*
X104864641Y-130329693D01*
X104873310Y-130321024D01*
X104864641Y-130312355D01*
X104855972Y-130321024D01*
X104327264Y-130321024D01*
X104335525Y-130303686D01*
X104907985Y-130303686D01*
X104916654Y-130312355D01*
X104925323Y-130303686D01*
X104916654Y-130295017D01*
X104907985Y-130303686D01*
X104335525Y-130303686D01*
X104336084Y-130302512D01*
X104362441Y-130256413D01*
X104383983Y-130229251D01*
X104391255Y-130225665D01*
X104403557Y-130211539D01*
X104405187Y-130199114D01*
X104419362Y-130171135D01*
X104433537Y-130162093D01*
X104619021Y-130162093D01*
X104621401Y-130172400D01*
X104630579Y-130173652D01*
X104644850Y-130167308D01*
X104642138Y-130162093D01*
X104621562Y-130160018D01*
X104619021Y-130162093D01*
X104433537Y-130162093D01*
X104435146Y-130161067D01*
X104469597Y-130140244D01*
X104500163Y-130113833D01*
X104533817Y-130087635D01*
X104559783Y-130078194D01*
X104586083Y-130066751D01*
X104587077Y-130060955D01*
X104699931Y-130060955D01*
X104708600Y-130069624D01*
X104717269Y-130060955D01*
X104734607Y-130060955D01*
X104743275Y-130069624D01*
X104751944Y-130060955D01*
X104743275Y-130052286D01*
X104734607Y-130060955D01*
X104717269Y-130060955D01*
X104708600Y-130052286D01*
X104699931Y-130060955D01*
X104587077Y-130060955D01*
X104590147Y-130043051D01*
X104570381Y-130024066D01*
X104540612Y-130027885D01*
X104494046Y-130049815D01*
X104439148Y-130084211D01*
X104384381Y-130125431D01*
X104338211Y-130167829D01*
X104317105Y-130192944D01*
X104290885Y-130241033D01*
X104265664Y-130306242D01*
X104243806Y-130379237D01*
X104227679Y-130450684D01*
X104219646Y-130511249D01*
X104169356Y-130511249D01*
X104175677Y-130448387D01*
X104188914Y-130381150D01*
X104214010Y-130284476D01*
X104226788Y-130217055D01*
X104227522Y-130175832D01*
X104216488Y-130157752D01*
X104209138Y-130156314D01*
X104177450Y-130169252D01*
X104126328Y-130206526D01*
X104058529Y-130265823D01*
X103976807Y-130344829D01*
X103940269Y-130382017D01*
X103848116Y-130477065D01*
X103852295Y-130338362D01*
X103898460Y-130338362D01*
X104008864Y-130232646D01*
X104066125Y-130180540D01*
X104121118Y-130135125D01*
X104164232Y-130104210D01*
X104173429Y-130098923D01*
X104217527Y-130080198D01*
X104281565Y-130057790D01*
X104351857Y-130036480D01*
X104353417Y-130036046D01*
X104421950Y-130014782D01*
X104428550Y-130012305D01*
X104598909Y-130012305D01*
X104602492Y-130027110D01*
X104622657Y-130050588D01*
X104651696Y-130040729D01*
X104660433Y-130032836D01*
X104664232Y-130023390D01*
X104775062Y-130023390D01*
X104777442Y-130033697D01*
X104786620Y-130034949D01*
X104800891Y-130028605D01*
X104798179Y-130023390D01*
X104777603Y-130021315D01*
X104775062Y-130023390D01*
X104664232Y-130023390D01*
X104672357Y-130003184D01*
X104661451Y-129975433D01*
X104638416Y-129965597D01*
X104608090Y-129979399D01*
X104598909Y-130012305D01*
X104428550Y-130012305D01*
X104482788Y-129991951D01*
X104523231Y-129972341D01*
X104524405Y-129971587D01*
X104569566Y-129941996D01*
X104513180Y-129918988D01*
X104422014Y-129896862D01*
X104318342Y-129896198D01*
X104266484Y-129904236D01*
X104227684Y-129909958D01*
X104219690Y-129903511D01*
X104223139Y-129899066D01*
X104262716Y-129877655D01*
X104330684Y-129863125D01*
X104421299Y-129856253D01*
X104528444Y-129857796D01*
X104677707Y-129865662D01*
X104723495Y-129805631D01*
X104756873Y-129755319D01*
X104768413Y-129722218D01*
X104757572Y-129709558D01*
X104738941Y-129713557D01*
X104644265Y-129736096D01*
X104539660Y-129731778D01*
X104531454Y-129730464D01*
X104448531Y-129716616D01*
X104578566Y-129702746D01*
X104646598Y-129694359D01*
X104691906Y-129683442D01*
X104726330Y-129664693D01*
X104761713Y-129632810D01*
X104782286Y-129611522D01*
X104821175Y-129567140D01*
X104847638Y-129530119D01*
X104855348Y-129511487D01*
X104845669Y-129508690D01*
X104822167Y-129528921D01*
X104811765Y-129540819D01*
X104782327Y-129572641D01*
X104764272Y-129578997D01*
X104751971Y-129566826D01*
X104741893Y-129534689D01*
X104735735Y-129483247D01*
X104735162Y-129465644D01*
X105001290Y-129465644D01*
X105002023Y-129501047D01*
X105014597Y-129544418D01*
X105039118Y-129603468D01*
X105072552Y-129677712D01*
X105096328Y-129723305D01*
X105113627Y-129743808D01*
X105127632Y-129742780D01*
X105141523Y-129723781D01*
X105143458Y-129720230D01*
X105155726Y-129682835D01*
X105142555Y-129649041D01*
X105140361Y-129645847D01*
X105124842Y-129606594D01*
X105116498Y-129552200D01*
X105116040Y-129537291D01*
X105118638Y-129489655D01*
X105130524Y-129465309D01*
X105157834Y-129453013D01*
X105162745Y-129451737D01*
X105224505Y-129453731D01*
X105260465Y-129469294D01*
X105296930Y-129487717D01*
X105319867Y-129487388D01*
X105343795Y-129469330D01*
X105368405Y-129443171D01*
X105376108Y-129429099D01*
X105361722Y-129411876D01*
X105324989Y-129386459D01*
X105275544Y-129358048D01*
X105223026Y-129331843D01*
X105177070Y-129313045D01*
X105149396Y-129306757D01*
X105086810Y-129322848D01*
X105037750Y-129368356D01*
X105010486Y-129426382D01*
X105001290Y-129465644D01*
X104735162Y-129465644D01*
X104734872Y-129456751D01*
X104735035Y-129454129D01*
X104769282Y-129454129D01*
X104777951Y-129462798D01*
X104786620Y-129454129D01*
X104777951Y-129445461D01*
X104769282Y-129454129D01*
X104735035Y-129454129D01*
X104738409Y-129399745D01*
X104753710Y-129360771D01*
X104787064Y-129323680D01*
X104815774Y-129291480D01*
X104825581Y-129268801D01*
X104823138Y-129264551D01*
X104797066Y-129267819D01*
X104762504Y-129304086D01*
X104719880Y-129372844D01*
X104699101Y-129412429D01*
X104648660Y-129495103D01*
X104595311Y-129546124D01*
X104535323Y-129568504D01*
X104503937Y-129569991D01*
X104454879Y-129573663D01*
X104391385Y-129585313D01*
X104356317Y-129594216D01*
X104306011Y-129612088D01*
X104259821Y-129638192D01*
X104209207Y-129678472D01*
X104145628Y-129738870D01*
X104139105Y-129745369D01*
X104042092Y-129852334D01*
X103973638Y-129953173D01*
X103930207Y-130054881D01*
X103908259Y-130164449D01*
X103904882Y-130208231D01*
X103898460Y-130338362D01*
X103852295Y-130338362D01*
X103854448Y-130266883D01*
X103857817Y-130175491D01*
X103862689Y-130109348D01*
X103870889Y-130059026D01*
X103884245Y-130015100D01*
X103904585Y-129968143D01*
X103917540Y-129941402D01*
X104000767Y-129805056D01*
X104105886Y-129685197D01*
X104226814Y-129587483D01*
X104357466Y-129517569D01*
X104384273Y-129507405D01*
X104473323Y-129466572D01*
X104553733Y-129412535D01*
X104615554Y-129352671D01*
X104638625Y-129318835D01*
X104654638Y-129286638D01*
X104662033Y-129258731D01*
X104660893Y-129224769D01*
X104651305Y-129174409D01*
X104640208Y-129126391D01*
X104624376Y-129051591D01*
X104621061Y-129020987D01*
X104734607Y-129020987D01*
X104744215Y-129112394D01*
X104774553Y-129179023D01*
X104827890Y-129222670D01*
X104906495Y-129245136D01*
X105012637Y-129248219D01*
X105020682Y-129247783D01*
X105089913Y-129242609D01*
X105147986Y-129236226D01*
X105184279Y-129229851D01*
X105188156Y-129228620D01*
X105206781Y-129213730D01*
X105206611Y-129183676D01*
X105201735Y-129164587D01*
X105200182Y-129148651D01*
X105246432Y-129148651D01*
X105255922Y-129190320D01*
X105291005Y-129255512D01*
X105358342Y-129318632D01*
X105455516Y-129378197D01*
X105580110Y-129432727D01*
X105729706Y-129480739D01*
X105729827Y-129480772D01*
X105916984Y-129520294D01*
X106109563Y-129536431D01*
X106315571Y-129529547D01*
X106454711Y-129513716D01*
X106569506Y-129490807D01*
X106695350Y-129454572D01*
X106818906Y-129409572D01*
X106827114Y-129405830D01*
X107075221Y-129405830D01*
X107085289Y-129423488D01*
X107110053Y-129455768D01*
X107115377Y-129462171D01*
X107143282Y-129492815D01*
X107162667Y-129499322D01*
X107187058Y-129484316D01*
X107195318Y-129477677D01*
X107250129Y-129448341D01*
X107298930Y-129451366D01*
X107337555Y-129486220D01*
X107343513Y-129496613D01*
X107363108Y-129540806D01*
X107366877Y-129576969D01*
X107353217Y-129616967D01*
X107320527Y-129672667D01*
X107319531Y-129674239D01*
X107290076Y-129726553D01*
X107281975Y-129758871D01*
X107288322Y-129772992D01*
X107305255Y-129786985D01*
X107320054Y-129786462D01*
X107337890Y-129766846D01*
X107363935Y-129723559D01*
X107382968Y-129689212D01*
X107426343Y-129592247D01*
X107440382Y-129510957D01*
X107425136Y-129442616D01*
X107388636Y-129392113D01*
X107336790Y-129353496D01*
X107279596Y-129341458D01*
X107276291Y-129341433D01*
X107233184Y-129346311D01*
X107180708Y-129358636D01*
X107129679Y-129374944D01*
X107090913Y-129391770D01*
X107075225Y-129405651D01*
X107075221Y-129405830D01*
X106827114Y-129405830D01*
X106926833Y-129360367D01*
X106964490Y-129339427D01*
X107018171Y-129299021D01*
X107491867Y-129299021D01*
X107535691Y-129346285D01*
X107563237Y-129382681D01*
X107574800Y-129411633D01*
X107574539Y-129415223D01*
X107580669Y-129442274D01*
X107602111Y-129482146D01*
X107609115Y-129492447D01*
X107642622Y-129548794D01*
X107670067Y-129609880D01*
X107671298Y-129613356D01*
X107692715Y-129657578D01*
X107724982Y-129684794D01*
X107776500Y-129699662D01*
X107838088Y-129705852D01*
X107898770Y-129709631D01*
X107846757Y-129721588D01*
X107790809Y-129726021D01*
X107745265Y-129720231D01*
X107713293Y-129713312D01*
X107701682Y-129721641D01*
X107704534Y-129753230D01*
X107707828Y-129771108D01*
X107718087Y-129817101D01*
X107727857Y-129847776D01*
X107729305Y-129850564D01*
X107749935Y-129856837D01*
X107795890Y-129859502D01*
X107857963Y-129858112D01*
X107869979Y-129857407D01*
X107963049Y-129855937D01*
X108044675Y-129863109D01*
X108106770Y-129877799D01*
X108137424Y-129894647D01*
X108129106Y-129900096D01*
X108094184Y-129901754D01*
X108048238Y-129899754D01*
X107977540Y-129899399D01*
X107910229Y-129906764D01*
X107880026Y-129914048D01*
X107814262Y-129935752D01*
X107852808Y-129966964D01*
X107890898Y-129989150D01*
X107947786Y-130012953D01*
X107989680Y-130026761D01*
X108129699Y-130078323D01*
X108250184Y-130148406D01*
X108352804Y-130233444D01*
X108400589Y-130277830D01*
X108437939Y-130311304D01*
X108458404Y-130328121D01*
X108460197Y-130329060D01*
X108462351Y-130313505D01*
X108462001Y-130271801D01*
X108459257Y-130212376D01*
X108458553Y-130200998D01*
X108438955Y-130075714D01*
X108394949Y-129960848D01*
X108323125Y-129849105D01*
X108258584Y-129773260D01*
X108163064Y-129681015D01*
X108073818Y-129618944D01*
X107986173Y-129584321D01*
X107918488Y-129574716D01*
X107863220Y-129572116D01*
X107821161Y-129569773D01*
X107808422Y-129568840D01*
X107773317Y-129549806D01*
X107732415Y-129501461D01*
X107688928Y-129427975D01*
X107669961Y-129389095D01*
X107633802Y-129319339D01*
X107601807Y-129279732D01*
X107569608Y-129266814D01*
X107532837Y-129277123D01*
X107530324Y-129278440D01*
X107491867Y-129299021D01*
X107018171Y-129299021D01*
X107044469Y-129279226D01*
X107092140Y-129212437D01*
X107109707Y-129135824D01*
X107109897Y-129126066D01*
X107109859Y-129125623D01*
X107152545Y-129125623D01*
X107153308Y-129181441D01*
X107159919Y-129211669D01*
X107175362Y-129225276D01*
X107186792Y-129228537D01*
X107235060Y-129238699D01*
X107257269Y-129243389D01*
X107326625Y-129251779D01*
X107403598Y-129251679D01*
X107474430Y-129243849D01*
X107525364Y-129229055D01*
X107526573Y-129228444D01*
X107583969Y-129179937D01*
X107619060Y-129107175D01*
X107630033Y-129020987D01*
X107613520Y-128911883D01*
X107566233Y-128813660D01*
X107491553Y-128731205D01*
X107392863Y-128669407D01*
X107384223Y-128665584D01*
X107332614Y-128644320D01*
X107302880Y-128636695D01*
X107285297Y-128642059D01*
X107271400Y-128658039D01*
X107253092Y-128688396D01*
X107255623Y-128709868D01*
X107283268Y-128730068D01*
X107322286Y-128748617D01*
X107395510Y-128789986D01*
X107445738Y-128842751D01*
X107481624Y-128911499D01*
X107497233Y-128954558D01*
X107496714Y-128982116D01*
X107479263Y-129009781D01*
X107476358Y-129013397D01*
X107444800Y-129052370D01*
X107320593Y-129020155D01*
X107245356Y-129003127D01*
X107196848Y-129001505D01*
X107169153Y-129018999D01*
X107156354Y-129059325D01*
X107152545Y-129125623D01*
X107109859Y-129125623D01*
X107108334Y-129107792D01*
X107100299Y-129101082D01*
X107080773Y-129108038D01*
X107044737Y-129130762D01*
X106987172Y-129171354D01*
X106966859Y-129185959D01*
X106779877Y-129300693D01*
X106584937Y-129381909D01*
X106383531Y-129429370D01*
X106177149Y-129442843D01*
X105967283Y-129422094D01*
X105774880Y-129373387D01*
X105580492Y-129294688D01*
X105406069Y-129191099D01*
X105366696Y-129162375D01*
X105305497Y-129119971D01*
X105266274Y-129103241D01*
X105247196Y-129112647D01*
X105246432Y-129148651D01*
X105200182Y-129148651D01*
X105196083Y-129106602D01*
X105204508Y-129078042D01*
X105212678Y-129040235D01*
X105201810Y-129019574D01*
X105173157Y-129000225D01*
X105128575Y-128996872D01*
X105062075Y-129009564D01*
X105021785Y-129021013D01*
X104949948Y-129038527D01*
X104904436Y-129037306D01*
X104881178Y-129015294D01*
X104876099Y-128970436D01*
X104877921Y-128948432D01*
X104900755Y-128868628D01*
X104951113Y-128804855D01*
X105031864Y-128753630D01*
X105042354Y-128748779D01*
X105091255Y-128724574D01*
X105111852Y-128704700D01*
X105108319Y-128681335D01*
X105091821Y-128656100D01*
X105076525Y-128638189D01*
X105059324Y-128632981D01*
X105030577Y-128641235D01*
X104980644Y-128663707D01*
X104977755Y-128665060D01*
X104875425Y-128729422D01*
X104799019Y-128812745D01*
X104751193Y-128911139D01*
X104734607Y-129020713D01*
X104734607Y-129020987D01*
X104621061Y-129020987D01*
X104621031Y-129020713D01*
X104618454Y-128996920D01*
X104621808Y-128949471D01*
X104629681Y-128912254D01*
X104674212Y-128793131D01*
X104742363Y-128687830D01*
X104794626Y-128633488D01*
X104830951Y-128598636D01*
X104852954Y-128571817D01*
X104855972Y-128564488D01*
X104842127Y-128547435D01*
X104807660Y-128523652D01*
X104795289Y-128516671D01*
X104734607Y-128483992D01*
X104734607Y-128219197D01*
X104734607Y-128121147D01*
X104819011Y-128121147D01*
X104819666Y-128188273D01*
X104820161Y-128214471D01*
X104825136Y-128313946D01*
X104836882Y-128384064D01*
X104857313Y-128429804D01*
X104888348Y-128456144D01*
X104916874Y-128465595D01*
X104970477Y-128476713D01*
X105003155Y-128483491D01*
X105039411Y-128505784D01*
X105079352Y-128553810D01*
X105118120Y-128619695D01*
X105150857Y-128695563D01*
X105167402Y-128749674D01*
X105183854Y-128814925D01*
X105200245Y-128878922D01*
X105204215Y-128894201D01*
X105242350Y-128977230D01*
X105310522Y-129059339D01*
X105404131Y-129137985D01*
X105518576Y-129210628D01*
X105649257Y-129274723D01*
X105791572Y-129327729D01*
X105940922Y-129367102D01*
X106092705Y-129390301D01*
X106103654Y-129391284D01*
X106101959Y-129384207D01*
X106075562Y-129363465D01*
X106029658Y-129332958D01*
X106008296Y-129319687D01*
X105916826Y-129254623D01*
X105859609Y-129191944D01*
X105845066Y-129153959D01*
X105991603Y-129153959D01*
X105994765Y-129210353D01*
X106008608Y-129248122D01*
X106039670Y-129283068D01*
X106048225Y-129290842D01*
X106118144Y-129332212D01*
X106195897Y-129340652D01*
X106277145Y-129315700D01*
X106278025Y-129315247D01*
X106327553Y-129279427D01*
X106354781Y-129230377D01*
X106364210Y-129159252D01*
X106364368Y-129145526D01*
X106352776Y-129081365D01*
X106416381Y-129081365D01*
X106430424Y-129096747D01*
X106442388Y-129098703D01*
X106465461Y-129089341D01*
X106468395Y-129081365D01*
X106454352Y-129065983D01*
X106442388Y-129064027D01*
X106419315Y-129073389D01*
X106416381Y-129081365D01*
X106352776Y-129081365D01*
X106350214Y-129067182D01*
X106312166Y-129007599D01*
X106256841Y-128969060D01*
X106190856Y-128953851D01*
X106120829Y-128964258D01*
X106053377Y-129002564D01*
X106026279Y-129028779D01*
X106001233Y-129073251D01*
X105991853Y-129137700D01*
X105991603Y-129153959D01*
X105845066Y-129153959D01*
X105836342Y-129131174D01*
X105846571Y-129072696D01*
X105913583Y-129072696D01*
X105922252Y-129081365D01*
X105930921Y-129072696D01*
X105922252Y-129064027D01*
X105913583Y-129072696D01*
X105846571Y-129072696D01*
X105846721Y-129071836D01*
X105848134Y-129068865D01*
X105873959Y-129033459D01*
X105910790Y-129023866D01*
X105921497Y-129024333D01*
X105976552Y-129013111D01*
X106029706Y-128976654D01*
X106072130Y-128944865D01*
X106114821Y-128929588D01*
X106173973Y-128925351D01*
X106181593Y-128925324D01*
X106245084Y-128929134D01*
X106290536Y-128943981D01*
X106331737Y-128973003D01*
X106389467Y-129008657D01*
X106441006Y-129020682D01*
X106491677Y-129034441D01*
X106521320Y-129071607D01*
X106527016Y-129126014D01*
X106513816Y-129174429D01*
X106483465Y-129217821D01*
X106429634Y-129268038D01*
X106360809Y-129318459D01*
X106285474Y-129362465D01*
X106253137Y-129377792D01*
X106242782Y-129385891D01*
X106260304Y-129387776D01*
X106299631Y-129384296D01*
X106354691Y-129376301D01*
X106419412Y-129364641D01*
X106487723Y-129350165D01*
X106537733Y-129337953D01*
X106663477Y-129296773D01*
X106786968Y-129241098D01*
X106901741Y-129175066D01*
X107001330Y-129102817D01*
X107079269Y-129028493D01*
X107126842Y-128960769D01*
X107148438Y-128908803D01*
X107171076Y-128839399D01*
X107186839Y-128779893D01*
X107223927Y-128653188D01*
X107268600Y-128560277D01*
X107320890Y-128501113D01*
X107380832Y-128475647D01*
X107397453Y-128474539D01*
X107448179Y-128464081D01*
X107492563Y-128428008D01*
X107498458Y-128421195D01*
X107519587Y-128393322D01*
X107532811Y-128364846D01*
X107539958Y-128326884D01*
X107542855Y-128270550D01*
X107543344Y-128203094D01*
X107543344Y-128038337D01*
X107495665Y-128047654D01*
X107453975Y-128054074D01*
X107391674Y-128061737D01*
X107326620Y-128068548D01*
X107221996Y-128084577D01*
X107149433Y-128109941D01*
X107107435Y-128145229D01*
X107100725Y-128157481D01*
X107093901Y-128188969D01*
X107087939Y-128244296D01*
X107083940Y-128312625D01*
X107083465Y-128327167D01*
X107073724Y-128440099D01*
X107052460Y-128538260D01*
X107021630Y-128617065D01*
X106983188Y-128671931D01*
X106939088Y-128698274D01*
X106924480Y-128699932D01*
X106866303Y-128687390D01*
X106830814Y-128649521D01*
X106817888Y-128585956D01*
X106827400Y-128496331D01*
X106838664Y-128448532D01*
X106855025Y-128397532D01*
X106903304Y-128397532D01*
X106915443Y-128419585D01*
X106949521Y-128444055D01*
X106993397Y-128468255D01*
X107016005Y-128471132D01*
X107023119Y-128453068D01*
X107023207Y-128448932D01*
X107009863Y-128421599D01*
X106978857Y-128394888D01*
X106943724Y-128378005D01*
X106919942Y-128378709D01*
X106903304Y-128397532D01*
X106855025Y-128397532D01*
X106866438Y-128361955D01*
X106903109Y-128285937D01*
X106955527Y-128207741D01*
X106995758Y-128156479D01*
X107071807Y-128063110D01*
X106986112Y-127904729D01*
X106949190Y-127839111D01*
X106917028Y-127786755D01*
X106893739Y-127754081D01*
X106884721Y-127746348D01*
X106862914Y-127754571D01*
X106820406Y-127776194D01*
X106766153Y-127806643D01*
X106762887Y-127808553D01*
X106674657Y-127870447D01*
X106618808Y-127936515D01*
X106593239Y-128012162D01*
X106595851Y-128102795D01*
X106615955Y-128186885D01*
X106633329Y-128272497D01*
X106639866Y-128369615D01*
X106635434Y-128463645D01*
X106619903Y-128539996D01*
X106619123Y-128542267D01*
X106579204Y-128607779D01*
X106516114Y-128656597D01*
X106477064Y-128672289D01*
X106458672Y-128674845D01*
X106448234Y-128664716D01*
X106443491Y-128634985D01*
X106442187Y-128578739D01*
X106442143Y-128565356D01*
X106438753Y-128490300D01*
X106426067Y-128431887D01*
X106406563Y-128387835D01*
X106451549Y-128387835D01*
X106461711Y-128410049D01*
X106462616Y-128410967D01*
X106486029Y-128418453D01*
X106529342Y-128422362D01*
X106540636Y-128422525D01*
X106587763Y-128417845D01*
X106606331Y-128402500D01*
X106607098Y-128396519D01*
X106596887Y-128379377D01*
X106562169Y-128371569D01*
X106529078Y-128370512D01*
X106473800Y-128374780D01*
X106451549Y-128387835D01*
X106406563Y-128387835D01*
X106399747Y-128372440D01*
X106390682Y-128355622D01*
X106353548Y-128298818D01*
X106346937Y-128290775D01*
X106414684Y-128290775D01*
X106421583Y-128317142D01*
X106427940Y-128324277D01*
X106454180Y-128333192D01*
X106498837Y-128335824D01*
X106547626Y-128332815D01*
X106586263Y-128324809D01*
X106599627Y-128316560D01*
X106599376Y-128292952D01*
X106568976Y-128275919D01*
X106512636Y-128267377D01*
X106490067Y-128266750D01*
X106438475Y-128273086D01*
X106414684Y-128290775D01*
X106346937Y-128290775D01*
X106306954Y-128242133D01*
X106258058Y-128192800D01*
X106214020Y-128158052D01*
X106182320Y-128145119D01*
X106149996Y-128158412D01*
X106105844Y-128193449D01*
X106057034Y-128242965D01*
X106010735Y-128299696D01*
X105974531Y-128355622D01*
X105940385Y-128430909D01*
X105923589Y-128506667D01*
X105919528Y-128561228D01*
X105915937Y-128622266D01*
X105909583Y-128655696D01*
X105898138Y-128668584D01*
X105884034Y-128668899D01*
X105812597Y-128642750D01*
X105758743Y-128594124D01*
X105747394Y-128575706D01*
X105730779Y-128519329D01*
X105723654Y-128440056D01*
X105724633Y-128397515D01*
X105757542Y-128397515D01*
X105765613Y-128414689D01*
X105794885Y-128420500D01*
X105829880Y-128419188D01*
X105876388Y-128411151D01*
X105905606Y-128397458D01*
X105909345Y-128392184D01*
X105901748Y-128377800D01*
X105864640Y-128371196D01*
X105837007Y-128370512D01*
X105785640Y-128373589D01*
X105761679Y-128384375D01*
X105757542Y-128397515D01*
X105724633Y-128397515D01*
X105725767Y-128348267D01*
X105729963Y-128312757D01*
X105757542Y-128312757D01*
X105772224Y-128328761D01*
X105808685Y-128335579D01*
X105855550Y-128334180D01*
X105901440Y-128325528D01*
X105934979Y-128310592D01*
X105945033Y-128296826D01*
X105941736Y-128275655D01*
X105915658Y-128267403D01*
X105893182Y-128266721D01*
X105820742Y-128272482D01*
X105774200Y-128288172D01*
X105757544Y-128312438D01*
X105757542Y-128312757D01*
X105729963Y-128312757D01*
X105736866Y-128254344D01*
X105756700Y-128168671D01*
X105757313Y-128166699D01*
X105779035Y-128075865D01*
X105778603Y-128012402D01*
X105933792Y-128012402D01*
X105939813Y-128102602D01*
X105958803Y-128162088D01*
X105986685Y-128231772D01*
X106073764Y-128162439D01*
X106122143Y-128126406D01*
X106161771Y-128101336D01*
X106182144Y-128093106D01*
X106205726Y-128103864D01*
X106245151Y-128131766D01*
X106282232Y-128162457D01*
X106325347Y-128199140D01*
X106357649Y-128224278D01*
X106370477Y-128231809D01*
X106380336Y-128216727D01*
X106396070Y-128177707D01*
X106409776Y-128137137D01*
X106427901Y-128051072D01*
X106421604Y-127975665D01*
X106388553Y-127903776D01*
X106326417Y-127828266D01*
X106300560Y-127802696D01*
X106252210Y-127758967D01*
X106211751Y-127726725D01*
X106186854Y-127712000D01*
X106184779Y-127711672D01*
X106156719Y-127723871D01*
X106114419Y-127755583D01*
X106065593Y-127799476D01*
X106017952Y-127848223D01*
X105979210Y-127894492D01*
X105959214Y-127926026D01*
X105933792Y-128012402D01*
X105778603Y-128012402D01*
X105778549Y-128004420D01*
X105754526Y-127944066D01*
X105713683Y-127894362D01*
X105674299Y-127860577D01*
X105622111Y-127822860D01*
X105566670Y-127787273D01*
X105517527Y-127759877D01*
X105484233Y-127746734D01*
X105480465Y-127746348D01*
X105468143Y-127760266D01*
X105443567Y-127796963D01*
X105411225Y-127848848D01*
X105375603Y-127908333D01*
X105341190Y-127967830D01*
X105312473Y-128019751D01*
X105293939Y-128056505D01*
X105289419Y-128069416D01*
X105300147Y-128086416D01*
X105328205Y-128121200D01*
X105365469Y-128163928D01*
X105428636Y-128250897D01*
X105484191Y-128358084D01*
X105525539Y-128471046D01*
X105543761Y-128554414D01*
X105542263Y-128624225D01*
X105517927Y-128673459D01*
X105473352Y-128697964D01*
X105452680Y-128699932D01*
X105397972Y-128683484D01*
X105354214Y-128634161D01*
X105321419Y-128551996D01*
X105318708Y-128537709D01*
X105362903Y-128537709D01*
X105367825Y-128547730D01*
X105397737Y-128541213D01*
X105417846Y-128532496D01*
X105457467Y-128507995D01*
X105478896Y-128483832D01*
X105480136Y-128478401D01*
X105474075Y-128465583D01*
X105451329Y-128471838D01*
X105425179Y-128486105D01*
X105382259Y-128515663D01*
X105362903Y-128537709D01*
X105318708Y-128537709D01*
X105301497Y-128447011D01*
X105325383Y-128447011D01*
X105335653Y-128462980D01*
X105348973Y-128472746D01*
X105365964Y-128469145D01*
X105398588Y-128449245D01*
X105402725Y-128446538D01*
X105433608Y-128418846D01*
X105445460Y-128394525D01*
X105442174Y-128375534D01*
X105427112Y-128373331D01*
X105392471Y-128388186D01*
X105375247Y-128396964D01*
X105334582Y-128423590D01*
X105325383Y-128447011D01*
X105301497Y-128447011D01*
X105299601Y-128437021D01*
X105290835Y-128336447D01*
X105286019Y-128255435D01*
X105280845Y-128201571D01*
X105273038Y-128167379D01*
X105260322Y-128145384D01*
X105240421Y-128128110D01*
X105223973Y-128116828D01*
X105197498Y-128101379D01*
X105166151Y-128089286D01*
X105124146Y-128079535D01*
X105065700Y-128071117D01*
X104985026Y-128063018D01*
X104876339Y-128054227D01*
X104858153Y-128052853D01*
X104839108Y-128052634D01*
X104827235Y-128059697D01*
X104821035Y-128080411D01*
X104819011Y-128121147D01*
X104734607Y-128121147D01*
X104734607Y-127954403D01*
X104994675Y-127954403D01*
X105254743Y-127954403D01*
X105254743Y-127889888D01*
X105258221Y-127853216D01*
X105272089Y-127819632D01*
X105301501Y-127780576D01*
X105351608Y-127727490D01*
X105353893Y-127725178D01*
X105402717Y-127678463D01*
X105444340Y-127643368D01*
X105471478Y-127625898D01*
X105475402Y-127624983D01*
X105497905Y-127634147D01*
X105542491Y-127659079D01*
X105602641Y-127695938D01*
X105669796Y-127739524D01*
X105737969Y-127783600D01*
X105796112Y-127818735D01*
X105838025Y-127841349D01*
X105857454Y-127847886D01*
X105875549Y-127833148D01*
X105910780Y-127798928D01*
X105956923Y-127751374D01*
X105980019Y-127726801D01*
X106036501Y-127662717D01*
X106070310Y-127614979D01*
X106085309Y-127577610D01*
X106086961Y-127561224D01*
X106087646Y-127557657D01*
X106120753Y-127557657D01*
X106123834Y-127597147D01*
X106133196Y-127613424D01*
X106166072Y-127625451D01*
X106207400Y-127618594D01*
X106239229Y-127596450D01*
X106242330Y-127591563D01*
X106252109Y-127545642D01*
X106234395Y-127509772D01*
X106196292Y-127491649D01*
X106153870Y-127495724D01*
X106131749Y-127518246D01*
X106120753Y-127557657D01*
X106087646Y-127557657D01*
X106097367Y-127507076D01*
X106130773Y-127477356D01*
X106185388Y-127468942D01*
X106239094Y-127482538D01*
G37*
%TD.AperFunction*%
%TA.AperFunction,EtchedComponent*%
G36*
X105372833Y-130549417D02*
G01*
X105379535Y-130572423D01*
X105397230Y-130630965D01*
X105418218Y-130694035D01*
X105420754Y-130701199D01*
X105437146Y-130751192D01*
X105439139Y-130770845D01*
X105426316Y-130761548D01*
X105409194Y-130739769D01*
X105391782Y-130701436D01*
X105377445Y-130644218D01*
X105372123Y-130607099D01*
X105367577Y-130556730D01*
X105367638Y-130538326D01*
X105372833Y-130549417D01*
G37*
%TD.AperFunction*%
%TA.AperFunction,EtchedComponent*%
G36*
X105862625Y-129660030D02*
G01*
X105895729Y-129687311D01*
X105896759Y-129689152D01*
X105911593Y-129728220D01*
X105905497Y-129742631D01*
X105883208Y-129728853D01*
X105867809Y-129710742D01*
X105842190Y-129679312D01*
X105824288Y-129673031D01*
X105801202Y-129689167D01*
X105794416Y-129695213D01*
X105766168Y-129712983D01*
X105757291Y-129705750D01*
X105772850Y-129680098D01*
X105778347Y-129674321D01*
X105818146Y-129655030D01*
X105862625Y-129660030D01*
G37*
%TD.AperFunction*%
%TA.AperFunction,EtchedComponent*%
G36*
X106551954Y-129652836D02*
G01*
X106574266Y-129669815D01*
X106597544Y-129693391D01*
X106598946Y-129704782D01*
X106597562Y-129704952D01*
X106569788Y-129694494D01*
X106561451Y-129687623D01*
X106530692Y-129677229D01*
X106496182Y-129694465D01*
X106470818Y-129728213D01*
X106456584Y-129754552D01*
X106453505Y-129748970D01*
X106455616Y-129724854D01*
X106472788Y-129683189D01*
X106496246Y-129659375D01*
X106525763Y-129645252D01*
X106551954Y-129652836D01*
G37*
%TD.AperFunction*%
%TA.AperFunction,EtchedComponent*%
G36*
X104630579Y-130555629D02*
G01*
X104616528Y-130570531D01*
X104604572Y-130572423D01*
X104581440Y-130568714D01*
X104578566Y-130565609D01*
X104592123Y-130554429D01*
X104604572Y-130548815D01*
X104626898Y-130548455D01*
X104630579Y-130555629D01*
G37*
%TD.AperFunction*%
%TA.AperFunction,EtchedComponent*%
G36*
X104191693Y-129924783D02*
G01*
X104188463Y-129930921D01*
X104172127Y-129947479D01*
X104169079Y-129948259D01*
X104167896Y-129937060D01*
X104171125Y-129930921D01*
X104187461Y-129914364D01*
X104190510Y-129913583D01*
X104191693Y-129924783D01*
G37*
%TD.AperFunction*%
%TA.AperFunction,EtchedComponent*%
G36*
X108184845Y-129922252D02*
G01*
X108176176Y-129930921D01*
X108167508Y-129922252D01*
X108176176Y-129913583D01*
X108184845Y-129922252D01*
G37*
%TD.AperFunction*%
%TA.AperFunction,EtchedComponent*%
G36*
X106225630Y-128257782D02*
G01*
X106287949Y-128335336D01*
X106336156Y-128430335D01*
X106367258Y-128532817D01*
X106378265Y-128632820D01*
X106366183Y-128720382D01*
X106365343Y-128722984D01*
X106328794Y-128790797D01*
X106273726Y-128842492D01*
X106209397Y-128870464D01*
X106182320Y-128873310D01*
X106115410Y-128857267D01*
X106072111Y-128829398D01*
X106019109Y-128763312D01*
X105991125Y-128679229D01*
X105987617Y-128582582D01*
X105990113Y-128569897D01*
X106104299Y-128569897D01*
X106112968Y-128578566D01*
X106121637Y-128569897D01*
X106112968Y-128561228D01*
X106104299Y-128569897D01*
X105990113Y-128569897D01*
X106008039Y-128478805D01*
X106020613Y-128448532D01*
X106156313Y-128448532D01*
X106164982Y-128457201D01*
X106173651Y-128448532D01*
X106164982Y-128439863D01*
X106156313Y-128448532D01*
X106020613Y-128448532D01*
X106051848Y-128373329D01*
X106118499Y-128271588D01*
X106129322Y-128258311D01*
X106172407Y-128206792D01*
X106225630Y-128257782D01*
G37*
%TD.AperFunction*%
%TA.AperFunction,EtchedComponent*%
G36*
X106215170Y-129019736D02*
G01*
X106273080Y-129057042D01*
X106280891Y-129064573D01*
X106316340Y-129108191D01*
X106325122Y-129144633D01*
X106323139Y-129155597D01*
X106314693Y-129195560D01*
X106312591Y-129215334D01*
X106297481Y-129241024D01*
X106259587Y-129269336D01*
X106209333Y-129292903D01*
X106197297Y-129296825D01*
X106156528Y-129294483D01*
X106107068Y-129263080D01*
X106106274Y-129262413D01*
X106063592Y-129208390D01*
X106055561Y-129174566D01*
X106081199Y-129174566D01*
X106086244Y-129192174D01*
X106118933Y-129235990D01*
X106169011Y-129254129D01*
X106228228Y-129244259D01*
X106244142Y-129236796D01*
X106270103Y-129205530D01*
X106277978Y-129158239D01*
X106267768Y-129108487D01*
X106244167Y-129073750D01*
X106198369Y-129051028D01*
X106151204Y-129055725D01*
X106110641Y-129081864D01*
X106084649Y-129123470D01*
X106081199Y-129174566D01*
X106055561Y-129174566D01*
X106049174Y-129147668D01*
X106063362Y-129089149D01*
X106097969Y-129047948D01*
X106157530Y-129016771D01*
X106215170Y-129019736D01*
G37*
%TD.AperFunction*%
%TD*%
D14*
%TO.P,J1,1,Pin_1*%
%TO.N,/VCC*%
X104580000Y-122000000D03*
D15*
%TO.P,J1,2,Pin_2*%
%TO.N,/GND*%
X107120000Y-122000000D03*
%TO.P,J1,3,Pin_3*%
%TO.N,/TRIG*%
X109660000Y-122000000D03*
%TO.P,J1,4,Pin_4*%
%TO.N,/ECHO*%
X112200000Y-122000000D03*
%TD*%
D16*
%TO.P,D1,1,K*%
%TO.N,/GND*%
X108540000Y-92500000D03*
D17*
%TO.P,D1,2,A*%
%TO.N,/L*%
X111080000Y-92500000D03*
%TD*%
D18*
%TO.P,J2,2,Pin_2*%
%TO.N,/GND*%
X111080000Y-71000000D03*
D19*
%TO.P,J2,1,Pin_1*%
%TO.N,/VCC*%
X106000000Y-71000000D03*
%TD*%
D20*
%TO.P,R1,2*%
%TO.N,/L*%
X113580000Y-82500000D03*
%TO.P,R1,1*%
%TO.N,/R*%
X105960000Y-82500000D03*
%TD*%
D21*
%TO.P,BZ1,1,+*%
%TO.N,/B*%
X106400000Y-109500000D03*
D22*
%TO.P,BZ1,2,-*%
%TO.N,/GND*%
X114000000Y-109500000D03*
%TD*%
D23*
%TO.P,A1,1,NC*%
%TO.N,unconnected-(A1-NC-Pad1)*%
X119870000Y-100175000D03*
D24*
%TO.P,A1,2,IOREF*%
%TO.N,unconnected-(A1-IOREF-Pad2)*%
X119870000Y-97635000D03*
%TO.P,A1,3,~{RESET}*%
%TO.N,unconnected-(A1-~{RESET}-Pad3)*%
X119870000Y-95095000D03*
%TO.P,A1,4,3V3*%
%TO.N,unconnected-(A1-3V3-Pad4)*%
X119870000Y-92555000D03*
%TO.P,A1,5,+5V*%
%TO.N,/VCC*%
X119870000Y-90015000D03*
%TO.P,A1,6,GND*%
%TO.N,unconnected-(A1-GND-Pad6)*%
X119870000Y-87475000D03*
%TO.P,A1,7,GND*%
%TO.N,unconnected-(A1-GND-Pad7)*%
X119870000Y-84935000D03*
%TO.P,A1,8,VIN*%
%TO.N,unconnected-(A1-VIN-Pad8)*%
X119870000Y-82395000D03*
%TO.P,A1,9,A0*%
%TO.N,unconnected-(A1-A0-Pad9)*%
X119870000Y-77315000D03*
%TO.P,A1,10,A1*%
%TO.N,unconnected-(A1-A1-Pad10)*%
X119870000Y-74775000D03*
%TO.P,A1,11,A2*%
%TO.N,unconnected-(A1-A2-Pad11)*%
X119870000Y-72235000D03*
%TO.P,A1,12,A3*%
%TO.N,unconnected-(A1-A3-Pad12)*%
X119870000Y-69695000D03*
%TO.P,A1,13,SDA/A4*%
%TO.N,unconnected-(A1-SDA{slash}A4-Pad13)*%
X119870000Y-67155000D03*
%TO.P,A1,14,SCL/A5*%
%TO.N,unconnected-(A1-SCL{slash}A5-Pad14)*%
X119870000Y-64615000D03*
%TO.P,A1,15,D0/RX*%
%TO.N,unconnected-(A1-D0{slash}RX-Pad15)*%
X168130000Y-64615000D03*
%TO.P,A1,16,D1/TX*%
%TO.N,unconnected-(A1-D1{slash}TX-Pad16)*%
X168130000Y-67155000D03*
%TO.P,A1,17,D2*%
%TO.N,unconnected-(A1-D2-Pad17)*%
X168130000Y-69695000D03*
%TO.P,A1,18,D3*%
%TO.N,unconnected-(A1-D3-Pad18)*%
X168130000Y-72235000D03*
%TO.P,A1,19,D4*%
%TO.N,unconnected-(A1-D4-Pad19)*%
X168130000Y-74775000D03*
%TO.P,A1,20,D5*%
%TO.N,unconnected-(A1-D5-Pad20)*%
X168130000Y-77315000D03*
%TO.P,A1,21,D6*%
%TO.N,unconnected-(A1-D6-Pad21)*%
X168130000Y-79855000D03*
%TO.P,A1,22,D7*%
%TO.N,/R*%
X168130000Y-82395000D03*
%TO.P,A1,23,D8*%
%TO.N,/B*%
X168130000Y-86455000D03*
%TO.P,A1,24,D9*%
%TO.N,/TRIG*%
X168130000Y-88995000D03*
%TO.P,A1,25,D10*%
%TO.N,/ECHO*%
X168130000Y-91535000D03*
%TO.P,A1,26,D11*%
%TO.N,unconnected-(A1-D11-Pad26)*%
X168130000Y-94075000D03*
%TO.P,A1,27,D12*%
%TO.N,unconnected-(A1-D12-Pad27)*%
X168130000Y-96615000D03*
%TO.P,A1,28,D13*%
%TO.N,unconnected-(A1-D13-Pad28)*%
X168130000Y-99155000D03*
%TO.P,A1,29,GND*%
%TO.N,unconnected-(A1-GND-Pad29)*%
X168130000Y-101695000D03*
%TO.P,A1,30,AREF*%
%TO.N,unconnected-(A1-AREF-Pad30)*%
X168130000Y-104235000D03*
%TO.P,A1,31,SDA/A4*%
%TO.N,unconnected-(A1-SDA{slash}A4-Pad31)*%
X168130000Y-106775000D03*
%TO.P,A1,32,SCL/A5*%
%TO.N,unconnected-(A1-SCL{slash}A5-Pad32)*%
X168130000Y-109315000D03*
%TD*%
D25*
%TO.N,/GND*%
X114000000Y-115120000D02*
X114000000Y-109500000D01*
X107120000Y-122000000D02*
X114000000Y-115120000D01*
X105099000Y-110801000D02*
X112699000Y-110801000D01*
X112699000Y-110801000D02*
X114000000Y-109500000D01*
X105099000Y-95941000D02*
X105099000Y-110801000D01*
X108540000Y-92500000D02*
X105099000Y-95941000D01*
X104458000Y-88418000D02*
X108540000Y-92500000D01*
X104458000Y-69555840D02*
X104458000Y-88418000D01*
X105114840Y-68899000D02*
X104458000Y-69555840D01*
X108979000Y-68899000D02*
X105114840Y-68899000D01*
X111080000Y-71000000D02*
X108979000Y-68899000D01*
%TO.N,/VCC*%
X104859000Y-72141000D02*
X106000000Y-71000000D01*
X104859000Y-82956050D02*
X104859000Y-72141000D01*
X110582529Y-93701000D02*
X109879000Y-92997471D01*
X109879000Y-92997471D02*
X109879000Y-87976050D01*
X116184000Y-93701000D02*
X110582529Y-93701000D01*
X109879000Y-87976050D02*
X104859000Y-82956050D01*
X119870000Y-90015000D02*
X116184000Y-93701000D01*
%TO.N,/ECHO*%
X168130000Y-91535000D02*
X137665000Y-122000000D01*
X137665000Y-122000000D02*
X112200000Y-122000000D01*
%TO.N,/TRIG*%
X120660000Y-111000000D02*
X109660000Y-122000000D01*
X146125000Y-111000000D02*
X120660000Y-111000000D01*
X168130000Y-88995000D02*
X146125000Y-111000000D01*
%TO.N,/B*%
X114400000Y-101500000D02*
X106400000Y-109500000D01*
X153085000Y-101500000D02*
X114400000Y-101500000D01*
X168130000Y-86455000D02*
X153085000Y-101500000D01*
%TO.N,/L*%
X111080000Y-85000000D02*
X111080000Y-92500000D01*
X113580000Y-82500000D02*
X111080000Y-85000000D01*
%TO.N,/R*%
X167029000Y-81294000D02*
X107166000Y-81294000D01*
X107166000Y-81294000D02*
X105960000Y-82500000D01*
X168130000Y-82395000D02*
X167029000Y-81294000D01*
%TD*%
M02*
