%TF.GenerationSoftware,KiCad,Pcbnew,9.0.7*%
%TF.CreationDate,2026-03-14T16:53:24+05:30*%
%TF.ProjectId,ARDUINO PARKING SENSOR PCB,41524455-494e-44f2-9050-41524b494e47,rev?*%
%TF.SameCoordinates,Original*%
%TF.FileFunction,Legend,Top*%
%TF.FilePolarity,Positive*%
%FSLAX46Y46*%
G04 Gerber Fmt 4.6, Leading zero omitted, Abs format (unit mm)*
G04 Created by KiCad (PCBNEW 9.0.7) date 2026-03-14 16:53:24*
%MOMM*%
%LPD*%
G01*
G04 APERTURE LIST*
%ADD10C,0.150000*%
%ADD11C,0.120000*%
G04 APERTURE END LIST*
D10*
X101654819Y-122333333D02*
X102369104Y-122333333D01*
X102369104Y-122333333D02*
X102511961Y-122380952D01*
X102511961Y-122380952D02*
X102607200Y-122476190D01*
X102607200Y-122476190D02*
X102654819Y-122619047D01*
X102654819Y-122619047D02*
X102654819Y-122714285D01*
X102654819Y-121333333D02*
X102654819Y-121904761D01*
X102654819Y-121619047D02*
X101654819Y-121619047D01*
X101654819Y-121619047D02*
X101797676Y-121714285D01*
X101797676Y-121714285D02*
X101892914Y-121809523D01*
X101892914Y-121809523D02*
X101940533Y-121904761D01*
X108206666Y-64904819D02*
X108206666Y-65619104D01*
X108206666Y-65619104D02*
X108159047Y-65761961D01*
X108159047Y-65761961D02*
X108063809Y-65857200D01*
X108063809Y-65857200D02*
X107920952Y-65904819D01*
X107920952Y-65904819D02*
X107825714Y-65904819D01*
X108635238Y-65000057D02*
X108682857Y-64952438D01*
X108682857Y-64952438D02*
X108778095Y-64904819D01*
X108778095Y-64904819D02*
X109016190Y-64904819D01*
X109016190Y-64904819D02*
X109111428Y-64952438D01*
X109111428Y-64952438D02*
X109159047Y-65000057D01*
X109159047Y-65000057D02*
X109206666Y-65095295D01*
X109206666Y-65095295D02*
X109206666Y-65190533D01*
X109206666Y-65190533D02*
X109159047Y-65333390D01*
X109159047Y-65333390D02*
X108587619Y-65904819D01*
X108587619Y-65904819D02*
X109206666Y-65904819D01*
X109603333Y-80584819D02*
X109270000Y-80108628D01*
X109031905Y-80584819D02*
X109031905Y-79584819D01*
X109031905Y-79584819D02*
X109412857Y-79584819D01*
X109412857Y-79584819D02*
X109508095Y-79632438D01*
X109508095Y-79632438D02*
X109555714Y-79680057D01*
X109555714Y-79680057D02*
X109603333Y-79775295D01*
X109603333Y-79775295D02*
X109603333Y-79918152D01*
X109603333Y-79918152D02*
X109555714Y-80013390D01*
X109555714Y-80013390D02*
X109508095Y-80061009D01*
X109508095Y-80061009D02*
X109412857Y-80108628D01*
X109412857Y-80108628D02*
X109031905Y-80108628D01*
X110555714Y-80584819D02*
X109984286Y-80584819D01*
X110270000Y-80584819D02*
X110270000Y-79584819D01*
X110270000Y-79584819D02*
X110174762Y-79727676D01*
X110174762Y-79727676D02*
X110079524Y-79822914D01*
X110079524Y-79822914D02*
X109984286Y-79870533D01*
X108399047Y-100731009D02*
X108541904Y-100778628D01*
X108541904Y-100778628D02*
X108589523Y-100826247D01*
X108589523Y-100826247D02*
X108637142Y-100921485D01*
X108637142Y-100921485D02*
X108637142Y-101064342D01*
X108637142Y-101064342D02*
X108589523Y-101159580D01*
X108589523Y-101159580D02*
X108541904Y-101207200D01*
X108541904Y-101207200D02*
X108446666Y-101254819D01*
X108446666Y-101254819D02*
X108065714Y-101254819D01*
X108065714Y-101254819D02*
X108065714Y-100254819D01*
X108065714Y-100254819D02*
X108399047Y-100254819D01*
X108399047Y-100254819D02*
X108494285Y-100302438D01*
X108494285Y-100302438D02*
X108541904Y-100350057D01*
X108541904Y-100350057D02*
X108589523Y-100445295D01*
X108589523Y-100445295D02*
X108589523Y-100540533D01*
X108589523Y-100540533D02*
X108541904Y-100635771D01*
X108541904Y-100635771D02*
X108494285Y-100683390D01*
X108494285Y-100683390D02*
X108399047Y-100731009D01*
X108399047Y-100731009D02*
X108065714Y-100731009D01*
X108970476Y-100254819D02*
X109637142Y-100254819D01*
X109637142Y-100254819D02*
X108970476Y-101254819D01*
X108970476Y-101254819D02*
X109637142Y-101254819D01*
X110541904Y-101254819D02*
X109970476Y-101254819D01*
X110256190Y-101254819D02*
X110256190Y-100254819D01*
X110256190Y-100254819D02*
X110160952Y-100397676D01*
X110160952Y-100397676D02*
X110065714Y-100492914D01*
X110065714Y-100492914D02*
X109970476Y-100540533D01*
X105089048Y-105533866D02*
X105850953Y-105533866D01*
X105470000Y-105914819D02*
X105470000Y-105152914D01*
X116229104Y-99619285D02*
X116229104Y-99143095D01*
X116514819Y-99714523D02*
X115514819Y-99381190D01*
X115514819Y-99381190D02*
X116514819Y-99047857D01*
X116514819Y-98190714D02*
X116514819Y-98762142D01*
X116514819Y-98476428D02*
X115514819Y-98476428D01*
X115514819Y-98476428D02*
X115657676Y-98571666D01*
X115657676Y-98571666D02*
X115752914Y-98666904D01*
X115752914Y-98666904D02*
X115800533Y-98762142D01*
D11*
%TO.C,J1*%
X103200000Y-123380000D02*
X103200000Y-122000000D01*
X104580000Y-123380000D02*
X103200000Y-123380000D01*
X105850000Y-123380000D02*
X113580000Y-123380000D01*
X105850000Y-123380000D02*
X105850000Y-120620000D01*
X113580000Y-123380000D02*
X113580000Y-120620000D01*
X105850000Y-120620000D02*
X113580000Y-120620000D01*
%TO.C,D1*%
X107250000Y-90955000D02*
X107250000Y-94045000D01*
X107250000Y-90955170D02*
G75*
G02*
X112800000Y-92500000I2560000J-1544830D01*
G01*
X112800000Y-92500000D02*
G75*
G02*
X107250000Y-94044830I-2990000J0D01*
G01*
X112310000Y-92500000D02*
G75*
G02*
X107310000Y-92500000I-2500000J0D01*
G01*
X107310000Y-92500000D02*
G75*
G02*
X112310000Y-92500000I2500000J0D01*
G01*
%TO.C,J2*%
X110330000Y-73150000D02*
G75*
G02*
X111829647Y-73149844I750000J-1700000D01*
G01*
X105250000Y-73150000D02*
G75*
G02*
X106749647Y-73149844I750000J-1700000D01*
G01*
X103350000Y-66540000D02*
X113730000Y-66540000D01*
X113730000Y-74010000D01*
X103350000Y-74010000D01*
X103350000Y-66540000D01*
X112580000Y-73150000D02*
X111830000Y-73150000D01*
X112580000Y-68850000D02*
X112580000Y-73150000D01*
X112580000Y-67500000D02*
X112330000Y-68500000D01*
X112330000Y-68500000D02*
X111830000Y-68500000D01*
X111830000Y-68850000D02*
X112580000Y-68850000D01*
X111830000Y-68500000D02*
X111830000Y-68850000D01*
X110330000Y-73150000D02*
X109580000Y-73150000D01*
X110330000Y-68850000D02*
X110330000Y-68500000D01*
X110330000Y-68500000D02*
X109830000Y-68500000D01*
X109830000Y-68500000D02*
X109580000Y-67500000D01*
X109580000Y-73150000D02*
X109580000Y-68850000D01*
X109580000Y-68850000D02*
X110330000Y-68850000D01*
X109580000Y-67500000D02*
X112580000Y-67500000D01*
X107500000Y-73150000D02*
X106750000Y-73150000D01*
X107500000Y-68850000D02*
X107500000Y-73150000D01*
X107500000Y-67500000D02*
X107250000Y-68500000D01*
X107250000Y-68500000D02*
X106750000Y-68500000D01*
X106750000Y-68850000D02*
X107500000Y-68850000D01*
X106750000Y-68500000D02*
X106750000Y-68850000D01*
X105250000Y-73150000D02*
X104500000Y-73150000D01*
X105250000Y-68850000D02*
X105250000Y-68500000D01*
X105250000Y-68500000D02*
X104750000Y-68500000D01*
X104750000Y-68500000D02*
X104500000Y-67500000D01*
X104500000Y-73150000D02*
X104500000Y-68850000D01*
X104500000Y-68850000D02*
X105250000Y-68850000D01*
X104500000Y-67500000D02*
X107500000Y-67500000D01*
X102960000Y-67400000D02*
X102960000Y-66150000D01*
X102960000Y-66150000D02*
X104960000Y-66150000D01*
%TO.C,R1*%
X113040000Y-83870000D02*
X113040000Y-83540000D01*
X113040000Y-81130000D02*
X113040000Y-81460000D01*
X106500000Y-83870000D02*
X113040000Y-83870000D01*
X106500000Y-83540000D02*
X106500000Y-83870000D01*
X106500000Y-81460000D02*
X106500000Y-81130000D01*
X106500000Y-81130000D02*
X113040000Y-81130000D01*
%TO.C,BZ1*%
X116300000Y-109500000D02*
G75*
G02*
X104100000Y-109500000I-6100000J0D01*
G01*
X104100000Y-109500000D02*
G75*
G02*
X116300000Y-109500000I6100000J0D01*
G01*
%TO.C,A1*%
X149590000Y-134595000D02*
X161270000Y-134595000D01*
X161270000Y-134595000D02*
X161270000Y-128245000D01*
X120380000Y-130145000D02*
X129520000Y-130145000D01*
X129520000Y-130145000D02*
X129520000Y-128245000D01*
X117200000Y-128245000D02*
X120380000Y-128245000D01*
X120380000Y-128245000D02*
X120380000Y-130145000D01*
X129520000Y-128245000D02*
X149590000Y-128245000D01*
X149590000Y-128245000D02*
X149590000Y-134595000D01*
X161270000Y-128245000D02*
X170800000Y-128245000D01*
X170800000Y-128245000D02*
X170800000Y-63595000D01*
X170800000Y-63595000D02*
X169150000Y-61945000D01*
X117200000Y-61945000D02*
X117200000Y-128245000D01*
X119870000Y-61945000D02*
X117200000Y-61945000D01*
X157720000Y-61945000D02*
X155180000Y-59405000D01*
X169150000Y-61945000D02*
X157720000Y-61945000D01*
X122410000Y-59405000D02*
X119870000Y-61945000D01*
X155180000Y-59405000D02*
X122410000Y-59405000D01*
%TD*%
M02*
