%TF.GenerationSoftware,KiCad,Pcbnew,9.0.7*%
%TF.CreationDate,2026-03-14T16:53:53+05:30*%
%TF.ProjectId,ARDUINO PARKING SENSOR PCB,41524455-494e-44f2-9050-41524b494e47,rev?*%
%TF.SameCoordinates,Original*%
%TF.FileFunction,Plated,1,2,PTH,Drill*%
%TF.FilePolarity,Positive*%
%FSLAX46Y46*%
G04 Gerber Fmt 4.6, Leading zero omitted, Abs format (unit mm)*
G04 Created by KiCad (PCBNEW 9.0.7) date 2026-03-14 16:53:53*
%MOMM*%
%LPD*%
G01*
G04 APERTURE LIST*
%TA.AperFunction,ComponentDrill*%
%ADD10C,0.800000*%
%TD*%
%TA.AperFunction,ComponentDrill*%
%ADD11C,0.900000*%
%TD*%
%TA.AperFunction,ComponentDrill*%
%ADD12C,1.000000*%
%TD*%
%TA.AperFunction,ComponentDrill*%
%ADD13C,1.200000*%
%TD*%
G04 APERTURE END LIST*
D10*
%TO.C,R1*%
X105960000Y-82500000D03*
X113580000Y-82500000D03*
D11*
%TO.C,D1*%
X108540000Y-92500000D03*
X111080000Y-92500000D03*
D12*
%TO.C,J1*%
X104580000Y-122000000D03*
%TO.C,BZ1*%
X106400000Y-109500000D03*
%TO.C,J1*%
X107120000Y-122000000D03*
X109660000Y-122000000D03*
X112200000Y-122000000D03*
%TO.C,BZ1*%
X114000000Y-109500000D03*
%TO.C,A1*%
X119870000Y-64615000D03*
X119870000Y-67155000D03*
X119870000Y-69695000D03*
X119870000Y-72235000D03*
X119870000Y-74775000D03*
X119870000Y-77315000D03*
X119870000Y-82395000D03*
X119870000Y-84935000D03*
X119870000Y-87475000D03*
X119870000Y-90015000D03*
X119870000Y-92555000D03*
X119870000Y-95095000D03*
X119870000Y-97635000D03*
X119870000Y-100175000D03*
X168130000Y-64615000D03*
X168130000Y-67155000D03*
X168130000Y-69695000D03*
X168130000Y-72235000D03*
X168130000Y-74775000D03*
X168130000Y-77315000D03*
X168130000Y-79855000D03*
X168130000Y-82395000D03*
X168130000Y-86455000D03*
X168130000Y-88995000D03*
X168130000Y-91535000D03*
X168130000Y-94075000D03*
X168130000Y-96615000D03*
X168130000Y-99155000D03*
X168130000Y-101695000D03*
X168130000Y-104235000D03*
X168130000Y-106775000D03*
X168130000Y-109315000D03*
D13*
%TO.C,J2*%
X106000000Y-71000000D03*
X111080000Y-71000000D03*
M02*
